<svg xmlns="http://www.w3.org/2000/svg" width="700" height="700" viewBox="0 0 700 700" version="1.1">
	<path d="M 67 180.845 C 45.822 186.481, 39.899 218.542, 55.979 240.500 C 56.382 241.050, 57.010 242.625, 57.376 244 C 61.661 260.125, 63.035 265.750, 64.456 273 C 65.373 277.675, 66.734 283.525, 67.482 286 C 71.012 297.695, 70.777 299.002, 63.676 307.144 C 46.254 327.120, 43.626 352.457, 56.948 372 C 57.886 373.375, 59.690 378.100, 60.959 382.500 C 63.647 391.827, 67.092 398.217, 70.887 400.919 C 72.674 402.192, 74.202 404.807, 75.417 408.670 C 77.361 414.858, 86.780 434.912, 90.759 441.337 C 93.116 445.143, 93.122 445.224, 91.491 451.337 C 80.593 492.180, 104.386 515.323, 145.500 503.871 C 155.712 501.026, 158.618 501.100, 169 504.469 C 190.021 511.291, 197.715 512.439, 223 512.524 C 238.505 512.576, 243.524 512.934, 247.500 514.273 C 277.676 524.438, 298.596 513.577, 300.688 486.661 C 301.195 480.139, 301.576 479.143, 304.955 475.500 C 306.995 473.300, 310.230 469.025, 312.143 466 C 320.780 452.343, 322.044 450.171, 323.067 447.239 C 324.153 444.121, 324.153 444.121, 329.908 448.590 C 340.516 456.828, 354.221 456.958, 363.366 448.909 C 367.890 444.927, 367.890 444.927, 369.107 447.213 C 370.489 449.809, 375.291 456.209, 378.813 460.149 C 381.181 462.799, 381.181 462.799, 379.442 469.952 C 370.516 506.680, 406.439 528.745, 444.475 509.897 C 452.948 505.699, 452.948 505.699, 463.606 507.448 C 483.035 510.636, 513.813 509.650, 533.995 505.192 C 536.162 504.713, 539.392 504.919, 542.495 505.732 C 571.705 513.385, 595.417 497.389, 592.497 472 C 591.878 466.614, 591.968 466.353, 596.857 459.395 C 602.578 451.252, 606.703 442.630, 609.877 432.179 C 613.927 418.846, 613.326 419.550, 618.092 422.558 C 656.484 446.794, 676.165 379.131, 642.615 338.251 C 641.373 336.738, 638.673 332.694, 636.615 329.264 C 634.556 325.834, 632.291 322.684, 631.582 322.264 C 630.872 321.844, 629.116 319.620, 627.679 317.323 C 626.242 315.026, 623.668 311.553, 621.959 309.606 C 620.249 307.658, 617.507 302.577, 615.865 298.313 C 614.223 294.049, 612.513 290.096, 612.066 289.530 C 611.619 288.963, 609.562 283.775, 607.497 278 C 605.431 272.225, 602.272 264.350, 600.478 260.500 C 591.457 241.146, 589.666 237.680, 587.153 234.713 C 585.657 232.946, 583.263 229.700, 581.833 227.500 C 575.611 217.929, 551.993 197, 547.414 197 C 547.113 197, 545.385 195.870, 543.573 194.488 C 522.616 178.503, 459.098 178.735, 430 194.903 C 426.425 196.889, 421.785 199.411, 419.689 200.507 C 415.711 202.587, 399 218.013, 399 219.605 C 399 220.109, 397.762 221.850, 396.250 223.476 C 393.607 226.316, 388 234.535, 388 235.569 C 388 235.844, 386.035 239.541, 383.634 243.785 C 379.460 251.162, 376.459 258.977, 370.391 278.275 C 368.354 284.752, 366.628 288.157, 363.803 291.275 C 361.697 293.599, 356.875 299.406, 353.087 304.180 C 346.200 312.861, 346.200 312.861, 344.959 306.180 C 344.276 302.506, 343.298 298.375, 342.784 297 C 342.271 295.625, 340.786 289.325, 339.485 283 C 336.359 267.798, 333.070 258.066, 328.091 249.281 C 325.841 245.310, 324 241.838, 324 241.565 C 324 240.534, 318.388 232.311, 315.750 229.476 C 314.237 227.850, 313 226.138, 313 225.670 C 313 218.316, 278.155 195.418, 259.500 190.512 C 254.550 189.211, 247.910 187.462, 244.745 186.626 C 232.151 183.301, 201.363 183.701, 191.375 187.320 C 189.244 188.092, 184.125 189.743, 180 190.988 C 166.630 195.024, 151.780 204.628, 140.157 216.757 C 134.813 222.332, 134.813 222.332, 132.716 218.916 C 119.972 198.160, 113.544 191.137, 102.120 185.491 C 89.596 179.302, 78.377 177.817, 67 180.845" stroke="none" fill="#fff" fill-rule="evenodd"/>
</svg>