<svg xmlns="http://www.w3.org/2000/svg" width="700" height="700" viewBox="0 0 700 700" version="1.1">
	<path d="M 56.071 7.591 C 35.316 13.171, 31.301 25.988, 41.222 55 C 56.045 98.347, 58.627 115.353, 51.586 123.255 C 36.394 140.307, 33.782 155.696, 42.516 176.716 C 44.523 181.547, 47.423 189.134, 48.961 193.577 C 51.933 202.166, 55.730 208.973, 58.770 211.164 C 59.789 211.899, 61.860 215.875, 63.372 220 C 64.884 224.125, 68.772 232.560, 72.014 238.744 C 77.907 249.988, 77.907 249.988, 75.827 258.212 C 66.625 294.599, 90.530 315.627, 128.460 304.513 C 137.421 301.887, 137.421 301.887, 146.460 304.855 C 164.009 310.616, 183.240 313.427, 200.575 312.766 C 212.334 312.317, 214.818 312.503, 219.178 314.160 C 246.266 324.452, 266.019 314.243, 268.704 288.562 C 269.247 283.363, 269.948 281.836, 274.218 276.553 C 279.327 270.230, 288.998 254.368, 288.999 252.307 C 289 251.652, 291.329 252.649, 294.175 254.523 C 303.793 260.858, 314.934 261.223, 323.997 255.502 C 329.681 251.914, 332.644 246.895, 336.573 234.201 C 336.826 233.383, 338.146 234.236, 340.136 236.502 C 341.874 238.482, 344.543 240.746, 346.066 241.534 C 347.588 242.321, 350.525 245.786, 352.592 249.233 C 354.659 252.680, 358.275 258.065, 360.628 261.199 C 364.905 266.898, 364.905 266.898, 363.911 273.069 C 358.119 309.037, 388.682 327.760, 424.818 310.379 C 432.379 306.743, 432.379 306.743, 441.939 308.454 C 456.186 311.004, 483.702 310.726, 497.271 307.895 C 509.413 305.362, 507.623 305.396, 517.449 307.515 C 541.853 312.776, 562.760 296.890, 559.555 275.519 C 558.997 271.800, 559.347 270.687, 562.570 265.907 C 569.393 255.786, 578 236.293, 578 230.961 C 578 229.462, 578.503 229.527, 582.478 231.539 C 628.697 254.938, 634.779 190.487, 591.763 133.146 C 583.520 122.158, 582.565 120.342, 574.851 101 C 548.158 34.065, 514.400 6.871, 461 9.288 C 406.522 11.754, 372.718 39.633, 356.548 95.430 C 354.226 103.444, 353.218 105.235, 346.156 113.902 C 335.517 126.958, 328.027 137.237, 322.402 146.502 C 316.239 156.655, 315.459 155.218, 308.416 120.735 C 301.268 85.742, 298.590 77.979, 287.478 60.039 C 253.288 4.842, 169.246 -6.029, 123.349 38.809 C 117.198 44.818, 117.198 44.818, 112.182 36.609 C 98.204 13.736, 75.976 2.240, 56.071 7.591" stroke="none" fill="black" fill-rule="evenodd"/>
</svg>