<svg xmlns="http://www.w3.org/2000/svg" width="700" height="700" viewBox="0 0 700 700" version="1.1">
	<path d="M 80.071 194.591 C 59.316 200.171, 55.301 212.988, 65.222 242 C 80.045 285.347, 82.627 302.353, 75.586 310.255 C 60.394 327.307, 57.782 342.696, 66.516 363.716 C 68.523 368.547, 71.423 376.134, 72.961 380.577 C 75.933 389.166, 79.730 395.973, 82.770 398.164 C 83.789 398.899, 85.860 402.875, 87.372 407 C 88.884 411.125, 92.772 419.560, 96.014 425.744 C 101.907 436.988, 101.907 436.988, 99.827 445.212 C 90.588 481.747, 114.943 502.844, 153.328 491.559 C 162.157 488.963, 162.157 488.963, 168.909 491.399 C 175.749 493.866, 189.162 496.863, 203.196 499.060 C 207.808 499.782, 216.399 500.078, 224.631 499.799 C 236.381 499.400, 239.082 499.603, 243.290 501.202 C 270.774 511.645, 291.007 501.364, 293.701 475.586 C 294.244 470.391, 294.955 468.858, 299.411 463.274 C 302.210 459.766, 306.764 452.946, 309.530 448.120 C 314.560 439.344, 314.560 439.344, 319.030 442.142 C 335.493 452.446, 354.093 445.228, 359.990 426.248 C 361.621 420.995, 361.621 420.995, 364.561 424.087 C 366.177 425.787, 368.700 427.806, 370.167 428.572 C 371.634 429.339, 374.525 432.786, 376.592 436.233 C 378.659 439.680, 382.275 445.065, 384.628 448.199 C 388.905 453.898, 388.905 453.898, 387.911 460.069 C 382.100 496.156, 413.223 514.981, 449.695 497.439 C 457.200 493.829, 457.200 493.829, 466.350 495.514 C 479.964 498.022, 508.602 497.731, 522.249 494.946 C 532.215 492.913, 532.744 492.902, 541.294 494.560 C 567.113 499.567, 587.812 484.236, 584.555 462.519 C 583.997 458.800, 584.347 457.687, 587.570 452.907 C 592.919 444.972, 597.975 434.588, 600.942 425.440 C 603.556 417.380, 603.556 417.380, 607.528 419.142 C 654.054 439.775, 659.855 377.588, 616.763 320.146 C 608.520 309.158, 607.565 307.342, 599.851 288 C 573.064 220.829, 539.570 193.964, 485.500 196.283 C 430.680 198.634, 396.775 226.436, 380.581 282.316 C 378.204 290.520, 377.380 291.903, 367.568 304.150 C 358.203 315.838, 350.389 326.825, 344.246 336.939 C 341.122 342.084, 339.078 336.503, 333.018 306.273 C 326.374 273.134, 323.474 264.828, 312.162 246.541 C 278.352 191.883, 193.880 181.112, 147.544 225.551 C 144.268 228.693, 141.433 230.799, 141.244 230.231 C 133.632 207.396, 101.682 188.781, 80.071 194.591" stroke="none" fill="#fff" fill-rule="evenodd"/>
</svg>