<svg xmlns="http://www.w3.org/2000/svg" width="750" height="750" viewBox="0 0 750 750" version="1.1">
	<path d="M 409.558 122.439 C 403.654 124.622, 400.795 127.113, 397.727 132.752 L 394.954 137.849 387.334 134.328 C 381.100 131.448, 378.506 130.800, 373.074 130.766 C 362.754 130.701, 356.031 135.403, 357.308 141.791 C 357.832 144.411, 357.595 144.623, 352.891 145.740 C 344.040 147.843, 338.361 154.068, 340.924 158.857 C 341.839 160.568, 341.608 161.186, 339.488 162.698 C 330.877 168.840, 329.484 173.550, 334.851 178.377 C 336.050 179.456, 343.254 181.879, 351.800 184.077 C 370.198 188.811, 374.823 190.505, 392.901 199.130 C 400.821 202.908, 407.895 206, 408.620 206 C 410.109 206, 433.267 172.262, 439.006 161.730 C 441.260 157.595, 441.484 157.863, 434.237 156.007 C 429.602 154.821, 423.474 150.069, 422.461 146.876 C 422.096 145.726, 422.994 141.586, 424.573 137.142 C 427.555 128.748, 427.418 125.330, 424.015 123.228 C 420.743 121.206, 413.903 120.833, 409.558 122.439 M 406.395 128.747 C 403.039 131.542, 402.738 133.782, 405.479 135.578 C 407.544 136.931, 408.286 136.968, 410.604 135.830 C 414.343 133.996, 415.791 131.481, 414.394 129.250 C 412.902 126.867, 408.951 126.618, 406.395 128.747 M 366.242 135.034 C 362.710 136.453, 361.357 140.370, 363.349 143.409 C 368.003 150.513, 383 147.406, 383 139.338 C 383 135.104, 372.671 132.451, 366.242 135.034 M 385.096 146.385 C 384.177 147.492, 384.477 147.903, 386.591 148.434 C 389.822 149.244, 390.703 148.552, 389.020 146.524 C 387.455 144.638, 386.571 144.607, 385.096 146.385 M 350.500 150.685 C 346.905 152.609, 346.036 153.780, 346.015 156.724 C 345.980 161.829, 358.706 164.071, 362.826 159.686 C 365.204 157.154, 365.721 152.121, 363.800 150.200 C 362.093 148.493, 354.048 148.787, 350.500 150.685 M 395.438 157.792 C 390.265 160.677, 388.358 162.361, 386.140 166 C 383.049 171.073, 383.330 176.219, 386.918 180.234 C 389.563 183.195, 390.366 183.500, 395.505 183.500 C 400.476 183.500, 401.470 183.155, 403.587 180.694 C 404.979 179.075, 406 176.618, 406 174.886 C 406 172.600, 407.075 170.905, 410.500 167.788 C 415.668 163.084, 416.071 160.987, 412.365 158.073 C 409.007 155.431, 399.940 155.281, 395.438 157.792 M 368 161.500 C 366.937 162.781, 367.229 163, 370 163 C 372.771 163, 373.063 162.781, 372 161.500 C 371.315 160.675, 370.415 160, 370 160 C 369.585 160, 368.685 160.675, 368 161.500 M 342 166.664 C 339.327 167.728, 337 170.266, 337 172.116 C 337 174.896, 340.985 178, 344.554 178 C 350.728 178, 355.477 171.300, 351.589 168.074 C 349.905 166.677, 344.108 165.824, 342 166.664 M 235.478 173.199 C 233.290 174.958, 227.908 179.885, 223.517 184.148 L 215.535 191.898 195.017 191.807 C 178.043 191.731, 173.464 192.023, 168.500 193.500 C 154.845 197.562, 143.692 204.920, 136.826 214.398 C 133.431 219.086, 134.019 220.234, 141.500 223.519 C 157.058 230.349, 180.300 228.934, 198.063 220.075 C 201.673 218.274, 207.748 214.387, 211.563 211.436 C 224.036 201.789, 221.820 202.551, 231.699 204.511 C 244.318 207.015, 258 205.378, 258 201.364 C 258 199.797, 251.789 196.845, 243.500 194.473 C 240.200 193.528, 237.308 192.580, 237.073 192.367 C 236.838 192.154, 237.620 191.071, 238.812 189.960 C 240.004 188.850, 241.735 186.493, 242.660 184.721 C 244.836 180.550, 245.041 172.272, 243 170.980 C 240.662 169.500, 239.738 169.773, 235.478 173.199 M 322.115 178.934 L 322 187.368 326.805 191.999 C 330.034 195.111, 333.069 197.003, 336.055 197.766 C 338.500 198.389, 345.225 200.084, 351 201.531 C 363.577 204.683, 375.332 209.240, 391.500 217.232 C 402.501 222.670, 403.942 223.129, 408.809 222.745 C 412.480 222.455, 414.771 221.673, 416.234 220.211 L 418.348 218.096 416.061 218.694 C 413.942 219.248, 413.864 219.123, 415 217 C 416.129 214.890, 416.051 214.753, 414.021 215.284 C 412.010 215.810, 411.950 215.713, 413.337 214.180 C 414.744 212.625, 414.434 212.500, 409.179 212.500 C 404.270 212.500, 401.873 211.699, 391.500 206.597 C 371.767 196.889, 356.991 191.618, 339.160 187.925 C 330.303 186.091, 324.273 180.942, 322.927 174.063 C 322.418 171.459, 322.199 172.769, 322.115 178.934 M 356 177.500 C 354.931 178.788, 355.285 179, 358.500 179 C 361.715 179, 362.069 178.788, 361 177.500 C 360.315 176.675, 359.190 176, 358.500 176 C 357.810 176, 356.685 176.675, 356 177.500 M 175.510 198.016 C 175.856 198.575, 176.557 198.774, 177.069 198.457 C 178.456 197.600, 178.198 197, 176.441 197 C 175.584 197, 175.165 197.457, 175.510 198.016 M 187 198 C 187 198.550, 187.477 199, 188.059 199 C 188.641 199, 188.875 199.394, 188.577 199.875 C 188.280 200.356, 189.238 200.750, 190.708 200.750 C 193.116 200.750, 193.207 200.625, 191.636 199.476 C 190.324 198.516, 190.215 198.073, 191.197 197.680 C 191.914 197.393, 191.262 197.122, 189.750 197.079 C 188.238 197.036, 187 197.450, 187 198 M 201.417 198.357 C 200.671 200.300, 201.534 203, 202.900 203 C 203.931 203, 203.759 198.426, 202.689 197.355 C 202.336 197.002, 201.763 197.453, 201.417 198.357 M 207.813 197.683 C 208.534 197.972, 209.397 197.936, 209.729 197.604 C 210.061 197.272, 209.471 197.036, 208.417 197.079 C 207.252 197.127, 207.015 197.364, 207.813 197.683 M 170.813 198.683 C 171.534 198.972, 172.397 198.936, 172.729 198.604 C 173.061 198.272, 172.471 198.036, 171.417 198.079 C 170.252 198.127, 170.015 198.364, 170.813 198.683 M 167.500 200 C 167.840 200.550, 168.316 201, 168.559 201 C 168.802 201, 169 200.550, 169 200 C 169 199.450, 168.523 199, 167.941 199 C 167.359 199, 167.160 199.450, 167.500 200 M 177 202.969 C 177 203.501, 177.675 203.678, 178.500 203.362 C 179.325 203.045, 180 202.609, 180 202.393 C 180 202.177, 179.325 202, 178.500 202 C 177.675 202, 177 202.436, 177 202.969 M 171.250 203.662 C 170.563 203.940, 170.036 204.917, 170.079 205.833 C 170.128 206.873, 170.348 207.030, 170.662 206.250 C 170.940 205.563, 172.029 205, 173.083 205 C 174.137 205, 175 204.550, 175 204 C 175 202.953, 173.372 202.806, 171.250 203.662 M 156.500 206 C 154.728 206.762, 154.813 206.867, 157.250 206.930 C 158.762 206.968, 160 206.550, 160 206 C 160 204.826, 159.231 204.826, 156.500 206 M 147.477 211.026 C 146.407 212.208, 146.228 213.023, 146.942 213.464 C 147.532 213.829, 148.294 213.397, 148.636 212.506 C 148.978 211.614, 149.842 211.109, 150.556 211.383 C 151.270 211.657, 152.345 211.289, 152.946 210.566 C 154.699 208.453, 149.401 208.899, 147.477 211.026 M 198.500 211 C 198.160 211.550, 198.359 212, 198.941 212 C 199.523 212, 200 211.550, 200 211 C 200 210.450, 199.802 210, 199.559 210 C 199.316 210, 198.840 210.450, 198.500 211 M 259.500 211 C 259.160 211.550, 259.359 212, 259.941 212 C 260.523 212, 261 211.550, 261 211 C 261 210.450, 260.802 210, 260.559 210 C 260.316 210, 259.840 210.450, 259.500 211 M 225.465 212.890 C 225.833 214.051, 225.697 215, 225.161 215 C 224.625 215, 224.428 215.922, 224.723 217.048 C 225.065 218.355, 224.397 220.071, 222.879 221.791 C 221.089 223.819, 221.013 224.056, 222.572 222.749 C 224.423 221.197, 225.545 221.128, 233.072 222.097 C 243.390 223.427, 253.318 222.650, 259.415 220.036 C 261.937 218.955, 264 217.782, 264 217.429 C 264 217.075, 263.325 217.045, 262.500 217.362 C 260.376 218.177, 260.572 215.051, 262.750 213.369 C 264.107 212.321, 263.517 212.353, 260.124 213.509 C 255.063 215.234, 254 215.338, 254 214.111 C 254 213.622, 254.739 213.285, 255.642 213.361 C 256.546 213.438, 257.499 212.890, 257.761 212.145 C 258.137 211.074, 257.528 210.969, 254.868 211.645 C 250.545 212.743, 239.276 212.740, 231.148 211.640 C 224.967 210.803, 224.813 210.837, 225.465 212.890 M 162 215 C 162 215.550, 162.423 216, 162.941 216 C 163.459 216, 164.160 215.550, 164.500 215 C 164.840 214.450, 164.416 214, 163.559 214 C 162.702 214, 162 214.450, 162 215 M 192.500 215 C 192.840 215.550, 193.568 216, 194.118 216 C 194.668 216, 194.840 215.550, 194.500 215 C 194.160 214.450, 193.432 214, 192.882 214 C 192.332 214, 192.160 214.450, 192.500 215 M 512.333 215.575 C 511.199 218.529, 514.141 225.237, 518.715 230.126 C 521.222 232.807, 523.887 235, 524.637 235 C 527.349 235, 525.888 236.556, 520.560 239.340 C 517.571 240.902, 513.410 243.676, 511.313 245.505 C 505.971 250.165, 507.542 251.507, 518.303 251.478 C 526.445 251.456, 534.951 249.166, 540.687 245.453 C 542.668 244.170, 543.419 244.344, 548.687 247.306 C 565.415 256.714, 575.762 259.987, 591 260.692 C 604.598 261.321, 611.924 260.158, 620.963 255.935 C 630.936 251.275, 634.940 246.718, 631.750 243.658 C 627.741 239.812, 620.783 234.952, 615.980 232.644 C 600.169 225.044, 586.119 224.120, 561.507 229.062 L 546.258 232.124 537.879 226.708 C 526.627 219.435, 516.680 214, 514.623 214 C 513.696 214, 512.665 214.709, 512.333 215.575 M 145.500 216 C 145.840 216.550, 146.766 217, 147.559 217 C 148.352 217, 149 216.550, 149 216 C 149 215.450, 148.073 215, 146.941 215 C 145.809 215, 145.160 215.450, 145.500 216 M 258 217 C 258 218.867, 258.267 219.133, 259.200 218.200 C 260.133 217.267, 260.133 216.733, 259.200 215.800 C 258.267 214.867, 258 215.133, 258 217 M 158 218 C 156.718 218.828, 156.754 218.972, 158.250 218.985 C 159.213 218.993, 160 218.550, 160 218 C 160 216.780, 159.887 216.780, 158 218 M 501.823 222 C 501.492 226.608, 502.279 231.379, 504.173 236.250 C 505.431 239.483, 505.740 239.540, 508.901 237.109 L 511.303 235.263 508.615 231.739 C 507.136 229.801, 505.076 225.804, 504.036 222.858 L 502.146 217.500 501.823 222 M 124.022 224.785 C 123.995 231.171, 125.758 234.188, 131.472 237.536 C 141.146 243.206, 146.327 244.332, 163 244.388 C 179.566 244.443, 185.128 243.465, 197.498 238.321 C 204.267 235.505, 217.043 227.858, 219.083 225.400 C 219.823 224.508, 218.406 225.143, 215.933 226.812 C 209.852 230.917, 201.743 234.959, 200.783 234.366 C 200.352 234.100, 200 234.306, 200 234.824 C 200 235.343, 199.175 235.982, 198.167 236.246 C 197.101 236.525, 196.333 236.195, 196.333 235.458 C 196.333 234.743, 196.986 234.441, 197.831 234.765 C 198.885 235.170, 199.086 234.948, 198.510 234.015 C 197.983 233.164, 198.079 232.931, 198.776 233.362 C 199.820 234.007, 201.630 232.296, 200.791 231.457 C 200.565 231.232, 198.040 231.937, 195.180 233.024 C 189.253 235.276, 188 235.436, 188 233.941 C 188 233.359, 188.359 233.104, 188.798 233.375 C 189.764 233.972, 192.657 232.323, 191.926 231.592 C 191.642 231.308, 186.930 232.004, 181.455 233.139 C 169.986 235.516, 154.670 235.277, 144.671 232.565 C 138.736 230.955, 128.018 226.155, 127.978 225.088 C 127.966 224.764, 127.076 223.375, 126 222 L 124.044 219.500 124.022 224.785 M 204.250 229.031 C 203.012 229.529, 202 230.175, 202 230.468 C 202 231.438, 203.592 231.020, 205.559 229.532 C 207.771 227.858, 207.462 227.740, 204.250 229.031 M 193.465 230.056 C 192.578 231.491, 194.902 232.123, 196.979 231.011 C 198.091 230.416, 199 229.777, 199 229.590 C 199 228.867, 193.937 229.294, 193.465 230.056 M 304.774 233.589 C 302.973 235.563, 301.140 237.813, 300.700 238.589 C 300.260 239.365, 298.868 240, 297.607 240 C 294.460 240, 286.055 249.794, 288.105 251.073 C 290.083 252.307, 288.003 255.399, 284.898 255.841 C 281.965 256.258, 279.601 258.292, 276.823 262.786 C 275.110 265.558, 274.967 266.362, 276.066 267.041 C 277.165 267.720, 277.069 268.267, 275.555 269.939 C 274.529 271.073, 272.972 272.014, 272.095 272.032 C 269.836 272.077, 267.919 273.799, 263.998 279.310 C 261.306 283.093, 260.865 284.299, 261.933 284.959 C 262.680 285.420, 263.018 286.511, 262.684 287.382 C 262.239 288.541, 261.280 288.806, 259.108 288.372 C 256.295 287.809, 255.978 288.100, 253.020 293.961 C 251.303 297.362, 250.034 301.124, 250.199 302.322 C 250.453 304.159, 249.953 304.545, 247 304.786 C 241.506 305.235, 237.990 307.047, 236.694 310.100 C 236.037 311.645, 233.925 313.957, 232 315.237 C 229.211 317.092, 228.437 318.315, 228.191 321.261 C 227.953 324.104, 227.213 325.352, 224.983 326.669 C 220.785 329.149, 219.626 332.627, 221.077 338.390 C 222.237 342.998, 222.184 343.215, 218.664 348.301 C 216.684 351.160, 214.038 354.631, 212.782 356.014 C 203.581 366.152, 198 373.775, 198 376.206 C 198 378.227, 205.644 382.467, 211.151 383.501 C 215.068 384.235, 215.921 383.674, 220 377.685 C 221.375 375.666, 222.725 374.014, 223 374.015 C 223.275 374.016, 223.562 376.699, 223.637 379.978 C 223.809 387.411, 226.765 392.812, 235.213 401.130 C 244.654 410.426, 259.482 418.248, 276.784 423.061 C 281.028 424.241, 285.210 425.835, 286.079 426.603 C 288.291 428.560, 289.721 428.350, 291.889 425.750 C 301.556 414.151, 313.407 400.528, 317.641 396.146 C 322.728 390.881, 322.886 390.805, 327.157 391.511 C 329.546 391.905, 331.669 392.383, 331.874 392.572 C 332.080 392.761, 330.031 395.747, 327.320 399.208 C 316.647 412.834, 306.021 431.421, 307.856 433.256 C 309.633 435.033, 311.848 433.235, 314.582 427.797 C 318.015 420.971, 327.020 407.094, 332.783 399.750 C 336.917 394.482, 340.069 392.685, 341.399 394.837 C 342.314 396.318, 332.524 422.038, 326.469 434.062 C 322.875 441.199, 322.750 443, 325.851 443 C 326.949 443, 328.533 441.063, 330.177 437.712 L 332.770 432.424 367.635 432.323 L 402.500 432.222 405.981 439.111 C 408.746 444.582, 409.930 446, 411.731 446 C 412.979 446, 414 445.531, 414 444.958 C 414 444.385, 411.811 439.772, 409.137 434.708 C 406.462 429.643, 401.512 420.274, 398.137 413.887 C 394.761 407.499, 392 401.997, 392 401.660 C 392 401.322, 393.156 400.289, 394.568 399.363 C 397.102 397.703, 397.184 397.733, 400.596 401.590 C 402.499 403.741, 406.584 408.875, 409.676 413 C 412.767 417.125, 417.328 423.200, 419.811 426.500 C 426.243 435.049, 431.132 440, 433.144 440 C 436.508 440, 436.029 438.023, 431.516 433.285 C 429.009 430.653, 423.705 424.042, 419.729 418.594 C 415.753 413.146, 409.928 405.650, 406.783 401.937 C 401.079 395.201, 401.072 395.183, 403.283 393.737 C 408.402 390.391, 409.160 390.641, 417.026 398.255 C 421.142 402.240, 429.426 410.583, 435.436 416.796 C 443.435 425.066, 446.916 428.012, 448.431 427.796 C 449.610 427.627, 450.400 426.855, 450.268 426 C 450.104 424.942, 452.313 423.774, 457.768 422.035 C 479.260 415.185, 496.778 402.007, 500.083 390.204 C 501.082 386.636, 501.101 384.218, 500.176 378.818 C 499.529 375.048, 499 370.563, 499 368.852 L 499 365.742 508.250 366.448 C 513.337 366.837, 522.192 367.805, 527.927 368.600 C 533.662 369.396, 538.716 369.684, 539.159 369.241 C 540.719 367.681, 541.772 352.256, 541.917 328.850 C 542.080 302.594, 541.421 298.861, 536.066 295.698 C 532.473 293.576, 523.543 293.468, 519.646 295.501 C 516.914 296.926, 516.674 296.863, 514.013 294.014 C 509.081 288.734, 502.203 287.534, 495.987 290.867 L 492.505 292.735 488.249 288.988 C 483.236 284.576, 477.584 282.843, 472.248 284.082 C 466.894 285.325, 467 285.388, 467 281 C 467 277.157, 467.128 276.999, 470.250 276.985 C 472.038 276.976, 474.175 276.518, 475 275.966 C 476.290 275.104, 476.220 274.791, 474.500 273.732 C 473.400 273.054, 470.981 272.050, 469.124 271.500 C 465.909 270.548, 465.639 270.092, 463.497 262 C 462.259 257.325, 460.785 252.347, 460.220 250.938 C 458.747 247.265, 452.399 242.025, 449.215 241.855 C 439.310 241.324, 434.201 243.988, 430.407 251.658 C 428.303 255.911, 427.899 258.016, 428.105 263.658 L 428.354 270.500 420.427 271.733 C 404.329 274.238, 387.973 276, 380.837 275.999 C 368.215 275.996, 354.977 273.044, 344.903 267.986 C 340.778 265.914, 331.078 259.144, 328.225 256.344 C 327.524 255.656, 324.959 253.462, 322.526 251.468 L 318.102 247.842 321.051 243.771 C 322.673 241.532, 324 239.349, 324 238.920 C 324 238.491, 321.971 237.127, 319.490 235.888 C 317.010 234.649, 314.240 232.818, 313.335 231.818 C 310.870 229.094, 308.411 229.602, 304.774 233.589 M 581 230.526 C 580.175 230.688, 576.125 231.360, 572 232.021 C 563.438 233.392, 544.034 237.632, 543.394 238.272 C 542.615 239.052, 566.391 250.800, 573.131 252.966 C 576.778 254.138, 582.926 255.435, 586.795 255.848 L 593.828 256.599 594.190 252.800 C 594.600 248.506, 594.909 248.609, 586.190 250.127 C 573.766 252.291, 563.917 247.867, 566.846 241.439 C 568.945 236.831, 577.499 235.677, 588.432 238.524 C 591.651 239.363, 594.483 239.850, 594.726 239.607 C 594.969 239.364, 595.406 237.394, 595.696 235.230 C 596.204 231.446, 596.100 231.270, 592.987 230.647 C 589.800 230.010, 583.937 229.950, 581 230.526 M 601.666 244.180 C 601.314 250.329, 601.269 255.602, 601.565 255.898 C 603.452 257.785, 626 248.462, 626 245.795 C 626 243.571, 607.555 233, 603.675 233 C 602.636 233, 602.151 235.695, 601.666 244.180 M 192 236.500 C 192 237.325, 192.450 238, 193 238 C 193.550 238, 194 237.325, 194 236.500 C 194 235.675, 193.550 235, 193 235 C 192.450 235, 192 235.675, 192 236.500 M 307.829 236.726 C 304.718 240.346, 304.870 240.849, 309.724 242.996 L 314.495 245.107 316.248 242.943 C 318.650 239.975, 318.528 239.639, 314.250 237.461 C 312.188 236.411, 310.242 235.417, 309.927 235.252 C 309.612 235.087, 308.668 235.750, 307.829 236.726 M 608.571 242.571 C 606.554 244.589, 606.594 245.322, 608.829 247.345 C 611.384 249.657, 614.600 249.407, 616.474 246.750 C 617.956 244.649, 617.920 244.384, 615.920 242.750 C 613.265 240.580, 610.627 240.516, 608.571 242.571 M 296.051 245.446 C 294.808 246.769, 294.073 248.309, 294.418 248.868 C 294.763 249.426, 298.196 250.194, 302.045 250.573 C 305.895 250.952, 309.268 251.625, 309.542 252.068 C 309.816 252.511, 308.812 255.377, 307.312 258.437 C 304.147 264.890, 304.032 264.916, 292.683 261.854 L 284.729 259.708 282.926 262.098 C 280.794 264.925, 280.893 264.997, 290.250 267.452 C 293.962 268.425, 297 269.759, 297 270.415 C 297 272.290, 291.171 281, 289.917 281 C 289.297 281, 284.975 279.837, 280.313 278.415 C 275.651 276.993, 271.728 275.980, 271.595 276.165 C 271.461 276.349, 270.394 277.890, 269.223 279.589 L 267.093 282.678 272.123 283.839 C 274.889 284.478, 278.378 285, 279.876 285 C 283.687 285, 285.088 286.623, 283.625 289.343 C 278.953 298.032, 277.586 298.441, 266.167 294.557 L 258.983 292.113 256.922 296.154 C 255.788 298.376, 255.013 300.347, 255.200 300.533 C 255.848 301.181, 289.560 305.842, 301.500 306.935 C 308.100 307.539, 316.650 308.465, 320.500 308.993 C 337.087 311.268, 350.007 312.196, 357 311.615 C 366.158 310.854, 385.509 307.633, 393.046 305.616 C 403.489 302.821, 418.260 296.065, 430.500 288.487 C 439.494 282.918, 449.363 278.226, 457 275.888 L 464.500 273.592 460.500 272.854 C 451.604 271.212, 439.602 272.109, 412 276.480 C 398.623 278.599, 375.065 279.458, 366 278.159 C 349.729 275.826, 339.152 270.709, 323.500 257.597 C 314.639 250.174, 305.999 244.840, 300.906 243.647 C 298.957 243.191, 297.748 243.639, 296.051 245.446 M 439.756 246.569 C 435.295 248.989, 432.860 254.971, 433.205 262.665 L 433.500 269.235 446.470 269.064 C 453.603 268.970, 459.638 268.695, 459.881 268.452 C 460.539 267.795, 457.889 257.110, 455.876 252.307 C 453.101 245.682, 446.030 243.165, 439.756 246.569 M 498.015 255.615 C 497.996 263.260, 500.020 266.167, 506.712 268.106 C 514.261 270.293, 524.365 269.712, 534.151 266.527 L 542.678 263.752 551.089 267.735 C 568.892 276.164, 578.591 278.508, 595.500 278.466 C 608.670 278.433, 616.775 276.996, 625 273.234 C 630.573 270.685, 636.871 266.115, 638.121 263.712 C 639.227 261.586, 639.170 261.594, 636.636 263.924 C 632.913 267.348, 633.355 265.295, 637.250 261.069 C 639.038 259.129, 639.600 258.268, 638.500 259.155 C 635.862 261.281, 625.591 267.001, 624.419 266.996 C 623.914 266.994, 625.075 266.038, 627 264.870 C 628.925 263.703, 630.775 262.317, 631.112 261.789 C 631.448 261.261, 632.112 260.901, 632.587 260.990 C 633.062 261.078, 633.644 260.569, 633.881 259.858 C 634.188 258.936, 633.622 259.018, 631.906 260.142 C 627.415 263.084, 613.735 267.021, 604.378 268.064 C 594.571 269.158, 583.561 268.231, 573.500 265.466 C 570.750 264.710, 567.375 263.782, 566 263.404 C 564.625 263.026, 558.844 260.541, 553.154 257.882 C 543.659 253.446, 542.589 253.157, 540.154 254.368 C 534.563 257.150, 527.159 258.500, 517.500 258.500 C 506.488 258.500, 501.716 256.785, 499.267 251.945 C 498.151 249.740, 498.028 250.101, 498.015 255.615 M 293.118 254.282 C 291.108 256.292, 291.934 257.664, 295.866 258.842 C 301.156 260.427, 301.517 260.356, 302.833 257.466 C 304.125 254.632, 303.968 254.512, 297.868 253.667 C 295.835 253.386, 293.744 253.656, 293.118 254.282 M 540.500 257 C 540.160 257.550, 540.332 258, 540.882 258 C 541.432 258, 542.160 257.550, 542.500 257 C 542.840 256.450, 542.668 256, 542.118 256 C 541.568 256, 540.840 256.450, 540.500 257 M 418.252 261.500 C 418.263 263.700, 418.468 264.482, 418.707 263.238 C 418.946 261.994, 418.937 260.194, 418.687 259.238 C 418.437 258.282, 418.241 259.300, 418.252 261.500 M 620.507 267.989 C 620.157 268.555, 620.558 268.723, 621.448 268.382 C 623.180 267.717, 623.497 267, 622.059 267 C 621.541 267, 620.843 267.445, 620.507 267.989 M 280.477 271.026 C 278.244 273.493, 279.251 274.538, 284.910 275.627 C 287.567 276.138, 288.616 275.878, 289.660 274.450 C 291.559 271.853, 291.360 271.323, 288.250 270.695 C 286.738 270.390, 284.797 269.868, 283.937 269.535 C 283.019 269.179, 281.591 269.794, 280.477 271.026 M 455.212 280.129 C 453.404 280.650, 450.479 281.879, 448.712 282.860 C 446.945 283.841, 443.096 285.943, 440.158 287.531 L 434.815 290.418 435.511 305.959 C 435.893 314.507, 436.498 321.816, 436.855 322.201 C 437.211 322.587, 441.036 320.474, 445.356 317.505 C 453.842 311.673, 463.022 306.942, 469.698 304.961 C 477.278 302.711, 483 306.814, 483 314.500 C 483 318.900, 481.615 321.481, 476.166 327.232 C 474.221 329.284, 472.826 331.117, 473.065 331.304 C 473.304 331.492, 475.633 332.435, 478.239 333.401 C 488.678 337.269, 495.686 348.362, 492.942 356.676 C 492.314 358.578, 492.028 360.362, 492.307 360.640 C 492.585 360.919, 497.556 361.586, 503.352 362.123 C 509.148 362.660, 518.651 363.677, 524.468 364.384 C 534.878 365.648, 535.053 365.636, 535.557 363.584 C 536.533 359.609, 537.628 333.426, 537.427 318.894 C 537.222 304.178, 536.539 300.933, 533.087 298.282 C 529.546 295.564, 521.238 297.532, 518.700 301.690 C 517.229 304.101, 514.522 303.036, 512.499 299.249 C 511.393 297.178, 508.885 294.638, 506.893 293.570 C 503.686 291.852, 502.926 291.788, 500.021 292.991 C 497.927 293.859, 496.255 295.540, 495.364 297.672 C 493.605 301.882, 491.536 301.909, 489.512 297.750 C 484.506 287.464, 474.939 283.907, 468.797 290.049 C 465.670 293.176, 462.605 293.621, 462.365 290.984 C 462.291 290.168, 462.179 287.137, 462.115 284.250 C 461.989 278.489, 461.633 278.277, 455.212 280.129 M 267.725 287.609 C 266.009 289.324, 267.281 290.999, 271.076 292.021 C 274.133 292.844, 275.509 292.823, 276.576 291.937 C 278.925 289.987, 278.258 288.001, 275.250 287.986 C 273.738 287.979, 271.589 287.728, 270.475 287.428 C 269.361 287.129, 268.123 287.210, 267.725 287.609 M 418.093 299.540 C 405.500 306.050, 395.938 309.099, 377.587 312.455 C 361.284 315.437, 343.619 315.833, 328.243 313.560 C 322.885 312.767, 312.875 311.637, 306 311.046 C 295.049 310.106, 287.230 309.178, 275.287 307.401 C 272.387 306.970, 271.738 307.387, 268.611 311.697 C 266.457 314.665, 265.480 316.873, 266.027 317.533 C 266.512 318.117, 267.287 321.049, 267.750 324.047 C 268.603 329.572, 267.976 335.090, 264.631 351.500 C 261.875 365.021, 262.791 371.865, 268.243 378.478 C 271.134 381.986, 278.468 386.368, 284.491 388.186 C 289.262 389.627, 303.175 391.997, 306.867 391.999 C 309.894 392, 310.164 391.773, 309.551 389.750 C 304.356 372.629, 303.819 365.524, 305.473 335.812 C 306.355 319.966, 307.071 318.802, 312.957 323.643 C 313.806 324.341, 320.076 329.228, 326.890 334.503 L 339.281 344.095 352.890 343.520 C 360.376 343.204, 371.505 342.692, 377.622 342.382 L 388.745 341.819 395.622 331.697 C 399.405 326.130, 403.784 320.096, 405.354 318.288 C 408.297 314.897, 412.209 313.939, 413.675 316.250 C 415.310 318.829, 425.293 345.791, 427.281 353 C 429.658 361.617, 430.262 383.763, 428.297 390.250 C 427.207 393.849, 427.257 394, 429.534 394 C 431.818 394, 433.598 393.412, 440.853 390.264 C 445.028 388.452, 451.315 382.844, 453.948 378.584 C 455.044 376.811, 456.238 372.826, 456.602 369.729 L 457.264 364.097 446.731 364.694 C 435.279 365.342, 432.064 364.832, 433.872 362.655 C 434.644 361.724, 434.688 358.845, 434.022 352.917 C 432.619 340.447, 432.099 332.478, 431.365 312.250 C 430.918 299.952, 430.343 294.026, 429.601 294.080 C 428.996 294.124, 423.817 296.581, 418.093 299.540 M 254.327 306.066 C 253.490 306.908, 253.448 307.890, 254.180 309.496 C 254.875 311.021, 254.879 312.358, 254.192 313.641 C 253.266 315.371, 253.513 315.504, 257.021 315.169 C 260.213 314.865, 261.313 314.126, 263.507 310.810 C 264.961 308.613, 266.004 306.684, 265.825 306.521 C 264.612 305.420, 255.336 305.053, 254.327 306.066 M 460.568 313.396 C 450.295 318.711, 445.192 322.049, 439.717 327.033 L 436.935 329.567 438.217 345.033 L 439.500 360.500 462.895 360.325 C 481.076 360.189, 486.477 359.855, 487.129 358.825 C 488.631 356.457, 488.104 347.597, 486.306 344.973 C 482.768 339.809, 475.162 335.071, 470.332 335.022 C 467.265 334.991, 465 333.980, 465 332.643 C 465.001 332.014, 467.253 329.560, 470.006 327.190 C 477.421 320.804, 480.324 313.505, 477.029 309.535 C 474.892 306.960, 471.444 307.769, 460.568 313.396 M 249.250 318.662 C 248.563 318.940, 248 320.314, 248 321.715 C 248 323.309, 246.750 325.443, 244.664 327.410 C 242.829 329.140, 241.018 331.794, 240.638 333.307 C 239.998 335.858, 237.358 337.674, 231.829 339.365 C 230.910 339.646, 228.248 342.717, 225.913 346.188 C 222.464 351.315, 213.326 362.821, 210.972 365 C 209.592 366.278, 203 374.770, 203 375.270 C 203 375.581, 205.051 376.618, 207.557 377.575 C 211.466 379.068, 212.300 379.115, 213.426 377.908 C 215.829 375.329, 243.526 340.586, 247.770 334.827 C 251.607 329.618, 251.861 328.900, 250.871 326.059 C 250.277 324.357, 250.072 321.848, 250.415 320.482 C 250.758 319.117, 250.917 318.036, 250.769 318.079 C 250.621 318.122, 249.938 318.385, 249.250 318.662 M 102.082 328.928 C 100.988 329.621, 100.558 333.487, 100.202 345.850 L 99.740 361.874 88.693 367.993 C 66.246 380.424, 57.781 387.548, 52.113 398.776 C 47.974 406.976, 46.699 415.650, 48.433 423.804 C 49.171 427.271, 50.091 430.421, 50.478 430.804 C 52.325 432.633, 65.825 431.026, 74.269 427.970 C 92.929 421.218, 107.059 408.236, 112.616 392.741 C 114.383 387.813, 116.997 373.901, 116.999 369.414 C 117 366.497, 117.326 366.237, 122.955 364.672 C 132.098 362.130, 140.067 357.970, 144.750 353.295 C 149.061 348.992, 150.014 346.593, 147.750 345.747 C 145.907 345.058, 132.257 346.859, 126.568 348.541 C 120.008 350.482, 120.181 350.538, 119.457 346.250 C 118.314 339.481, 115.922 335.485, 110.173 330.744 C 106.719 327.894, 104.501 327.397, 102.082 328.928 M 404.816 339.374 L 399.131 343.615 406.084 344.808 C 415.010 346.338, 416 346.310, 416 344.520 C 416 341.897, 412.819 334.998, 411.641 335.066 C 411.014 335.103, 407.942 337.042, 404.816 339.374 M 88.642 341.750 C 87.827 346.678, 87.821 359.512, 88.634 358.699 C 89.282 358.052, 90.219 338, 89.601 338 C 89.415 338, 88.983 339.688, 88.642 341.750 M 209 341.714 C 209 344.982, 209.177 345.252, 210.470 343.958 C 211.348 343.081, 211.704 341.584, 211.354 340.244 C 210.433 336.722, 209 337.617, 209 341.714 M 313 342.292 C 313 343.628, 312.709 346.841, 312.354 349.433 L 311.708 354.145 315.436 353.446 C 317.486 353.061, 320.735 351.982, 322.655 351.048 L 326.147 349.350 322.824 346.869 C 320.996 345.505, 318.038 343.370, 316.250 342.126 L 313 339.864 313 342.292 M 631 357.550 C 631 363.404, 628.970 367.237, 624.363 370.085 C 621.079 372.115, 618.957 372.429, 604.852 372.976 C 591.029 373.512, 588.677 373.850, 586.263 375.644 C 582.119 378.725, 581.993 383.783, 585.947 388.287 C 590.785 393.797, 598.813 397.053, 609.224 397.727 C 614.088 398.043, 618.270 398.628, 618.518 399.029 C 618.765 399.429, 618.203 401.274, 617.267 403.129 C 614.623 408.371, 614.432 418.765, 616.908 422.710 C 621.578 430.154, 633.270 434.003, 641.174 430.700 L 644.834 429.171 648.032 432.685 C 654.518 439.813, 664.834 442.574, 673.480 439.495 C 677.757 437.972, 681.051 438.377, 684.956 440.908 C 686.630 441.993, 689.729 442.500, 694.687 442.500 C 701.529 442.500, 702.151 442.311, 705.144 439.317 L 708.327 436.135 707.913 426.317 C 707.010 404.857, 707.571 397.191, 711.009 384 C 715.764 365.757, 715.794 365.320, 712.348 364.638 C 709.739 364.122, 693.451 361.534, 676.754 358.985 C 673.044 358.418, 667.194 357.525, 663.754 356.999 C 642.487 353.750, 636.929 353, 634.131 353 C 631.082 353, 631 353.119, 631 357.550 M 620.232 358 C 620.232 359.925, 620.438 360.712, 620.689 359.750 C 620.941 358.788, 620.941 357.212, 620.689 356.250 C 620.438 355.288, 620.232 356.075, 620.232 358 M 90.789 373.162 C 80.045 379.292, 70.899 385.295, 67.539 388.422 C 62.335 393.265, 60.699 396, 63.005 396 C 63.558 396, 66.280 397.095, 69.055 398.434 L 74.100 400.868 75.071 398.184 C 77.588 391.223, 82.487 384.901, 87.175 382.563 C 90.760 380.774, 96.244 380.525, 99.043 382.023 C 106.268 385.890, 101.386 394.785, 87.804 402.499 L 83.681 404.841 88.840 407.330 L 93.999 409.819 97.624 405.659 C 102.700 399.834, 106.912 390.433, 108.542 381.287 C 110.059 372.780, 110.438 362.983, 109.250 363.029 C 108.838 363.044, 100.530 367.604, 90.789 373.162 M 388.565 363.894 C 388.190 364.502, 388.286 365, 388.780 365 C 390.358 365, 391.766 369.399, 390.921 371.685 C 390.053 374.031, 387.132 376, 384.520 376 C 381.926 376, 377.721 371.176, 378.319 368.886 C 378.607 367.786, 378.541 367.036, 378.171 367.219 C 371.871 370.346, 370.014 371.543, 370.271 372.314 C 370.880 374.140, 379.301 378.099, 385.839 379.634 C 390.050 380.622, 394.578 380.986, 398.151 380.624 C 404.939 379.936, 417 376.133, 417 374.680 C 417 373.092, 410.451 367.446, 406.247 365.411 C 401.850 363.282, 389.594 362.230, 388.565 363.894 M 142.079 366.583 C 142.127 367.748, 142.364 367.985, 142.683 367.188 C 142.972 366.466, 142.936 365.603, 142.604 365.271 C 142.272 364.939, 142.036 365.529, 142.079 366.583 M 334 365.682 C 330.071 367.053, 324.233 370.431, 321.769 372.759 C 319.240 375.147, 319.167 375.428, 320.782 376.560 C 324.391 379.088, 333.519 381, 341.932 380.990 C 351.097 380.980, 358.494 378.542, 362.275 374.285 C 364.463 371.822, 363.761 371.111, 355.550 367.480 C 349.666 364.877, 347.710 364.685, 350.476 366.980 C 353.996 369.901, 350.889 376.033, 345.921 375.968 C 340.285 375.894, 337.825 369.637, 342.223 366.557 C 344.372 365.051, 344.298 365.003, 339.973 365.079 C 337.513 365.122, 334.825 365.394, 334 365.682 M 145.667 367.667 C 145.300 368.033, 145 369.383, 145 370.667 C 145 371.950, 144.498 373, 143.883 373 C 143.259 373, 142.997 372.118, 143.290 371 C 143.904 368.652, 143.374 368.571, 140 370.500 C 136.802 372.328, 136 372.340, 136 370.561 C 136 369.322, 135.372 369.335, 131.500 370.655 C 128.912 371.536, 127 372.811, 127 373.653 C 127 374.459, 127.387 374.879, 127.861 374.586 C 128.334 374.293, 128.392 375.854, 127.990 378.053 C 127.305 381.803, 127.391 382.013, 129.379 381.425 C 136.782 379.234, 153.790 369.138, 150.250 369.036 C 149.563 369.016, 149 369.450, 149 370 C 149 370.550, 148.295 371, 147.433 371 C 146.320 371, 146.050 370.419, 146.500 369 C 147.149 366.955, 146.853 366.481, 145.667 367.667 M 137.079 369.583 C 137.127 370.748, 137.364 370.985, 137.683 370.188 C 137.972 369.466, 137.936 368.603, 137.604 368.271 C 137.272 367.939, 137.036 368.529, 137.079 369.583 M 132.658 372.449 C 132.286 373.418, 132.582 373.714, 133.551 373.342 C 134.348 373.036, 135 372.384, 135 371.893 C 135 370.455, 133.265 370.867, 132.658 372.449 M 140.531 372.293 C 140.103 373.279, 140.034 374.367, 140.376 374.710 C 141.392 375.725, 142.211 374.299, 141.743 372.328 C 141.329 370.581, 141.275 370.580, 140.531 372.293 M 138.079 374.583 C 138.127 375.748, 138.364 375.985, 138.683 375.188 C 138.972 374.466, 138.936 373.603, 138.604 373.271 C 138.272 372.939, 138.036 373.529, 138.079 374.583 M 647.606 373.868 C 646.014 374.216, 643.825 375.688, 642.742 377.141 C 641.041 379.421, 640.929 380.253, 641.915 383.244 C 644.368 390.674, 654.566 395.949, 668.022 396.746 C 675.368 397.182, 677.273 396.938, 681.821 394.982 C 686.933 392.783, 690 389.266, 690 385.605 C 690 380.115, 679.061 375.348, 670.800 377.239 C 666.844 378.144, 665.284 377.939, 658.623 375.638 C 654.420 374.187, 650.874 373.053, 650.741 373.118 C 650.609 373.183, 649.198 373.521, 647.606 373.868 M 510.627 379.449 C 510.981 382.227, 511.451 384.703, 511.671 384.952 C 512.157 385.502, 522.665 386.754, 533.500 387.554 C 540.462 388.067, 541.919 387.878, 544.729 386.099 C 546.868 384.745, 547.759 383.535, 547.367 382.515 C 547.042 381.668, 547.389 380.232, 548.138 379.324 C 549.382 377.816, 549.283 377.788, 547 379 C 544.698 380.222, 544.611 380.193, 545.893 378.640 C 547.868 376.245, 546.692 375.621, 542.825 377.012 C 540.129 377.982, 536.710 377.848, 524.742 376.303 L 509.984 374.397 510.627 379.449 M 133.638 376.500 C 133.322 377.325, 133.499 378, 134.031 378 C 134.564 378, 135 377.325, 135 376.500 C 135 375.675, 134.823 375, 134.607 375 C 134.391 375, 133.955 375.675, 133.638 376.500 M 187.063 383.527 C 187.022 387.500, 187.541 390.327, 188.586 391.819 C 191.964 396.641, 203.827 402, 211.125 402 C 214.579 402, 215.194 402.454, 218.513 407.454 C 227.994 421.738, 249.208 435.149, 272.500 441.584 C 275.800 442.496, 278.950 443.594, 279.500 444.026 C 280.050 444.457, 286.350 446.844, 293.500 449.331 C 312.463 455.925, 313.325 456.286, 315.952 458.738 C 320.825 463.284, 329.973 462.880, 335.294 457.882 C 337.683 455.639, 337.927 455.152, 336.250 455.971 C 333.754 457.191, 333.508 456.787, 335.023 453.957 C 335.885 452.347, 335.766 452.150, 334.273 452.710 C 332.705 453.298, 332.662 453.176, 333.902 451.651 C 335.203 450.053, 334.985 449.978, 330.902 450.624 C 328.481 451.007, 326.050 451.319, 325.500 451.318 C 321 451.305, 318.950 450.683, 316.777 448.669 C 315.394 447.388, 311.841 445.398, 308.881 444.247 C 295.595 439.083, 286.965 436, 285.782 435.994 C 285.077 435.990, 283.302 435.363, 281.838 434.599 C 280.374 433.835, 274.749 431.830, 269.338 430.143 C 258.479 426.757, 245.417 420.747, 238.191 415.810 C 231.327 411.121, 222.486 402.432, 218.913 396.864 C 216.191 392.623, 215.359 392, 212.417 392 C 203.948 392, 190.161 385.009, 187.978 379.607 C 187.364 378.087, 187.109 379.181, 187.063 383.527 M 572.103 387.934 C 571.984 395.335, 574.274 401.131, 578.966 405.312 C 583.566 409.411, 592.032 413.814, 597.617 415.011 L 602.719 416.105 603.294 422.964 C 604.667 439.348, 616.272 449.900, 633.937 450.828 C 641.279 451.213, 643.047 451.687, 647.442 454.448 C 650.224 456.195, 654.352 458.159, 656.616 458.812 C 661.541 460.233, 671.895 460.371, 675.341 459.060 C 677.163 458.368, 679.154 458.631, 682.917 460.060 C 689.693 462.635, 700.318 462.660, 706.167 460.115 C 711.814 457.658, 715.949 453.179, 717.016 448.362 C 717.839 444.648, 717.806 444.577, 716.172 446.500 C 715.237 447.600, 713.579 449.161, 712.486 449.970 C 710.579 451.381, 710.581 451.341, 712.547 448.970 C 717.081 443.502, 717.505 442.517, 714.129 445.298 C 708.679 449.787, 704.273 451.178, 695.500 451.180 C 689.730 451.182, 686.225 450.631, 682.927 449.203 C 679.819 447.857, 677.830 447.516, 676.720 448.137 C 674.037 449.638, 659.916 449.271, 655.168 447.577 C 652.785 446.726, 648.825 444.674, 646.368 443.015 C 642.468 440.383, 641.021 440, 634.987 440 C 625.880 440, 618.394 437.177, 612.619 431.564 C 606.062 425.191, 604.538 421.755, 604.560 413.385 L 604.579 406.270 599.540 405.015 C 586.984 401.887, 575.290 393.079, 573.182 385.162 C 572.258 381.693, 572.201 381.838, 572.103 387.934 M 596.655 384.829 C 595.745 385.835, 595 387.088, 595 387.613 C 595 389.439, 601.226 392.233, 605.175 392.178 C 612.315 392.080, 614.191 388.307, 608.750 384.989 C 604.619 382.470, 598.859 382.394, 596.655 384.829 M 361.258 384.820 C 360.369 385.384, 361.107 386.675, 363.843 389.346 L 367.670 393.084 370.335 389.238 C 371.801 387.123, 373 385.079, 373 384.696 C 373 383.737, 362.793 383.845, 361.258 384.820 M 634.494 401.006 C 632.406 403.314, 632.496 403.477, 636.376 404.410 C 638.776 404.987, 639.149 404.831, 638.626 403.469 C 638.282 402.571, 638 401.198, 638 400.418 C 638 398.424, 636.622 398.655, 634.494 401.006 M 57.065 403.750 C 55.362 407.478, 54.592 415.797, 55.432 421.396 C 56.056 425.560, 56.380 425.999, 58.811 425.988 C 65.010 425.961, 84.330 418.717, 87.098 415.382 C 88.224 414.025, 88.474 414.168, 72.500 406.971 C 66.029 404.056, 58.905 401, 58.578 401 C 58.436 401, 57.756 402.238, 57.065 403.750 M 356 404.453 C 356 406.330, 358.679 409.926, 361.535 411.884 C 367.689 416.101, 377.482 414.692, 382.971 408.801 C 387.080 404.390, 386.068 404, 370.500 404 C 362.525 404, 356 404.204, 356 404.453 M 624.500 409.195 C 621.754 410.752, 621.033 412.025, 621.015 415.346 C 620.983 421.329, 626.979 427, 633.336 427 C 636.818 427, 641.076 425.265, 642.637 423.211 C 644.213 421.136, 644.375 416.570, 642.967 413.938 C 640.497 409.324, 629.331 406.456, 624.500 409.195 M 664.554 410.940 C 662.413 413.306, 662.566 413.670, 665.907 414.152 C 668.768 414.566, 669.527 413.103, 667.728 410.643 C 666.496 408.958, 666.334 408.973, 664.554 410.940 M 497.293 414.856 C 492.511 419.121, 484 424.709, 484 423.583 C 484 423.321, 486.376 421.530, 489.280 419.603 C 495.112 415.731, 500.004 411, 498.174 411 C 497.528 411, 497 411.374, 497 411.830 C 497 413.802, 476.956 424.597, 466.750 428.122 C 460.770 430.188, 460 430.747, 460 433.027 C 460 435.513, 458.415 438, 456.831 438 C 456.409 438, 456.352 437.247, 456.705 436.326 C 457.218 434.989, 456.961 434.808, 455.424 435.425 C 454.366 435.850, 451.893 436.426, 449.929 436.706 C 446.379 437.212, 446.359 437.243, 446.429 442.107 C 446.497 446.800, 446.616 446.999, 449.346 446.999 C 453.254 447, 458.134 443.996, 457.494 441.982 C 457.217 441.109, 457.653 439.519, 458.464 438.448 C 459.631 436.904, 459.943 436.822, 459.968 438.050 C 459.986 438.902, 459.460 440.140, 458.800 440.800 C 457.373 442.227, 458.339 442.365, 460.764 441.080 C 461.719 440.573, 465.650 438.904, 469.500 437.369 C 484.511 431.386, 494.874 424.522, 501.763 416 C 503.764 413.525, 504.410 412.357, 503.200 413.405 C 500.939 415.363, 500.062 414.338, 502.183 412.217 C 502.834 411.566, 503.172 410.849, 502.933 410.623 C 502.695 410.397, 500.157 412.302, 497.293 414.856 M 62 413 C 59.567 415.433, 59.510 416.367, 61.664 418.521 C 64.576 421.433, 72 418.842, 72 414.913 C 72 411.021, 65.267 409.733, 62 413 M 35.576 418.293 C 34.979 423.248, 35.189 427.436, 36.352 433.769 C 38.915 447.724, 42.277 450.568, 56 450.389 C 66.624 450.250, 79.551 446.576, 89.657 440.824 C 97.236 436.509, 105.872 430.064, 105.952 428.661 C 105.993 427.940, 104.232 429.172, 98.292 434.015 C 94.530 437.083, 95.409 433.171, 99.250 429.754 C 102.791 426.604, 101.279 427.049, 96.500 430.565 C 93.187 433.002, 85.529 437.018, 84.290 436.968 C 83.855 436.951, 84.367 436.280, 85.427 435.479 C 88.704 433, 86.710 432.990, 79.925 435.453 C 76.350 436.751, 71.866 438.095, 69.962 438.438 C 59.247 440.374, 54.961 440.695, 50.099 439.927 C 40.965 438.483, 38.235 434.216, 37.045 419.523 L 36.395 411.500 35.576 418.293 M 693.715 415.762 C 691.387 418.334, 691.525 418.703, 695 419.213 C 698.265 419.692, 698.828 418.514, 696.715 415.625 C 695.495 413.956, 695.343 413.963, 693.715 415.762 M 498 417.059 C 498 417.641, 498.450 417.840, 499 417.500 C 499.550 417.160, 500 416.684, 500 416.441 C 500 416.198, 499.550 416, 499 416 C 498.450 416, 498 416.477, 498 417.059 M 652.413 421.321 C 650.066 423.340, 649.839 424.017, 650.671 426.513 C 651.197 428.091, 653.309 430.744, 655.364 432.407 C 658.562 434.995, 659.953 435.437, 665.006 435.466 C 671.907 435.506, 673.917 433.792, 673.968 427.821 C 674.021 421.753, 669.815 419, 660.491 419 C 656.305 419, 654.513 419.515, 652.413 421.321 M 684.655 425.829 C 682.533 428.174, 682.533 432.390, 684.655 434.512 C 688.409 438.266, 696.410 439.184, 699.802 436.250 C 703.374 433.161, 703.383 430.612, 699.833 427.141 C 697.072 424.441, 695.896 424, 691.465 424 C 687.741 424, 685.851 424.508, 684.655 425.829 M 94.638 428.500 C 94.322 429.325, 94.499 430, 95.031 430 C 95.564 430, 96 429.325, 96 428.500 C 96 427.675, 95.823 427, 95.607 427 C 95.391 427, 94.955 427.675, 94.638 428.500 M 88.079 432.583 C 88.127 433.748, 88.364 433.985, 88.683 433.188 C 88.972 432.466, 88.936 431.603, 88.604 431.271 C 88.272 430.939, 88.036 431.529, 88.079 432.583 M 92.583 434.866 C 92.152 435.563, 92.070 436.403, 92.400 436.733 C 93.295 437.628, 94.271 436.312, 93.787 434.862 C 93.449 433.846, 93.213 433.846, 92.583 434.866 M 89 437.500 C 89 438.325, 89.450 439, 90 439 C 90.550 439, 91 438.325, 91 437.500 C 91 436.675, 90.550 436, 90 436 C 89.450 436, 89 436.675, 89 437.500 M 341.036 440.833 C 340.466 441.017, 340 443.379, 340 446.083 L 340 451 367.430 451 L 394.860 451 397.159 455.604 C 400.680 462.654, 404.054 465, 410.672 465 C 416.270 465, 421.433 462.919, 422.457 460.251 C 422.778 459.415, 422.538 459.167, 421.831 459.604 C 421.052 460.086, 420.865 459.623, 421.249 458.156 C 421.559 456.970, 421.419 456, 420.938 456 C 420.457 456, 420.342 455.273, 420.683 454.385 C 421.196 453.046, 420.891 452.918, 418.901 453.635 C 417.581 454.111, 413.919 454.472, 410.764 454.438 C 404.082 454.366, 401.265 452.360, 397.507 445 L 395.210 440.500 368.641 440.500 C 354.028 440.500, 341.606 440.650, 341.036 440.833 M 190.664 448.112 C 187.910 449.565, 186.253 451.435, 184.792 454.737 C 182.950 458.901, 182.875 459.866, 184.003 464.919 C 184.956 469.190, 186.414 471.848, 190.219 476.245 C 193.427 479.954, 194.713 482.110, 193.845 482.329 C 186.828 484.100, 175.093 488.572, 171.874 490.702 C 169.679 492.155, 166.785 495.218, 165.442 497.509 C 160.813 505.407, 163.137 512.964, 171.386 516.841 C 173.924 518.034, 176 519.182, 176 519.391 C 176 519.600, 175.328 521.060, 174.506 522.636 C 172.335 526.798, 172.585 534.593, 175.016 538.526 C 176.838 541.474, 182.190 545, 184.844 545 C 186.638 545, 189 549.306, 189 552.575 C 189 554.296, 190.021 557.233, 191.270 559.102 C 197.003 567.684, 209.169 568.312, 219.344 560.551 C 221.184 559.148, 223.018 558, 223.419 558 C 223.821 558, 227.154 556.074, 230.825 553.721 C 245.218 544.493, 259.055 538.252, 282.376 530.472 C 290.557 527.742, 297.456 524.976, 297.706 524.324 C 298.206 523.021, 295.918 519.362, 273.351 485.371 C 264.906 472.650, 257.284 461.651, 256.414 460.929 C 255.165 459.892, 254.482 459.871, 253.166 460.829 C 243.739 467.692, 231.624 469.070, 223.946 464.153 C 221.501 462.587, 217.381 458.986, 214.791 456.151 C 205.435 445.908, 198.942 443.745, 190.664 448.112 M 439.092 447.639 C 436.668 448.487, 433.293 448.953, 431.592 448.672 C 429.891 448.392, 427.600 448.014, 426.500 447.831 C 424.513 447.502, 424.026 448.924, 423.923 455.363 C 423.880 458.026, 424.201 458.172, 431.194 458.674 C 436.345 459.044, 438.096 458.752, 440.750 457.078 C 444.018 455.018, 445.032 453, 442.800 453 C 441.867 453, 441.867 452.733, 442.800 451.800 C 444.551 450.049, 444.267 448.965, 442.250 449.701 C 440.679 450.274, 440.695 450.117, 442.405 448.170 C 443.453 446.976, 444.128 446.021, 443.905 446.048 C 443.682 446.074, 441.516 446.790, 439.092 447.639 M 171.684 463.750 C 170.939 468.942, 171.686 478.709, 172.882 479.405 C 173.222 479.603, 174.507 479.385, 175.738 478.919 L 177.976 478.073 175.826 474.430 C 174.603 472.357, 173.409 468.137, 173.057 464.643 L 172.437 458.500 171.684 463.750 M 532.088 476.070 C 526.362 479.948, 519.324 485.132, 516.448 487.589 C 511.917 491.459, 510.903 491.923, 508.859 491.055 C 504.577 489.236, 477.639 483.080, 470.082 482.192 C 464.981 481.593, 460.141 481.716, 454.582 482.585 C 444.495 484.162, 441.938 484.956, 433.468 489.143 C 426.565 492.555, 413 504.427, 413 507.056 C 413 509.563, 423.470 518.290, 430.500 521.643 C 441.551 526.914, 447.907 528.246, 462 528.248 C 473.305 528.249, 475.380 527.954, 483.709 525.167 C 492.582 522.198, 506.157 515.234, 512.594 510.348 C 514.296 509.057, 516.010 508, 516.403 508 C 516.796 508, 520.854 509.808, 525.419 512.018 C 536.743 517.499, 547.241 519.752, 553.408 518.026 C 560.131 516.143, 559.534 514.125, 550.220 507.246 C 545.941 504.086, 540.852 500.656, 538.910 499.625 L 535.380 497.750 540.514 492.617 C 549.726 483.404, 552.193 468.974, 544.550 469.009 C 543.423 469.015, 537.815 472.192, 532.088 476.070 M 454.860 488.473 C 454.600 488.733, 454.841 491.687, 455.395 495.037 C 456.303 500.529, 456.603 501.065, 458.451 500.483 C 473.130 495.859, 481.959 495.954, 487.493 500.794 C 489.577 502.616, 490.052 503.828, 489.808 506.694 C 489.189 513.950, 479.980 516.697, 466.688 513.592 C 462.941 512.716, 459.519 512, 459.082 512 C 458.645 512, 458.744 514.309, 459.303 517.132 L 460.317 522.264 467.909 521.700 C 476.486 521.062, 485.491 518.243, 494.906 513.248 C 502.084 509.440, 516.359 500.026, 515.801 499.468 C 515.261 498.928, 493.992 493.264, 482 490.467 C 472.553 488.264, 456.266 487.067, 454.860 488.473 M 443.500 491.398 C 437.530 493.615, 432.110 497.027, 426.857 501.877 L 421.500 506.823 424.500 509.979 C 426.150 511.715, 430.200 514.417, 433.500 515.984 C 439.143 518.664, 451.021 522.313, 451.744 521.589 C 452.239 521.095, 447.925 492.677, 447.161 491.394 C 446.677 490.581, 445.697 490.582, 443.500 491.398 M 177.218 493.663 C 173.354 495.568, 170.515 499.268, 169.571 503.632 C 169.038 506.093, 169.386 507.329, 171.196 509.400 C 174.390 513.053, 178.447 513.989, 184.470 512.459 C 194.188 509.992, 197.097 501.897, 190.600 495.400 C 186.714 491.514, 182.649 490.986, 177.218 493.663 M 199.163 496.459 C 200.356 499.077, 202.280 498.777, 204.955 495.555 C 206.086 494.191, 205.740 494, 202.144 494 C 198.151 494, 198.072 494.065, 199.163 496.459 M 433.635 503.073 C 430.466 505.565, 430.421 506.001, 433.039 508.811 C 435.395 511.341, 440.162 511.714, 441.989 509.513 C 443.773 507.364, 442.461 503.531, 439.477 502.171 C 436.260 500.706, 436.737 500.632, 433.635 503.073 M 151.124 512.500 C 151.031 519.603, 151.344 521.066, 153.915 525.549 C 155.508 528.326, 157.529 531.194, 158.406 531.922 C 159.545 532.867, 160.003 534.993, 160.010 539.372 C 160.017 543.676, 160.714 546.990, 162.351 550.507 C 164.734 555.624, 170.230 561.303, 173.937 562.480 C 175.313 562.917, 176.362 564.537, 177.070 567.318 C 178.607 573.363, 182.851 579.013, 188.455 582.478 C 193.048 585.317, 193.952 585.500, 203.422 585.500 C 211.912 585.500, 214.288 585.130, 218.500 583.152 C 221.250 581.860, 224.400 580.005, 225.500 579.028 C 226.600 578.051, 229.525 576.131, 232 574.762 C 234.475 573.392, 240.258 569.978, 244.851 567.175 C 253.455 561.924, 270.042 555.022, 289.780 548.480 C 302.145 544.381, 306.778 541.642, 304.989 539.487 C 304.236 538.580, 304.225 537.979, 304.951 537.530 C 305.528 537.174, 306 536.432, 306 535.882 C 306 535.332, 305.474 535.207, 304.830 535.605 C 304.028 536.101, 303.875 535.768, 304.345 534.544 C 304.879 533.152, 304.641 532.886, 303.265 533.337 C 271.555 543.714, 256.090 550.045, 242 558.418 C 235.125 562.503, 228.150 566.774, 226.500 567.910 C 215.096 575.756, 203.976 577.862, 193.922 574.082 C 190.853 572.928, 186.971 570.751, 185.294 569.242 C 181.689 566, 178 559.446, 178 556.285 C 178 554.701, 176.897 553.473, 174.250 552.112 C 165.658 547.693, 161.599 540.544, 161.855 530.285 C 162.023 523.542, 161.867 522.959, 159.460 521.382 C 156.525 519.459, 152.986 513.161, 151.939 508 C 151.409 505.385, 151.203 506.522, 151.124 512.500 M 402.085 513 C 402.013 522.647, 406.252 528.774, 418.206 536.302 C 428.607 542.852, 437.982 546.030, 452.675 547.986 C 461.658 549.182, 473.771 548.173, 484.500 545.333 C 491.225 543.554, 508.672 535.513, 513.952 531.761 L 517.403 529.308 523.722 532.173 C 533.377 536.551, 542.159 538.286, 551.761 537.713 C 558.545 537.308, 560.602 536.778, 563.261 534.748 C 566.744 532.090, 568.335 526.274, 565.257 527.455 C 563.970 527.949, 563.928 527.792, 565.001 526.499 C 566.960 524.138, 565.858 523.928, 560.961 525.729 C 551.880 529.069, 536.416 527.249, 523.821 521.357 L 518.142 518.700 513.299 521.808 C 489.122 537.323, 460.490 541.823, 435.915 533.973 C 421.011 529.212, 406.578 518.619, 403.077 509.873 C 402.300 507.933, 402.119 508.504, 402.085 513 M 184.750 519.572 C 181.777 521.185, 178.997 526.653, 179.005 530.872 C 179.013 535.068, 182.876 539.045, 187.506 539.625 C 192.394 540.237, 199.765 536.802, 201.903 532.916 C 204.060 528.994, 200.932 523.222, 195.038 520.250 C 189.851 517.634, 188.487 517.545, 184.750 519.572 M 206.032 520.750 C 206.049 521.163, 206.731 522.383, 207.547 523.462 C 209.002 525.386, 209.083 525.371, 211.743 522.712 L 214.455 520 210.227 520 C 207.902 520, 206.014 520.337, 206.032 520.750 M 223.204 542.808 C 220.331 543.092, 219.994 543.414, 220.578 545.317 C 220.947 546.518, 221.374 547.644, 221.527 547.819 C 222.059 548.430, 225.965 545.534, 226.504 544.128 C 227.172 542.388, 227.229 542.411, 223.204 542.808 M 199.942 544.472 C 196.395 546.400, 194.880 550.095, 196.014 554.047 C 197.276 558.450, 199.670 559.936, 205.500 559.936 C 211.330 559.936, 213.724 558.450, 214.986 554.047 C 217.260 546.121, 207.883 540.152, 199.942 544.472 M 234.507 565.989 C 234.157 566.555, 234.558 566.723, 235.448 566.382 C 237.180 565.717, 237.497 565, 236.059 565 C 235.541 565, 234.843 565.445, 234.507 565.989 M 223.306 572.560 C 221.263 574.425, 221.066 574.847, 222.582 574.115 C 224.657 573.113, 227.756 570, 226.678 570 C 226.367 570, 224.849 571.152, 223.306 572.560" stroke="none" fill="black" fill-rule="evenodd"/>
</svg>