<svg xmlns="http://www.w3.org/2000/svg" width="900" height="900" viewBox="0 0 900 900" version="1.1">
	<path d="M 414.527 181.146 C 381.794 185.341, 336.259 200.922, 314.996 215.204 C 313.073 216.495, 307.124 220.153, 301.775 223.333 C 275.293 239.074, 239.067 275.304, 223.319 301.797 C 220.147 307.134, 216.495 313.073, 215.204 314.996 C 180.985 365.940, 169.623 459.721, 189.640 526 C 195.240 544.541, 208.349 574.799, 215.204 585.004 C 216.495 586.927, 220.153 592.876, 223.333 598.225 C 239.074 624.707, 275.304 660.933, 301.797 676.681 C 307.134 679.853, 313.073 683.505, 314.996 684.796 C 365.940 719.015, 459.721 730.377, 526 710.360 C 544.541 704.760, 574.799 691.651, 585.004 684.796 C 586.927 683.505, 592.876 679.847, 598.225 676.667 C 624.707 660.926, 660.933 624.696, 676.681 598.203 C 679.853 592.866, 683.505 586.927, 684.796 585.004 C 715.151 539.813, 728.178 458.987, 715.419 395 C 710.252 369.087, 695.844 331.443, 684.796 314.996 C 683.505 313.073, 679.853 307.134, 676.681 301.797 C 660.933 275.304, 624.707 239.074, 598.225 223.333 C 592.876 220.153, 586.927 216.495, 585.004 215.204 C 563.195 200.555, 517.836 185.211, 484.026 181.044 C 473.942 179.801, 424.456 179.874, 414.527 181.146 M 420 201.509 C 213.304 226.953, 125.962 479.772, 273 627.015 C 420.292 774.511, 673.695 686.375, 698.559 479 C 717.731 319.095, 579.930 181.823, 420 201.509 M 309.500 366.939 C 273.704 372.035, 269.208 375.621, 279.918 390.536 C 284.797 397.330, 286.954 402.930, 286.978 408.872 C 287.135 447.325, 307.616 468.988, 336.359 461.102 C 353.955 456.275, 361.629 449.169, 366.964 432.761 C 368.170 429.054, 369.576 425.762, 370.090 425.445 C 371.196 424.761, 377.341 415.247, 378.266 412.786 C 378.782 411.412, 379.463 411.247, 381.705 411.954 C 383.242 412.438, 385.729 413.103, 387.232 413.432 C 390.874 414.228, 392.365 417.430, 394.800 429.686 C 401.299 462.398, 420.124 476.148, 460.500 477.675 C 489.708 478.779, 497.186 470.141, 504.095 427.312 C 506.135 414.663, 505.277 415.082, 533.556 412.918 C 559.692 410.918, 580.766 408.684, 594 406.512 C 598.675 405.745, 606.888 404.585, 612.250 403.935 C 623.011 402.631, 623.623 402.039, 620.490 395.980 C 618.067 391.295, 616.898 391.115, 598 392.521 C 527.346 397.775, 505.675 397.793, 483.527 392.615 C 461.066 387.364, 438.486 387.190, 413.479 392.076 C 389.459 396.770, 368.273 393.857, 347.418 382.993 C 340.034 379.147, 333.319 376, 332.496 376 C 329.393 376, 331.242 373.900, 338.750 368.894 C 343.012 366.052, 346.928 363.339, 347.450 362.864 C 348.976 361.477, 344.471 361.960, 309.500 366.939 M 304.002 381.031 C 293.263 383.298, 291.761 386.456, 292.364 405.500 C 293.561 443.314, 311.110 463.930, 336.176 456.968 C 349.360 453.306, 365.675 432.962, 359.113 428.367 C 353.297 424.293, 351.958 413.288, 356.470 406.640 C 359.450 402.248, 357.868 401.805, 354.187 406 C 351.583 408.968, 349 409.954, 349 407.980 C 349 406.306, 353.804 399.215, 355.721 398.060 C 359.667 395.682, 343.886 384.615, 332.888 382.048 C 326.442 380.543, 309.189 379.936, 304.002 381.031 M 431.007 395.093 C 390.948 400.270, 397.420 461.079, 439.114 471.264 C 476.035 480.283, 489.937 473.104, 494.331 442.750 C 495.171 436.947, 491.110 437.472, 484.475 444.024 C 476.109 452.286, 466.181 453.119, 462.434 445.872 C 459.539 440.273, 461.400 428.111, 464.928 429.575 C 468.793 431.178, 470.002 431.159, 470.644 429.485 C 471.545 427.138, 467.445 424.051, 463.387 424.022 C 456.702 423.974, 447.592 437.890, 450.859 443.159 C 451.486 444.172, 452.563 446.012, 453.250 447.250 C 453.938 448.488, 455.366 450.512, 456.424 451.750 C 457.483 452.988, 457.933 453.994, 457.424 453.987 C 454.591 453.946, 441.515 449, 441.212 447.855 C 441.015 447.110, 440.474 445.600, 440.010 444.500 C 437.477 438.492, 437.732 437.790, 444.905 431 C 462.991 413.882, 475.896 412.908, 489.394 427.645 C 496.042 434.903, 496.350 434.692, 495.794 423.250 C 494.710 400.935, 469.748 390.086, 431.007 395.093 M 359.212 407.188 C 357.336 409.064, 357.773 410.171, 360.250 409.820 C 361.488 409.644, 362.500 408.863, 362.500 408.083 C 362.500 406.179, 360.709 405.691, 359.212 407.188 M 444.461 443.063 C 443.796 444.139, 446.644 448, 448.103 448 C 448.539 448, 448.425 446.650, 447.850 445 C 446.768 441.895, 445.597 441.225, 444.461 443.063 M 364 470.595 C 360.436 474.124, 357.758 474.490, 350.179 472.487 C 346.506 471.516, 342.600 470.778, 341.500 470.848 C 340.400 470.918, 336.350 471.109, 332.500 471.271 C 319.220 471.833, 318.153 486.033, 331.099 489.912 C 336.656 491.576, 335.609 493.534, 329.251 493.370 C 324.209 493.240, 324.209 493.240, 325.070 496.243 C 328.161 507.022, 346.778 520.022, 350.500 514 C 350.840 513.450, 351.991 513, 353.059 513 C 354.127 513, 355 512.575, 355 512.055 C 355 511.535, 356.080 510.522, 357.400 509.805 C 377.093 499.101, 388.411 481.357, 379.750 474.763 C 371.162 468.225, 367.401 467.229, 364 470.595 M 353.564 495.103 C 355.408 498.087, 367 502.026, 367 499.669 C 367 498.141, 364.274 496.699, 358.384 495.110 C 353.258 493.728, 352.713 493.727, 353.564 495.103 M 332.029 529.961 C 331.220 530.473, 330.770 531.052, 331.029 531.248 C 334.797 534.104, 340.968 536.131, 360.878 541.053 C 373.870 544.265, 388.011 548.312, 392.303 550.046 C 398.755 552.653, 400.573 553.019, 402.803 552.160 C 404.286 551.589, 410.170 550.413, 415.878 549.547 C 421.586 548.681, 427.661 547.330, 429.378 546.545 C 431.095 545.760, 434.413 544.624, 436.750 544.020 C 439.087 543.417, 441 542.490, 441 541.961 C 441 540.563, 439.868 540.737, 431.781 543.375 C 427.776 544.682, 420.675 546.081, 416 546.485 C 411.325 546.889, 405.983 547.845, 404.128 548.610 C 399.113 550.677, 397.706 550.415, 387.161 545.457 C 381.848 542.958, 375.700 540.070, 373.500 539.039 C 371.300 538.008, 367.475 536.645, 365 536.011 C 362.525 535.376, 358.556 533.934, 356.179 532.805 C 350.171 529.952, 334.889 528.152, 332.029 529.961" stroke="none" fill="black" fill-rule="evenodd"/>
</svg>