<svg xmlns="http://www.w3.org/2000/svg" width="700" height="700" viewBox="0 0 700 700" version="1.1">
	<path d="M 73.884 182.709 C 54.075 187.779, 49.921 203.054, 60.686 231.245 C 62.523 236.055, 64.698 243.030, 65.520 246.745 C 66.341 250.460, 67.700 255.975, 68.538 259 C 74.549 280.695, 74.242 284.412, 65.918 290.686 C 55.504 298.534, 53.368 322.560, 61.550 339.805 C 63.457 343.823, 65.487 349.211, 66.062 351.778 C 67.175 356.743, 71.966 365.897, 74.592 368.077 C 75.461 368.798, 77.095 371.438, 78.223 373.944 C 79.351 376.450, 81.337 380.835, 82.637 383.688 C 83.937 386.542, 85 389.183, 85 389.557 C 85 389.932, 86.635 392.929, 88.633 396.218 C 92.265 402.198, 92.265 402.198, 90.633 409.627 C 82.686 445.793, 113.552 469.366, 146.068 451.964 C 147.429 451.235, 148.639 451.271, 150.162 452.087 C 152.756 453.475, 150.098 454.883, 139.890 457.529 C 122.378 462.066, 116.460 480.640, 129.391 490.479 C 134.909 494.678, 140.052 495.239, 156.030 493.385 C 168.950 491.886, 168.972 491.887, 179.231 494.433 C 195.888 498.567, 202.514 499.372, 221.500 499.573 C 235.512 499.721, 240.497 500.134, 244 501.437 C 267.813 510.295, 287.587 502.779, 292.263 483.094 C 292.929 480.293, 293.819 478, 294.241 478 C 294.663 478, 315.554 475.732, 340.664 472.960 C 365.775 470.188, 386.624 468.276, 386.996 468.710 C 387.368 469.145, 388.188 472.425, 388.818 476 C 393.657 503.448, 418.795 512.301, 449.695 497.439 C 457.200 493.829, 457.200 493.829, 466.350 495.514 C 479.964 498.022, 508.602 497.731, 522.249 494.946 C 532.215 492.913, 532.744 492.902, 541.294 494.560 C 567.113 499.567, 587.812 484.236, 584.555 462.519 C 583.997 458.800, 584.347 457.687, 587.570 452.907 C 592.919 444.972, 597.975 434.588, 600.942 425.440 C 603.556 417.380, 603.556 417.380, 607.528 419.142 C 653.700 439.618, 659.869 377.608, 617.306 320.863 C 612.799 314.855, 607.767 307.588, 606.123 304.716 C 601.010 295.779, 603.355 296.462, 498.500 273.371 C 446.800 261.986, 404.176 252.398, 403.779 252.065 C 403.161 251.545, 448.193 224.063, 456.382 219.964 C 472.565 211.862, 465.473 185.667, 447.148 185.858 C 420.492 186.136, 392.584 200.347, 376.807 221.677 C 373.178 226.583, 353.121 240, 349.416 240 C 348.630 240, 288.948 226.924, 216.788 210.942 C 74.234 179.369, 81.403 180.785, 73.884 182.709" stroke="none" fill="#fff" fill-rule="evenodd"/>
</svg>