<svg xmlns="http://www.w3.org/2000/svg" width="750" height="750" viewBox="0 0 750 750" version="1.1">
	<path d="M 406 123.704 C 401.783 125.912, 399.908 127.672, 397.964 131.245 C 396.570 133.808, 395.142 136.191, 394.792 136.541 C 394.443 136.891, 391.171 135.752, 387.522 134.010 C 379.959 130.401, 372.361 129.277, 366.407 130.886 C 359.657 132.711, 355.395 137.741, 356.584 142.479 C 357.126 144.636, 356.877 145.003, 354.858 145.022 C 351.163 145.056, 344.566 148.465, 342.081 151.624 C 340.404 153.756, 339.955 155.337, 340.346 157.742 C 340.889 161.090, 339.732 163.003, 335.932 165.036 C 332.671 166.782, 330.657 171.769, 331.969 174.853 C 333.739 179.014, 336.634 180.479, 349.761 183.862 C 368.346 188.651, 376.165 191.474, 391.857 199.060 C 399.754 202.877, 406.997 206, 407.952 206 C 408.908 206, 410.383 205.212, 411.230 204.250 C 413.126 202.094, 438.207 164.427, 439.975 161.079 C 441.561 158.075, 439.918 156.562, 434.050 155.624 C 431.573 155.228, 428.833 153.765, 426.571 151.631 C 422.345 147.646, 422.015 144.573, 425 137 C 429.111 126.570, 426.859 121.898, 417.399 121.236 C 412.365 120.884, 410.694 121.245, 406 123.704 M 433.697 137.393 C 433.288 138.434, 433.189 139.522, 433.476 139.810 C 434.389 140.722, 435.191 139.227, 434.809 137.328 C 434.459 135.588, 434.405 135.591, 433.697 137.393 M 347.600 138.600 C 347.244 139.527, 347.178 140.511, 347.453 140.786 C 347.728 141.061, 348.244 140.527, 348.600 139.600 C 348.956 138.673, 349.022 137.689, 348.747 137.414 C 348.472 137.139, 347.956 137.673, 347.600 138.600 M 431.545 142.859 C 430.896 144.904, 431.767 148, 432.990 148 C 433.772 148, 434.961 144.574, 434.986 142.250 C 435.008 140.291, 432.202 140.788, 431.545 142.859 M 385.638 146.500 C 385.220 147.591, 385.756 148, 387.603 148 C 389.861 148, 389.976 147.833, 388.643 146.500 C 387.818 145.675, 386.934 145, 386.678 145 C 386.423 145, 385.955 145.675, 385.638 146.500 M 331.552 153.250 C 330.364 157.107, 330.074 160, 330.876 160 C 331.379 160, 331.962 158.200, 332.171 156 C 332.551 152.024, 332.288 150.860, 331.552 153.250 M 368.688 160.646 C 367.383 161.950, 368.006 163, 370.083 163 C 371.247 163, 371.992 162.476, 371.771 161.813 C 371.284 160.351, 369.614 159.719, 368.688 160.646 M 441.048 174.226 C 426.795 196.425, 418.161 208.528, 415.353 210.245 C 409.958 213.544, 405.168 212.592, 389.720 205.148 C 381.899 201.379, 373.025 197.341, 370 196.174 C 364.306 193.977, 345.304 188.684, 338.779 187.477 C 333.437 186.488, 326.817 181.946, 324.537 177.704 C 322.872 174.607, 322.735 173.444, 323.639 170.058 C 324.225 167.861, 324.334 166.294, 323.880 166.574 C 323.426 166.855, 322.550 168.958, 321.933 171.249 C 321.316 173.539, 319.391 177.458, 317.656 179.957 C 314.883 183.949, 314.500 185.310, 314.500 191.184 C 314.500 197.236, 314.784 198.170, 317.500 201.057 C 320.712 204.472, 325.359 206.866, 331 208.014 C 346.937 211.255, 361.908 216.561, 382.296 226.194 C 394.204 231.820, 395.480 232.208, 400.673 231.777 C 406 231.335, 406.536 231.024, 412.477 224.907 C 417.961 219.263, 442.851 183.176, 447.330 174.377 C 448.940 171.214, 449.871 164.538, 448.845 163.512 C 448.538 163.204, 445.029 168.026, 441.048 174.226 M 236.385 172.228 C 232.414 175.294, 225.489 181.631, 220.318 186.932 L 215.994 191.364 194.247 191.510 C 170.264 191.672, 166.730 192.352, 153.540 199.341 C 144.305 204.235, 133.227 215.823, 134.532 219.224 C 135.320 221.277, 144.338 225.523, 150.799 226.884 C 153.714 227.498, 160.104 228, 165 228 C 183.864 228, 197.240 223.046, 214.367 209.716 L 223.233 202.815 229.572 204.408 C 237.829 206.482, 249.775 206.474, 254.980 204.391 C 259.121 202.734, 259.491 202.281, 258.235 200.401 C 257.383 199.126, 246.018 194.525, 241.250 193.524 C 237.608 192.759, 237.227 191.885, 239.658 189.872 C 242.250 187.728, 244.954 180.906, 244.978 176.450 C 245.014 169.836, 241.633 168.175, 236.385 172.228 M 356.667 176.667 C 355.288 178.046, 356.087 179, 358.622 179 C 360.840 179, 361.053 178.768, 360 177.500 C 358.645 175.868, 357.702 175.632, 356.667 176.667 M 250.564 187.707 C 250.022 189.132, 250.136 189.247, 251.124 188.267 C 251.808 187.588, 252.115 186.781, 251.807 186.474 C 251.499 186.166, 250.940 186.721, 250.564 187.707 M 265.058 206.430 C 261.269 210.996, 242.775 213.432, 231.026 210.912 L 225.953 209.824 218.726 215.319 C 209.658 222.215, 200.342 227.140, 189.747 230.637 C 182.165 233.141, 180.170 233.366, 165 233.430 C 147.394 233.505, 143.639 232.797, 132.786 227.363 C 127.870 224.902, 126 222.599, 126 219.007 C 126 217.838, 125.550 217.160, 125 217.500 C 124.450 217.840, 124 219.451, 124 221.080 C 124 222.710, 122.895 225.721, 121.544 227.771 C 114.432 238.569, 115.180 243.043, 124.921 247.960 C 133.618 252.350, 141.732 253.971, 155 253.968 C 167.633 253.965, 176.844 252.381, 187.169 248.435 C 193.664 245.953, 208.016 237.567, 212.786 233.466 C 214.849 231.692, 216.606 231.500, 230.786 231.500 C 246.003 231.500, 246.682 231.411, 252.250 228.676 C 255.412 227.123, 258 225.517, 258 225.105 C 258 224.694, 260 222.271, 262.444 219.720 C 266.560 215.424, 266.880 214.709, 266.774 210.041 C 266.711 207.268, 266.566 205, 266.452 205 C 266.338 205, 265.711 205.643, 265.058 206.430 M 512.359 215.508 C 510.581 220.141, 516.086 230.036, 522.726 234.139 C 525.049 235.576, 525.841 236.527, 524.927 236.785 C 524.142 237.007, 520.013 239.500, 515.750 242.326 C 506.530 248.438, 505.908 250.392, 512.719 251.845 C 518.720 253.124, 526.013 251.892, 536.136 247.888 L 543.773 244.867 552.345 249.502 C 571.393 259.801, 590.197 263.691, 606.483 260.700 C 618.967 258.408, 631.349 251.978, 633.273 246.788 C 634.170 244.371, 625.384 236.914, 616.528 232.576 C 600.271 224.612, 585.745 223.634, 561 228.837 C 546.938 231.794, 546.424 231.832, 544 230.102 C 540.053 227.285, 525.946 218.820, 521 216.300 C 515.764 213.634, 513.169 213.396, 512.359 215.508 M 502.069 218 C 502.028 219.375, 500.196 223.148, 497.998 226.385 C 493.315 233.278, 492.767 238.685, 496.022 245.859 C 497.110 248.257, 498 250.937, 498 251.816 C 498 252.694, 496.200 255.979, 494 259.116 C 486.906 269.229, 489.143 275.642, 500.595 278.020 C 508.183 279.595, 517.752 278.696, 527.118 275.527 L 534.443 273.049 541.972 276.896 C 556.869 284.509, 571.028 288, 587.010 288 C 606.776 288, 620.109 283.055, 631.642 271.448 C 640.942 262.087, 642.018 260.310, 642.464 253.568 L 642.838 247.924 640.061 251.712 C 638.534 253.795, 634.828 256.968, 631.825 258.762 C 610.158 271.704, 579.150 270.776, 551 256.342 C 544.452 252.985, 541.199 252.284, 539.450 253.851 C 537.183 255.883, 525.062 258.322, 517.500 258.268 C 505.859 258.185, 499 254.548, 499 248.458 C 499 245.877, 503.241 241.129, 508.250 238.103 C 510.313 236.857, 512 235.622, 512 235.360 C 512 235.097, 510.683 233.222, 509.072 231.191 C 507.462 229.161, 505.244 224.800, 504.144 221.500 C 502.841 217.596, 502.117 216.373, 502.069 218 M 303.551 234.492 C 301.026 237.448, 298.003 240.009, 296.834 240.183 C 293.738 240.645, 286.408 249.582, 287.774 251.228 C 289.343 253.118, 286.847 256, 283.642 256 C 281.576 256, 280.362 257.031, 278.046 260.750 C 276.225 263.674, 275.289 266.297, 275.609 267.574 C 276.207 269.963, 274.542 271.658, 271.108 272.154 C 267.866 272.623, 259.886 283.693, 261.895 284.935 C 264.058 286.272, 262.187 288, 258.578 288 C 255.493 288, 255.088 288.412, 252.490 294.201 C 250.960 297.611, 249.661 301.265, 249.604 302.320 C 249.524 303.801, 248.660 304.289, 245.816 304.461 C 241.251 304.737, 237.220 307.275, 236.446 310.361 C 236.105 311.716, 234.410 313.388, 232.407 314.343 C 228.809 316.059, 226.823 319.463, 227.564 322.643 C 227.861 323.918, 226.985 325.129, 224.770 326.506 C 220.437 329.201, 219.266 332.807, 220.828 338.646 L 222.058 343.245 216.650 350.430 C 213.676 354.382, 210.620 358.264, 209.860 359.057 C 205.246 363.872, 198.962 371.969, 198.120 374.185 C 196.859 377.500, 199.460 380.116, 206.285 382.399 C 214.001 384.981, 215.276 384.629, 219.358 378.798 L 223 373.596 223 378.938 C 223 390.861, 233.839 403.567, 253.130 414.260 C 258.458 417.213, 276.139 424, 278.505 424 C 279.380 424, 281.959 424.900, 284.236 426 C 286.513 427.100, 288.877 428, 289.491 428 C 290.104 428, 293.814 424.036, 297.736 419.190 C 301.659 414.345, 308.769 406.245, 313.537 401.190 C 321.878 392.348, 322.370 392, 326.544 392 C 328.930 392, 331.105 392.361, 331.378 392.803 C 331.651 393.245, 330.639 394.932, 329.128 396.553 C 322.256 403.928, 307 428.729, 307 432.526 C 307 436.623, 312.097 434.642, 314.046 429.788 C 316.267 424.257, 325.896 408.893, 331.776 401.500 C 334.838 397.650, 337.458 394.346, 337.597 394.159 C 337.736 393.971, 338.733 394.098, 339.813 394.441 C 341.722 395.047, 341.699 395.281, 338.999 402.782 C 334.979 413.946, 330.706 424.395, 326.537 433.255 C 322.781 441.235, 322.697 443, 326.070 443 C 327.431 443, 328.802 441.410, 330.598 437.750 L 333.174 432.500 367.672 432.525 L 402.170 432.551 405.835 439.524 C 409.483 446.466, 412.409 448.705, 413.640 445.497 C 414.259 443.883, 413.330 441.931, 398.320 413.305 C 392.241 401.712, 392.023 401.058, 393.897 400.055 C 394.981 399.475, 396.320 399, 396.872 399 C 398.145 399, 406.609 409.109, 414.961 420.606 C 423.095 431.803, 430.756 440, 433.086 440 C 436.560 440, 436.136 437.853, 431.730 433.142 C 429.282 430.526, 422.800 422.336, 417.324 414.942 C 411.848 407.549, 406.722 400.823, 405.934 399.996 C 401.740 395.597, 401.725 395.333, 405.543 392.973 L 409.158 390.739 413.701 395.120 C 416.199 397.529, 420.326 401.750, 422.871 404.499 C 433.979 416.495, 442.693 425.332, 445.159 427.100 C 448.079 429.194, 450.995 428.717, 451.010 426.143 C 451.016 424.988, 453.170 423.806, 458.260 422.165 C 479.180 415.417, 496.276 402.784, 500.078 391.263 C 501.212 387.826, 500.977 380.876, 499.362 370.135 L 498.706 365.769 505.103 366.415 C 508.621 366.770, 517.701 367.783, 525.280 368.667 C 532.859 369.550, 539.309 370.024, 539.613 369.720 C 541.066 368.267, 542.133 352.189, 542.283 329.500 C 542.465 301.955, 541.952 298.980, 536.396 295.340 C 533.076 293.165, 523.278 292.978, 519.468 295.017 C 517.215 296.223, 516.713 296.106, 514.238 293.798 C 512.732 292.393, 510.517 290.739, 509.316 290.122 C 506.179 288.511, 499.350 288.740, 495.456 290.588 C 492.131 292.166, 492.088 292.154, 488.689 288.756 C 483.482 283.549, 475.610 281.883, 468.750 284.537 C 467.283 285.105, 467 284.634, 467 281.626 C 467 277.936, 467.298 277.711, 473.417 276.789 C 476.811 276.277, 476.268 274.090, 472.327 272.399 C 470.222 271.496, 467.865 270.451, 467.089 270.076 C 466.312 269.701, 464.861 265.934, 463.863 261.705 C 460.257 246.423, 455.767 241.504, 445.422 241.502 C 440.304 241.500, 438.764 241.942, 435.671 244.302 C 430.354 248.357, 428.679 252.234, 428.049 261.949 L 427.500 270.399 418.500 271.708 C 390.829 275.733, 379.729 276.334, 366.500 274.524 C 355.394 273.005, 342.572 267.526, 334.283 260.759 C 331.414 258.417, 326.820 254.700, 324.076 252.500 C 321.331 250.300, 319.066 248.132, 319.043 247.683 C 319.019 247.234, 320.125 245.392, 321.500 243.589 C 324.263 239.966, 324.759 237, 322.600 237 C 321.831 237, 318.967 235.497, 316.237 233.659 C 308.603 228.522, 308.654 228.519, 303.551 234.492 M 331.254 243.964 C 330.043 245.903, 330.496 249, 331.990 249 C 333.117 249, 333.791 245.754, 333.083 243.738 C 332.526 242.149, 332.377 242.167, 331.254 243.964 M 295.656 246.402 C 294.165 248.678, 294.201 248.834, 296.333 249.369 C 297.571 249.679, 301.152 250.235, 304.292 250.604 C 307.617 250.995, 310 251.766, 310 252.451 C 310 254.121, 305.270 263.715, 304.086 264.447 C 303.542 264.783, 298.939 263.889, 293.855 262.459 L 284.614 259.861 282.895 262.140 C 281.202 264.384, 281.230 264.437, 284.759 265.650 C 286.730 266.328, 290.040 267.169, 292.114 267.519 C 297.886 268.495, 298.282 269.766, 294.677 275.754 C 290.998 281.864, 290.611 281.936, 279.761 278.566 L 272.021 276.161 269.902 279.138 C 268.736 280.776, 267.943 282.234, 268.141 282.379 C 268.943 282.967, 279.316 285, 281.517 285 C 285.115 285, 285.402 286.638, 282.635 291.360 C 278.442 298.515, 278.166 298.599, 268.608 295.619 C 263.987 294.179, 259.801 293, 259.305 293 C 258.537 293, 256 298.522, 256 300.191 C 256 300.493, 257.913 300.999, 260.250 301.316 C 262.587 301.633, 269.225 302.576, 275 303.412 C 280.775 304.247, 292.700 305.631, 301.500 306.486 C 310.300 307.342, 320.425 308.520, 324 309.104 C 345.334 312.591, 369.676 311.285, 392.218 305.444 C 404.102 302.364, 409.562 299.789, 438.245 283.736 C 443.605 280.736, 451.255 277.232, 455.245 275.948 L 462.500 273.615 458.500 272.865 C 452.837 271.803, 445.649 271.842, 438.582 272.973 C 370.862 283.808, 349.616 281.070, 323.735 258.175 C 314.087 249.640, 304.476 244, 299.581 244 C 298.202 244, 296.579 244.993, 295.656 246.402 M 439.898 247.287 C 434.631 250.833, 432.035 258.041, 433.401 265.327 L 434.047 268.765 447.021 268.632 C 460.689 268.493, 460.893 268.411, 459.115 263.797 C 458.628 262.534, 457.489 258.941, 456.583 255.812 C 453.727 245.942, 447.001 242.506, 439.898 247.287 M 416.289 260.549 L 414.079 265 416.539 265 C 418.789 265, 419 264.614, 419 260.500 C 419 258.025, 418.887 256.022, 418.750 256.049 C 418.613 256.076, 417.505 258.101, 416.289 260.549 M 312.325 264.459 C 307.133 266.718, 306.129 269.290, 306.261 280 C 306.359 287.987, 306.027 290.175, 304.176 293.735 C 301.203 299.454, 298.096 301.457, 294.640 299.882 C 292.576 298.941, 292.082 298.073, 292.267 295.706 C 292.517 292.498, 291.360 291.489, 289.083 292.928 C 287.109 294.177, 287.312 299.455, 289.417 301.560 C 290.416 302.559, 293.273 303.512, 296.075 303.781 C 300.712 304.227, 301.198 304.037, 304.895 300.340 C 309.836 295.399, 311.457 289.957, 311.237 279.042 C 311.040 269.274, 312.239 267, 317.585 267 C 320.221 267, 320.923 267.440, 321.180 269.250 C 321.662 272.643, 325.409 272.285, 325.811 268.807 C 326.058 266.669, 325.502 265.794, 323.111 264.557 C 319.449 262.664, 316.514 262.637, 312.325 264.459 M 265 266.059 C 265 266.641, 265.450 266.840, 266 266.500 C 266.550 266.160, 267 265.684, 267 265.441 C 267 265.198, 266.550 265, 266 265 C 265.450 265, 265 265.477, 265 266.059 M 326.675 272.658 C 325.774 273.559, 327.926 276, 329.622 276 C 332.035 276, 331.640 277.426, 325.059 292.500 C 322.054 299.384, 320.977 303.377, 321.881 304.281 C 323.918 306.318, 325.627 303.937, 329.921 293.085 C 335.849 278.106, 335.585 278.406, 341.499 279.895 C 344.580 280.671, 346.642 280.758, 347.261 280.139 C 348.789 278.611, 347.234 277.134, 343.324 276.401 C 341.341 276.029, 337.425 274.887, 334.623 273.862 C 329.127 271.853, 327.697 271.637, 326.675 272.658 M 426.960 278.074 C 426.021 279.830, 426.169 280.231, 427.925 280.691 C 430.248 281.298, 430.645 282.572, 428.750 283.341 C 427.809 283.722, 427.871 284.110, 429 284.909 C 431.027 286.342, 432.261 286.265, 434.559 284.561 C 436.211 283.336, 436.314 282.817, 435.250 281.074 C 434.563 279.948, 434 278.346, 434 277.514 C 434 275.100, 428.310 275.553, 426.960 278.074 M 414.239 278.666 C 411.635 279.715, 410.921 282.798, 412.141 287.724 C 413.404 292.823, 414.484 294.135, 416.711 293.281 C 417.687 292.906, 417.909 291.862, 417.454 289.792 L 416.806 286.838 422.051 287.169 C 425.729 287.401, 427.433 287.107, 427.753 286.184 C 428.009 285.449, 427.280 284.625, 426.105 284.317 C 424.947 284.014, 424 283.170, 424 282.440 C 424 279.493, 417.971 277.162, 414.239 278.666 M 453.135 281.546 C 449.634 282.893, 444.234 285.535, 441.135 287.418 L 435.500 290.841 436.225 306.062 C 436.624 314.434, 437.133 321.466, 437.357 321.690 C 437.581 321.914, 440.715 320.035, 444.321 317.515 C 452.733 311.634, 468.831 304, 472.819 304 C 479.651 304, 483.543 308.071, 483.361 315.027 C 483.261 318.829, 481.017 322.952, 476.182 328.218 L 473.686 330.937 478.196 332.870 C 489.996 337.928, 496.549 349.164, 493.057 358.350 L 492.114 360.830 500.807 361.478 C 505.588 361.835, 512.875 362.543, 517 363.052 C 521.125 363.561, 526.811 364.248, 529.636 364.578 L 534.773 365.179 535.373 360.839 C 535.703 358.453, 536.263 345.004, 536.618 330.954 C 537.187 308.400, 537.070 305.036, 535.621 302.234 C 534.718 300.488, 533.037 298.555, 531.884 297.938 C 528.789 296.282, 523.299 297.697, 519.781 301.059 C 515.543 305.109, 514.710 304.884, 511.656 298.868 C 507.817 291.305, 497.458 291.053, 495.595 298.477 C 494.672 302.157, 491.317 301.780, 489.203 297.760 C 488.267 295.978, 486.005 293.053, 484.179 291.260 C 481.326 288.460, 480.154 288, 475.872 288 C 471.596 288, 470.493 288.432, 468.116 291.035 C 463.753 295.811, 462 294.337, 462 285.893 C 462 281.019, 461.634 279.014, 460.750 279.049 C 460.063 279.076, 456.636 280.200, 453.135 281.546 M 402.107 281.084 C 399.810 282.003, 399.737 282.328, 400.312 289.176 C 400.640 293.099, 401.386 296.786, 401.969 297.369 C 403.562 298.962, 411.385 295.990, 411.837 293.620 C 412.153 291.968, 411.761 291.822, 408.598 292.416 C 404.661 293.154, 404.042 292.465, 406.750 290.360 C 408.417 289.065, 408.417 288.935, 406.750 287.640 C 404.604 285.971, 404.496 284.131, 406.500 283.362 C 408.582 282.563, 408.387 279.986, 406.250 280.063 C 405.288 280.098, 403.423 280.558, 402.107 281.084 M 346.303 288.201 C 341.393 300.085, 339.654 305.656, 340.315 307.378 C 341.683 310.944, 343.802 308.823, 346.437 301.250 C 347.920 296.988, 349.963 291.679, 350.976 289.454 C 353.752 283.359, 353.847 281.550, 351.409 281.201 C 349.665 280.952, 348.818 282.115, 346.303 288.201 M 386.340 286.504 C 382.951 289.527, 379.914 292, 379.590 292 C 379.265 292, 379 289.975, 379 287.500 C 379 283.355, 378.801 283, 376.475 283 C 373.967 283, 373.952 283.052, 374.114 291.250 C 374.286 299.986, 376.124 306.455, 378.236 305.761 C 378.931 305.532, 379.636 303.754, 379.802 301.810 C 380.002 299.475, 381.093 297.327, 383.014 295.486 L 385.924 292.699 389.965 296.349 C 392.187 298.357, 394.653 300, 395.444 300 C 398.557 300, 398.009 297.700, 394.101 294.354 C 391.845 292.424, 390 290.400, 390 289.858 C 390 289.315, 391.350 287.735, 393 286.347 C 394.650 284.958, 396 283.187, 396 282.411 C 396 279.589, 392.366 281.128, 386.340 286.504 M 416.813 282.683 C 417.534 282.972, 418.397 282.936, 418.729 282.604 C 419.061 282.272, 418.471 282.036, 417.417 282.079 C 416.252 282.127, 416.015 282.364, 416.813 282.683 M 358.593 285.680 C 353.795 290.477, 351.014 298.318, 352.476 302.924 C 353.808 307.120, 361.622 309.235, 367.516 306.994 C 371.871 305.338, 369.989 303.456, 364.351 303.828 C 358.193 304.234, 356.468 302.650, 357.437 297.482 C 358.467 291.993, 361.801 287.109, 365.101 286.254 C 369.226 285.185, 369.137 283.554, 364.936 283.201 C 362.136 282.966, 360.775 283.497, 358.593 285.680 M 427.450 294.938 C 425.806 296.560, 408.776 304.615, 402.273 306.845 C 386.431 312.279, 368.229 315.130, 349.282 315.145 C 340.363 315.152, 332.666 314.912, 332.180 314.611 C 331.693 314.310, 320.541 312.924, 307.397 311.531 C 294.254 310.138, 280.885 308.620, 277.689 308.158 L 271.877 307.318 269 311.499 L 266.124 315.680 267.738 321.706 C 269.477 328.197, 269.517 327.806, 264.419 355 C 263.107 361.999, 263.035 364.450, 264.014 368.882 C 266.017 377.951, 274.014 384.897, 286.500 388.413 C 292.246 390.030, 308.796 392.537, 309.445 391.888 C 309.685 391.649, 309.011 388.817, 307.949 385.596 C 304.493 375.123, 303.465 360.282, 304.814 340.349 C 305.474 330.579, 306.450 322.150, 306.981 321.619 C 308.473 320.127, 311.341 321.870, 324.885 332.498 C 331.696 337.843, 338.446 342.537, 339.885 342.928 C 341.323 343.320, 346.325 343.307, 351 342.899 C 355.675 342.492, 365.834 342.123, 373.576 342.080 C 389.651 341.989, 388.614 342.490, 395.477 331.500 C 401.286 322.197, 406.885 315.263, 409.043 314.699 C 412.151 313.886, 414.825 316.946, 417.608 324.500 C 429.441 356.620, 430.614 361.839, 429.677 378.220 C 429.353 383.874, 428.782 389.787, 428.407 391.360 C 427.739 394.162, 427.793 394.206, 431.112 393.543 C 438.251 392.119, 446.952 387.002, 451.048 381.820 C 455.021 376.794, 455.427 375.792, 456.390 368.644 L 456.909 364.787 446.204 365.030 C 432.054 365.352, 432.664 365.476, 433.430 362.421 C 433.786 361.002, 433.409 350.315, 432.592 338.671 C 430.961 315.434, 430.078 300.989, 430.031 296.750 C 429.999 293.919, 429.113 293.296, 427.450 294.938 M 471 308.714 C 462.801 311.751, 444.101 322.896, 439.250 327.636 C 437.704 329.146, 437.669 335.114, 439.120 349.441 L 440.240 360.500 462.870 360.197 C 476.140 360.019, 485.914 359.481, 486.500 358.897 C 487.050 358.348, 487.500 355.525, 487.500 352.622 C 487.500 348.418, 486.946 346.618, 484.778 343.776 C 481.753 339.810, 473.065 335, 468.926 335 C 467.451 335, 465.734 334.384, 465.110 333.632 C 464.213 332.552, 465.014 331.318, 468.924 327.760 C 477.464 319.988, 480.157 313.262, 476.171 309.655 C 474.264 307.929, 473.496 307.789, 471 308.714 M 217.729 318.604 C 217.328 319.005, 217 320.023, 217 320.867 C 217 321.992, 217.296 322.104, 218.113 321.288 C 218.724 320.676, 219.053 319.658, 218.842 319.025 C 218.631 318.392, 218.130 318.203, 217.729 318.604 M 101.591 328.853 C 100.118 331.236, 98.827 345.408, 99.391 353 L 100.023 361.500 94.262 364.476 C 77.425 373.174, 62.611 383.286, 57.811 389.359 C 48.968 400.546, 45.819 411.185, 47.902 422.841 C 48.595 426.718, 49.812 430.429, 50.608 431.089 C 52.618 432.758, 64.739 431.614, 73.182 428.958 C 86.068 424.905, 101.188 413.643, 107.948 403.061 C 113.169 394.888, 117 381.485, 117 371.386 L 117 367.140 123.860 364.975 C 133.706 361.867, 144.074 355.991, 146.785 351.980 C 150.276 346.816, 149.458 345.466, 142.965 345.680 C 137.704 345.853, 125.375 348.085, 121.750 349.521 C 120.383 350.062, 119.999 349.698, 119.994 347.857 C 119.981 342.357, 117.709 337.586, 112.845 332.849 C 109.232 329.330, 107.078 328, 104.992 328 C 103.411 328, 101.881 328.384, 101.591 328.853 M 89.577 334.241 C 89.204 336.573, 87.531 340.614, 85.859 343.220 C 83.794 346.438, 82.470 350.209, 81.733 354.970 C 81.136 358.826, 80.864 362.197, 81.128 362.462 C 81.393 362.726, 83.438 362.038, 85.673 360.932 L 89.737 358.921 90.247 346.210 C 90.527 339.220, 91.084 332.712, 91.485 331.750 C 91.890 330.778, 91.778 330, 91.235 330 C 90.696 330, 89.950 331.908, 89.577 334.241 M 209.702 334.500 C 209.305 336.700, 207.410 340.954, 205.490 343.954 C 203.571 346.953, 202 350.705, 202 352.291 C 202 355.060, 202.198 354.938, 206.956 349.243 L 211.913 343.311 211.168 336.906 C 210.428 330.540, 210.419 330.525, 209.702 334.500 M 154.667 355.370 C 151.472 359.559, 144.271 364.221, 134.306 368.553 L 126.612 371.898 126.556 379.948 C 126.521 385.029, 126.894 387.999, 127.569 388 C 128.666 388, 139.220 381.684, 142.607 379 C 146.097 376.235, 154.838 366.031, 156.401 362.898 C 158.469 358.753, 159.412 353.372, 158.201 352.624 C 157.663 352.292, 156.073 353.527, 154.667 355.370 M 620.063 356.095 C 620.023 358.359, 619.259 360.360, 618 361.500 C 615.166 364.064, 615.516 365.363, 618.512 363.400 C 621.514 361.433, 622.464 358.358, 621.115 354.976 C 620.183 352.640, 620.123 352.704, 620.063 356.095 M 630.912 353.250 C 630.863 353.387, 630.749 355.827, 630.660 358.672 C 630.533 362.665, 629.927 364.452, 627.998 366.517 C 623.201 371.651, 620.599 372.347, 605.500 372.536 C 597.800 372.633, 590.600 373.069, 589.500 373.505 C 583.036 376.068, 581.092 382.512, 585.090 388.127 C 587.759 391.874, 597.311 396.715, 603.619 397.517 C 612.578 398.655, 614.485 398.862, 616.691 398.931 C 618.754 398.996, 618.799 399.159, 617.463 401.734 C 616.683 403.238, 615.559 406.807, 614.966 409.666 C 613.398 417.217, 614.922 421.881, 620.587 426.867 C 626.289 431.887, 632.944 433.357, 640.375 431.238 L 645.250 429.848 648.081 433.282 C 653.616 439.997, 666.695 443.294, 673.780 439.760 C 677.247 438.030, 679.748 438.388, 685.746 441.473 C 690.039 443.681, 699.072 443.661, 702.839 441.436 C 707.218 438.849, 709.347 434.574, 708.597 429.878 C 708.251 427.716, 707.956 419.771, 707.941 412.223 C 707.913 398.051, 708.784 392.197, 713.376 375.732 C 715.402 368.467, 715.594 366.737, 714.500 365.643 C 713.774 364.917, 706.726 363.320, 698.840 362.094 C 690.953 360.869, 682.250 359.478, 679.500 359.004 C 676.750 358.530, 670.675 357.613, 666 356.965 C 661.325 356.318, 653.562 355.161, 648.750 354.394 C 641.062 353.169, 631.165 352.534, 630.912 353.250 M 391.594 363.864 C 388.971 364.438, 388.849 364.634, 390.344 365.872 C 394.062 368.953, 390.256 376, 384.874 376 C 381.829 376, 378 372.636, 378 369.961 C 378 367.601, 377.728 367.572, 373.950 369.526 C 370.411 371.356, 370.271 372.297, 373.250 374.231 C 383.803 381.081, 399.932 381.805, 414.411 376.078 L 417.322 374.927 413.911 371.338 C 408.333 365.468, 398.822 362.283, 391.594 363.864 M 333.500 366.236 C 328.531 368.022, 320 373.786, 320 375.357 C 320 375.631, 322.587 376.832, 325.750 378.025 C 333.903 381.100, 345.229 381.738, 352.094 379.509 C 356.909 377.946, 363 373.736, 363 371.970 C 363 371.315, 356.021 367.671, 352.793 366.641 C 351.318 366.170, 351.236 366.423, 352.185 368.507 C 353.056 370.418, 352.939 371.445, 351.619 373.459 C 349.230 377.105, 342.766 377.098, 340.374 373.448 C 338.782 371.019, 338.807 370.753, 340.881 367.948 L 343.060 365 339.780 365.079 C 337.976 365.122, 335.150 365.643, 333.500 366.236 M 548.221 372.998 C 545.027 377.046, 539.993 377.553, 523.537 375.487 C 516.033 374.544, 509.754 373.937, 509.584 374.136 C 509.413 374.336, 509.711 377.954, 510.245 382.175 C 511.154 389.364, 511.055 390.199, 508.678 395.393 C 503.429 406.858, 489.781 417.865, 471.127 425.677 C 465.282 428.125, 459.600 430.943, 458.500 431.939 C 455.333 434.807, 452.409 436, 448.547 436 C 445.207 436, 445.006 436.174, 445.599 438.540 C 446.331 441.456, 444.225 444.315, 439.571 446.722 C 437.381 447.855, 435.031 448.074, 430.299 447.590 C 425.152 447.062, 423.851 447.224, 423.381 448.450 C 422.298 451.271, 416.475 454, 411.536 454 C 405.181 454, 401.705 451.712, 398.366 445.330 L 395.578 440 367.888 440 L 340.198 440 338.138 443.491 C 333.190 451.877, 322.976 453.471, 315.500 447.026 C 313.360 445.181, 290.672 436.456, 285.229 435.385 C 283.430 435.031, 281.737 434.383, 281.466 433.944 C 281.194 433.506, 276.366 431.722, 270.736 429.980 C 246.222 422.398, 226.767 409.471, 218.466 395.250 C 216.777 392.356, 215.253 391.469, 212.705 391.897 C 211.098 392.166, 200.365 388.676, 195.906 386.434 C 190.968 383.951, 188.062 380.450, 187.898 376.785 C 187.820 375.049, 187.613 375.268, 187.034 377.700 C 186.616 379.459, 184.820 383.164, 183.044 385.932 C 176.758 395.728, 178.136 402.216, 187.496 406.891 C 192.736 409.508, 201.202 411.970, 205.023 411.988 C 206.908 411.997, 208.045 412.941, 209.523 415.724 C 212.595 421.508, 221.818 430.285, 231.075 436.231 C 239.836 441.859, 249.517 446.252, 264 451.170 C 268.675 452.758, 275.650 455.127, 279.500 456.435 C 293.212 461.093, 304.634 465.812, 308.428 468.386 C 311.146 470.231, 313.582 471, 316.705 471 C 322.034 471, 324.118 469.993, 330 464.577 L 334.500 460.434 360.428 460.467 L 386.355 460.500 389.429 465.731 C 393.467 472.605, 395.995 474.262, 402.589 474.357 C 406.697 474.417, 408.587 473.918, 410.720 472.212 C 417.143 467.076, 417.498 466.929, 420.738 468.058 C 425.966 469.881, 431.430 467.699, 437.328 461.433 C 440.141 458.445, 442.953 456, 443.577 456 C 444.202 456, 446.690 454.494, 449.106 452.654 C 451.523 450.814, 455.300 448.734, 457.500 448.032 C 462.299 446.501, 476.307 439.601, 480.500 436.703 C 487.202 432.071, 493.678 426.136, 499.589 419.208 C 506.192 411.470, 509.289 405.899, 510.408 399.748 L 511.091 395.996 522.398 396.642 C 532.351 397.211, 534.081 397.065, 536.852 395.428 C 538.583 394.406, 540 393.222, 540 392.798 C 540 392.373, 542.250 389.765, 545 387 C 547.771 384.214, 550.052 380.976, 550.117 379.737 C 550.182 378.507, 550.354 375.813, 550.499 373.750 C 550.644 371.688, 550.703 370.025, 550.631 370.055 C 550.559 370.086, 549.474 371.410, 548.221 372.998 M 724.701 372.250 C 721.346 380.624, 717 400.467, 717 407.417 C 717 412.935, 717.735 411.557, 719.391 402.935 C 720.176 398.846, 722.008 391.277, 723.462 386.115 C 724.917 380.953, 725.948 375.328, 725.754 373.615 C 725.488 371.255, 725.232 370.924, 724.701 372.250 M 572.607 378.582 C 572.273 379.452, 572 381.026, 572 382.079 C 572 383.133, 570.367 386.268, 568.372 389.046 C 562.136 397.725, 562.669 406.173, 569.933 413.809 C 574.074 418.162, 583.303 423.313, 589 424.451 C 595.848 425.818, 595.587 425.489, 595.606 432.752 C 595.628 440.934, 597.485 445.221, 603.693 451.430 C 609.515 457.252, 616.702 460, 626.107 460 C 632.273 460, 633.673 460.367, 637.466 462.977 C 644.794 468.018, 650.156 469.309, 661.493 468.759 C 668.722 468.408, 672.611 468.672, 675.500 469.710 C 680.882 471.644, 692.620 471.603, 697.330 469.636 C 701.960 467.701, 712.326 458.017, 716.149 452.054 C 718.499 448.390, 718.993 446.545, 718.961 441.554 C 718.922 435.607, 718.898 435.555, 717.577 438.588 C 712.883 449.370, 697.995 453.969, 683.939 448.978 C 679.512 447.407, 677.646 447.184, 675.557 447.978 C 668.393 450.702, 655.393 448.338, 647.320 442.845 C 643.803 440.452, 642.126 440, 636.751 440 C 624.690 440, 615.544 435.549, 609.066 426.527 C 605.660 421.784, 605.501 421.189, 605.515 413.281 C 605.529 405.518, 605.398 405, 603.420 405 C 600.156 405, 590.804 401.661, 585.716 398.679 C 583.191 397.200, 579.533 394.046, 577.587 391.671 C 574.649 388.086, 574.018 386.477, 573.866 382.177 C 573.668 376.572, 573.530 376.177, 572.607 378.582 M 123.564 394.293 C 123.940 395.279, 124.499 395.834, 124.807 395.526 C 125.115 395.219, 124.808 394.412, 124.124 393.733 C 123.136 392.753, 123.022 392.868, 123.564 394.293 M 71 398.393 C 71 398.609, 71.698 399.054, 72.552 399.382 C 73.442 399.723, 73.843 399.555, 73.493 398.989 C 72.906 398.038, 71 397.583, 71 398.393 M 93.872 399.750 C 92.629 401.336, 92.664 401.371, 94.250 400.128 C 95.916 398.821, 96.445 398, 95.622 398 C 95.415 398, 94.627 398.788, 93.872 399.750 M 123 398.642 C 123 399.179, 122.347 400.491, 121.550 401.559 C 120.169 403.407, 120.127 403.380, 120.680 401 C 121.018 399.542, 119.498 401.210, 117.033 405 C 111.421 413.630, 105.975 419.194, 97.500 424.955 C 88.084 431.356, 84.023 433.325, 74 436.350 C 52.834 442.737, 41.915 440.526, 39.020 429.264 C 37.597 423.729, 37.541 410.966, 38.920 406.231 C 39.504 404.223, 39.510 403.185, 38.936 403.540 C 38.421 403.858, 38 404.654, 37.999 405.309 C 37.999 405.964, 36.603 409.425, 34.898 413 C 27.378 428.769, 26.262 442.321, 31.566 453.497 C 37.738 466.505, 72.983 459.075, 96.011 439.911 C 107.194 430.605, 121 412.070, 121 406.364 C 121 405.559, 121.708 403.531, 122.574 401.857 C 123.439 400.184, 123.889 398.556, 123.574 398.240 C 123.258 397.925, 123 398.106, 123 398.642 M 634.827 401.081 C 633.370 402.618, 633.349 402.920, 634.659 403.423 C 637.208 404.401, 638 404.077, 638 402.059 C 638 399.365, 636.804 398.997, 634.827 401.081 M 56.624 407.539 C 55.659 410.053, 55.943 410.702, 57.122 408.675 C 57.706 407.671, 57.973 406.639, 57.715 406.382 C 57.458 406.124, 56.966 406.645, 56.624 407.539 M 68 406.393 C 68 406.609, 68.698 407.054, 69.552 407.382 C 70.442 407.723, 70.843 407.555, 70.493 406.989 C 69.906 406.038, 68 405.583, 68 406.393 M 90.733 407.124 C 91.412 407.808, 92.219 408.115, 92.526 407.807 C 92.834 407.499, 92.279 406.940, 91.293 406.564 C 89.868 406.022, 89.753 406.136, 90.733 407.124 M 73.733 409.124 C 74.412 409.808, 75.219 410.115, 75.526 409.807 C 75.834 409.499, 75.279 408.940, 74.293 408.564 C 72.868 408.022, 72.753 408.136, 73.733 409.124 M 665.160 411.240 C 663.435 412.965, 663.750 414, 666 414 C 667.100 414, 668 413.352, 668 412.559 C 668 410.540, 666.539 409.861, 665.160 411.240 M 79 411.393 C 79 411.609, 79.698 412.054, 80.552 412.382 C 81.442 412.723, 81.843 412.555, 81.493 411.989 C 80.906 411.038, 79 410.583, 79 411.393 M 72 412.941 C 72 413.459, 72.445 414.157, 72.989 414.493 C 73.555 414.843, 73.723 414.442, 73.382 413.552 C 72.717 411.820, 72 411.503, 72 412.941 M 693.786 415.937 C 691.983 418.043, 692.414 419, 695.167 419 C 697.079 419, 697.525 417.374, 696.189 415.271 C 695.608 414.357, 694.993 414.527, 693.786 415.937 M 71 422 C 70.099 422.582, 69.975 422.975, 70.691 422.985 C 71.346 422.993, 72.160 422.550, 72.500 422 C 73.267 420.758, 72.921 420.758, 71 422 M 195 445.727 C 191.576 446.349, 186.311 450.498, 184.499 454.002 C 182.632 457.613, 182.569 464.046, 184.360 468.282 C 185.109 470.052, 187.562 473.716, 189.812 476.423 C 194.164 481.661, 194.309 483, 190.520 483 C 189.221 483, 184.443 484.567, 179.903 486.482 C 166.617 492.085, 162.230 497.680, 162.894 508.173 C 163.067 510.912, 168.016 516.023, 172.062 517.641 L 175.835 519.151 173.939 523.325 C 170.498 530.904, 171.847 537.169, 178.041 542.381 C 179.753 543.821, 182.023 545, 183.087 545 C 185.318 545, 188.453 548.291, 188.602 550.791 C 188.658 551.731, 188.778 553.625, 188.868 555 C 189.106 558.630, 194.099 563.768, 199.135 565.564 C 204.630 567.525, 210.695 566.740, 215.177 563.488 C 217.005 562.162, 220.750 559.877, 223.500 558.410 C 226.250 556.944, 229.625 554.956, 231 553.993 C 241.364 546.735, 260.925 537.995, 284 530.313 C 300.899 524.686, 300.339 526.143, 291.141 511.741 C 277.323 490.106, 260.826 465.580, 258.189 462.750 C 255.167 459.508, 252.967 459.274, 250.554 461.940 C 248.230 464.508, 240.712 467, 235.290 467 C 228.551 467, 224.387 464.658, 214.949 455.560 C 208.869 449.699, 205.065 446.834, 202.367 446.085 C 200.240 445.494, 198.275 445.070, 198 445.142 C 197.725 445.214, 196.375 445.477, 195 445.727 M 172.011 458.958 C 171.425 461.135, 170.560 463.154, 170.089 463.445 C 168.271 464.568, 164.997 473.174, 164.376 478.461 C 163.695 484.251, 164.188 484.911, 167.527 482.685 C 168.612 481.961, 171.412 480.818, 173.750 480.145 C 176.088 479.471, 178 478.502, 178 477.991 C 178 477.480, 177.046 475.231, 175.880 472.994 C 174.283 469.931, 173.776 467.205, 173.825 461.963 C 173.861 458.133, 173.707 455, 173.484 455 C 173.260 455, 172.598 456.781, 172.011 458.958 M 539.318 471.075 C 536.080 472.745, 529.396 477.228, 524.465 481.037 C 519.534 484.846, 514.541 488.662, 513.368 489.518 C 511.404 490.953, 510.159 490.799, 497.459 487.543 C 481.474 483.446, 468.320 481.008, 462.177 481.003 C 455.851 480.999, 441.450 484.741, 434.153 488.286 C 427.512 491.513, 413 504.091, 413 506.621 C 413 508.924, 420.380 516.235, 426.325 519.821 C 435.219 525.185, 445.128 528.102, 456.568 528.722 C 475.561 529.753, 489.699 525.587, 508.628 513.385 L 516.757 508.145 523.628 511.498 C 533.790 516.456, 542.235 519, 548.534 519 C 559.132 519, 560.790 515.540, 553.271 509.113 C 550.670 506.890, 545.733 503.428, 542.298 501.420 L 536.055 497.768 540.303 493.634 C 545.805 488.280, 549 481.451, 549 475.046 C 549 467.915, 547.021 467.103, 539.318 471.075 M 558.574 480.247 C 558.134 482.857, 556.246 487.531, 554.378 490.633 C 551.755 494.989, 551.239 496.583, 552.113 497.636 C 553.808 499.679, 555.943 499.283, 556.897 496.750 C 558.340 492.916, 560.240 480.631, 559.796 478 C 559.477 476.111, 559.178 476.660, 558.574 480.247 M 458.500 489 C 458.160 489.550, 458.332 490, 458.882 490 C 459.432 490, 460.160 489.550, 460.500 489 C 460.840 488.450, 460.668 488, 460.118 488 C 459.568 488, 458.840 488.450, 458.500 489 M 462 489 C 462 489.550, 462.423 490, 462.941 490 C 463.459 490, 464.160 489.550, 464.500 489 C 464.840 488.450, 464.416 488, 463.559 488 C 462.702 488, 462 488.450, 462 489 M 466 489 C 466 489.550, 467.462 489.968, 469.250 489.930 C 471.974 489.871, 472.176 489.720, 470.500 489 C 467.737 487.813, 466 487.813, 466 489 M 456.195 491.500 C 456.215 493.150, 456.439 493.704, 456.693 492.731 C 456.947 491.758, 456.930 490.408, 456.656 489.731 C 456.382 489.054, 456.175 489.850, 456.195 491.500 M 446.233 494.500 C 446.235 496.150, 446.580 498.850, 447 500.500 C 448.058 504.659, 448.105 500.566, 447.057 495.500 C 446.362 492.137, 446.231 491.978, 446.233 494.500 M 199.015 494.750 C 199.024 495.163, 199.413 496.104, 199.881 496.842 C 200.591 497.962, 201.086 497.963, 202.866 496.852 C 205.833 494.999, 205.530 494, 202 494 C 200.350 494, 199.007 494.337, 199.015 494.750 M 151.545 502.500 C 151.072 504.150, 149.181 508.350, 147.343 511.833 C 141.754 522.421, 142.971 533.987, 150.403 540.924 C 152.684 543.054, 153.003 544.148, 153.022 549.924 C 153.056 560.064, 156.309 565.884, 165.096 571.523 C 167.813 573.266, 169.009 574.962, 169.986 578.451 C 171.777 584.845, 179.026 592.403, 185 594.104 C 195.862 597.196, 207.757 595.078, 217.252 588.362 C 219.866 586.513, 222.220 585, 222.483 585 C 222.746 585, 225.332 583.483, 228.231 581.630 C 243.808 571.667, 254.060 567.004, 278 558.992 C 292.981 553.978, 297.377 551.584, 302 545.919 C 307.235 539.505, 307.926 537.957, 307.965 532.563 L 308 527.626 305.250 530.111 C 301.735 533.287, 300.025 534.043, 285.500 538.842 C 263.402 546.143, 254.009 550.316, 238.692 559.639 C 233.848 562.588, 229.563 565, 229.170 565 C 228.777 565, 226.891 566.264, 224.978 567.810 C 223.065 569.355, 219.047 571.657, 216.048 572.924 C 208.949 575.926, 196.856 575.561, 190.237 572.145 C 185.217 569.555, 180.319 563.221, 178.723 557.255 C 178.015 554.608, 176.868 552.775, 175.683 552.399 C 172.204 551.295, 165.748 544.577, 163.775 540.008 C 162.254 536.488, 161.954 534.170, 162.405 529.431 C 162.962 523.573, 162.879 523.287, 160.008 521.164 C 155.752 518.017, 153.634 513.450, 152.977 506 C 152.471 500.260, 152.303 499.851, 151.545 502.500 M 435.083 500.356 C 435.313 500.552, 437.075 501.002, 439 501.355 C 441.462 501.807, 442.055 501.706, 441 501.014 C 439.644 500.125, 434.092 499.508, 435.083 500.356 M 443 503.941 C 443 504.459, 443.445 505.157, 443.989 505.493 C 444.555 505.843, 444.723 505.442, 444.382 504.552 C 443.717 502.820, 443 502.503, 443 503.941 M 423 506.871 C 423 507.953, 426.904 511.390, 430.500 513.473 L 433.500 515.211 430.500 512.866 C 428.850 511.577, 426.488 509.525, 425.250 508.306 C 424.012 507.088, 423 506.442, 423 506.871 M 401.596 509.474 C 401.254 510.835, 399.854 513.600, 398.484 515.618 C 392.511 524.420, 392.984 529.744, 400.460 537.874 C 411.077 549.418, 433.276 558.002, 452.500 557.998 C 468.836 557.995, 490.098 551.243, 505.160 541.275 L 508.982 538.746 513.815 540.825 C 526.738 546.385, 537.095 548.371, 545.760 546.952 C 548.917 546.435, 551.881 546.009, 552.347 546.006 C 552.813 546.003, 556.281 543.021, 560.053 539.379 C 565.922 533.713, 567.076 532.018, 568.058 527.629 C 568.689 524.808, 569.013 521.375, 568.779 520 C 568.378 517.655, 568.298 517.624, 567.482 519.500 C 563.489 528.679, 542.859 529.397, 524.345 521.002 L 517.649 517.966 514.075 520.330 C 502.359 528.077, 490.966 532.909, 478 535.631 C 468.724 537.578, 449.561 537.016, 440 534.517 C 424.644 530.503, 407.997 519.448, 404.627 511.026 C 403.741 508.812, 402.836 507, 402.617 507 C 402.397 507, 401.937 508.113, 401.596 509.474 M 430.500 509 C 430.840 509.550, 431.316 510, 431.559 510 C 431.802 510, 432 509.550, 432 509 C 432 508.450, 431.523 508, 430.941 508 C 430.359 508, 430.160 508.450, 430.500 509 M 434.733 512.124 C 435.412 512.808, 436.219 513.115, 436.526 512.807 C 436.834 512.499, 436.279 511.940, 435.293 511.564 C 433.868 511.022, 433.753 511.136, 434.733 512.124 M 206.794 521.311 C 207.309 521.965, 207.918 523.102, 208.145 523.839 C 208.458 524.851, 209.162 524.676, 211.030 523.122 C 212.388 521.992, 213.050 521.021, 212.500 520.964 C 211.950 520.908, 210.230 520.695, 208.678 520.492 C 206.605 520.219, 206.105 520.437, 206.794 521.311 M 221.250 543.824 C 220.253 544.458, 220.258 544.970, 221.276 546.362 C 222.464 547.987, 222.715 547.932, 224.950 545.553 L 227.349 543 224.924 543.015 C 223.591 543.024, 221.938 543.388, 221.250 543.824" stroke="none" fill="black" fill-rule="evenodd"/>
</svg>