<svg xmlns="http://www.w3.org/2000/svg" width="750" height="750" viewBox="0 0 750 750" version="1.1">
	<path d="M 406 123.704 C 401.783 125.912, 399.908 127.672, 397.964 131.245 C 394.475 137.657, 394.917 137.540, 387.522 134.010 C 371.883 126.547, 353.826 131.490, 356.584 142.479 C 357.126 144.636, 356.877 145.003, 354.858 145.022 C 347.532 145.090, 339.443 152.180, 340.346 157.742 C 340.889 161.090, 339.732 163.003, 335.932 165.036 C 325.147 170.808, 331.228 179.086, 349.761 183.862 C 368.346 188.651, 376.165 191.474, 391.857 199.060 C 407.276 206.513, 408.864 206.939, 411.230 204.250 C 413.126 202.094, 438.207 164.427, 439.975 161.079 C 441.561 158.075, 439.918 156.562, 434.050 155.624 C 424.689 154.127, 421.133 146.810, 425 137 C 430.480 123.096, 420.498 116.111, 406 123.704 M 433.697 137.393 C 433.288 138.434, 433.189 139.522, 433.476 139.810 C 434.389 140.722, 435.191 139.227, 434.809 137.328 C 434.459 135.588, 434.405 135.591, 433.697 137.393 M 347.600 138.600 C 347.244 139.527, 347.178 140.511, 347.453 140.786 C 347.728 141.061, 348.244 140.527, 348.600 139.600 C 348.956 138.673, 349.022 137.689, 348.747 137.414 C 348.472 137.139, 347.956 137.673, 347.600 138.600 M 431.545 142.859 C 430.896 144.904, 431.767 148, 432.990 148 C 433.772 148, 434.961 144.574, 434.986 142.250 C 435.008 140.291, 432.202 140.788, 431.545 142.859 M 385.638 146.500 C 385.220 147.591, 385.756 148, 387.603 148 C 389.861 148, 389.976 147.833, 388.643 146.500 C 387.818 145.675, 386.934 145, 386.678 145 C 386.423 145, 385.955 145.675, 385.638 146.500 M 331.552 153.250 C 330.364 157.107, 330.074 160, 330.876 160 C 331.379 160, 331.962 158.200, 332.171 156 C 332.551 152.024, 332.288 150.860, 331.552 153.250 M 368.688 160.646 C 367.383 161.950, 368.006 163, 370.083 163 C 371.247 163, 371.992 162.476, 371.771 161.813 C 371.284 160.351, 369.614 159.719, 368.688 160.646 M 441.048 174.226 C 413.262 217.502, 414.193 216.941, 389.720 205.148 C 370.048 195.668, 355.182 190.511, 338.779 187.477 C 329.009 185.669, 321.713 177.274, 323.639 170.058 C 324.225 167.861, 324.334 166.294, 323.880 166.574 C 323.426 166.855, 322.550 168.958, 321.933 171.249 C 321.316 173.539, 319.391 177.458, 317.656 179.957 C 309.323 191.953, 315.458 204.853, 331 208.014 C 346.937 211.255, 361.908 216.561, 382.296 226.194 C 404.698 236.779, 407.804 235.025, 432.221 198 C 447.789 174.395, 448.835 172.521, 449.162 167.662 C 449.564 161.693, 448.588 162.483, 441.048 174.226 M 236.385 172.228 C 232.414 175.294, 225.489 181.631, 220.318 186.932 C 215.994 191.364, 215.994 191.364, 194.247 191.510 C 166.370 191.698, 155.047 195.195, 142.469 207.500 C 132.487 217.265, 132.205 219.320, 140.305 223.249 C 161.683 233.616, 190.401 228.369, 214.367 209.716 C 223.233 202.815, 223.233 202.815, 229.572 204.408 C 240.357 207.117, 259.069 205.675, 258.985 202.141 C 258.931 199.884, 249.337 195.222, 241.250 193.524 C 237.608 192.759, 237.227 191.885, 239.658 189.872 C 248.740 182.358, 245.548 165.152, 236.385 172.228 M 356.667 176.667 C 355.288 178.046, 356.087 179, 358.622 179 C 360.840 179, 361.053 178.768, 360 177.500 C 358.645 175.868, 357.702 175.632, 356.667 176.667 M 250.564 187.707 C 250.022 189.132, 250.136 189.247, 251.124 188.267 C 251.808 187.588, 252.115 186.781, 251.807 186.474 C 251.499 186.166, 250.940 186.721, 250.564 187.707 M 265.058 206.430 C 261.269 210.996, 242.775 213.432, 231.026 210.912 C 225.953 209.824, 225.953 209.824, 218.726 215.319 C 192.895 234.962, 157.788 239.882, 132.786 227.363 C 127.870 224.902, 126 222.599, 126 219.007 C 126 217.838, 125.550 217.160, 125 217.500 C 124.450 217.840, 124 219.451, 124 221.080 C 124 222.710, 122.895 225.721, 121.544 227.771 C 100.553 259.640, 176.807 264.399, 212.786 233.466 C 214.849 231.692, 216.606 231.500, 230.786 231.500 C 246.274 231.500, 258 228.745, 258 225.105 C 258 224.694, 260 222.271, 262.444 219.720 C 266.560 215.424, 266.880 214.709, 266.774 210.041 C 266.645 204.386, 266.685 204.470, 265.058 206.430 M 512.359 215.508 C 510.581 220.141, 516.086 230.036, 522.726 234.139 C 525.049 235.576, 525.841 236.527, 524.927 236.785 C 521.454 237.767, 508 247.595, 508 249.151 C 508 253.887, 522.631 253.230, 536.136 247.888 C 543.773 244.867, 543.773 244.867, 552.345 249.502 C 577.209 262.945, 602.737 265.368, 621.474 256.061 C 634.327 249.677, 635.733 246.671, 628.732 240.547 C 612.253 226.131, 591.187 222.490, 561 228.837 C 546.938 231.794, 546.424 231.832, 544 230.102 C 540.053 227.285, 525.946 218.820, 521 216.300 C 515.764 213.634, 513.169 213.396, 512.359 215.508 M 502.069 218 C 502.028 219.375, 500.196 223.148, 497.998 226.385 C 493.315 233.278, 492.767 238.685, 496.022 245.859 C 498.710 251.783, 498.590 252.573, 494 259.116 C 482.473 275.548, 500.562 284.512, 527.118 275.527 C 534.443 273.049, 534.443 273.049, 541.972 276.896 C 580.141 296.402, 621.940 289.967, 640.437 261.736 C 643.702 256.754, 643.345 247.232, 640.061 251.712 C 626.021 270.869, 583.631 273.073, 551 256.342 C 544.452 252.985, 541.199 252.284, 539.450 253.851 C 537.183 255.883, 525.062 258.322, 517.500 258.268 C 497.723 258.127, 492.816 247.429, 508.250 238.103 C 512.745 235.387, 512.700 235.765, 509.072 231.191 C 507.462 229.161, 505.244 224.800, 504.144 221.500 C 502.841 217.596, 502.117 216.373, 502.069 218 M 303.551 234.492 C 301.026 237.448, 298.003 240.009, 296.834 240.183 C 293.738 240.645, 286.408 249.582, 287.774 251.228 C 289.343 253.118, 286.847 256, 283.642 256 C 280.420 256, 274.754 264.164, 275.609 267.574 C 276.207 269.963, 274.542 271.658, 271.108 272.154 C 267.866 272.623, 259.886 283.693, 261.895 284.935 C 264.058 286.272, 262.187 288, 258.578 288 C 255.220 288, 249.921 296.455, 249.604 302.320 C 249.524 303.801, 248.660 304.289, 245.816 304.461 C 241.251 304.737, 237.220 307.275, 236.446 310.361 C 236.105 311.716, 234.410 313.388, 232.407 314.343 C 228.809 316.059, 226.823 319.463, 227.564 322.643 C 227.861 323.918, 226.985 325.129, 224.770 326.506 C 220.437 329.201, 219.266 332.807, 220.828 338.646 C 222.053 343.225, 218.250 350.302, 209.860 359.057 C 195.394 374.153, 194.724 378.532, 206.285 382.399 C 214.001 384.981, 215.276 384.629, 219.358 378.798 C 223 373.596, 223 373.596, 223 378.938 C 223 390.861, 233.839 403.567, 253.130 414.260 C 258.458 417.213, 276.139 424, 278.505 424 C 279.380 424, 281.959 424.900, 284.236 426 C 290.072 428.819, 289.853 428.930, 297.736 419.190 C 313.442 399.788, 321.692 392, 326.544 392 C 332.046 392, 332.548 392.883, 329.128 396.553 C 322.256 403.928, 307 428.729, 307 432.526 C 307 436.623, 312.097 434.642, 314.046 429.788 C 316.267 424.257, 325.896 408.893, 331.776 401.500 C 334.838 397.650, 337.458 394.346, 337.597 394.159 C 345.257 383.813, 338.407 408.030, 326.537 433.255 C 322.781 441.235, 322.697 443, 326.070 443 C 327.431 443, 328.802 441.410, 330.598 437.750 C 335.254 428.263, 400.728 429.807, 405.835 439.524 C 409.483 446.466, 412.409 448.705, 413.640 445.497 C 414.259 443.883, 413.330 441.931, 398.320 413.305 C 391.701 400.682, 391.531 399, 396.872 399 C 398.145 399, 406.609 409.109, 414.961 420.606 C 423.095 431.803, 430.756 440, 433.086 440 C 436.560 440, 436.136 437.853, 431.730 433.142 C 429.282 430.526, 422.800 422.336, 417.324 414.942 C 411.848 407.549, 406.722 400.823, 405.934 399.996 C 401.740 395.597, 401.725 395.333, 405.543 392.973 C 409.549 390.498, 410.481 391.118, 422.871 404.499 C 444.916 428.308, 450.970 432.964, 451.010 426.143 C 451.016 424.988, 453.170 423.806, 458.260 422.165 C 479.180 415.417, 496.276 402.784, 500.078 391.263 C 501.212 387.826, 500.977 380.876, 499.362 370.135 C 498.615 365.163, 496.335 365.293, 525.280 368.667 C 532.859 369.550, 539.309 370.024, 539.613 369.720 C 542.475 366.858, 543.515 306.888, 540.807 300.828 C 537.778 294.045, 526.846 291.069, 519.468 295.017 C 517.215 296.223, 516.713 296.106, 514.238 293.798 C 508.717 288.649, 501.971 287.496, 495.456 290.588 C 492.131 292.166, 492.088 292.154, 488.689 288.756 C 483.482 283.549, 475.610 281.883, 468.750 284.537 C 467.283 285.105, 467 284.634, 467 281.626 C 467 277.936, 467.298 277.711, 473.417 276.789 C 476.811 276.277, 476.268 274.090, 472.327 272.399 C 470.222 271.496, 467.865 270.451, 467.089 270.076 C 466.312 269.701, 464.861 265.934, 463.863 261.705 C 457.118 233.122, 429.908 233.308, 428.049 261.949 C 427.434 271.412, 429.230 270.677, 397.500 274.440 C 370.178 277.680, 349.538 273.214, 334.283 260.759 C 331.414 258.417, 326.820 254.700, 324.076 252.500 C 318.243 247.825, 318.250 247.850, 321.500 243.589 C 324.263 239.966, 324.759 237, 322.600 237 C 321.831 237, 318.967 235.497, 316.237 233.659 C 308.603 228.522, 308.654 228.519, 303.551 234.492 M 331.254 243.964 C 330.043 245.903, 330.496 249, 331.990 249 C 333.117 249, 333.791 245.754, 333.083 243.738 C 332.526 242.149, 332.377 242.167, 331.254 243.964 M 295.656 246.402 C 293.822 249.201, 294.289 249.429, 304.292 250.604 C 310.816 251.371, 310.939 251.680, 307.537 258.731 C 304.272 265.499, 304.472 265.444, 293.855 262.459 C 284.614 259.861, 284.614 259.861, 282.895 262.140 C 280.982 264.675, 283.307 266.031, 292.114 267.519 C 297.886 268.495, 298.282 269.766, 294.677 275.754 C 290.998 281.864, 290.611 281.936, 279.761 278.566 C 272.942 276.447, 264.038 279.369, 268.141 282.379 C 268.943 282.967, 279.316 285, 281.517 285 C 285.115 285, 285.402 286.638, 282.635 291.360 C 278.442 298.515, 278.166 298.599, 268.608 295.619 C 258.167 292.364, 258.642 292.335, 257.201 296.321 C 255.569 300.834, 255.468 300.668, 260.250 301.316 C 262.587 301.633, 269.225 302.576, 275 303.412 C 280.775 304.247, 292.700 305.631, 301.500 306.486 C 310.300 307.342, 320.425 308.520, 324 309.104 C 345.334 312.591, 369.676 311.285, 392.218 305.444 C 404.102 302.364, 409.562 299.789, 438.245 283.736 C 443.605 280.736, 451.255 277.232, 455.245 275.948 C 465.649 272.603, 453.952 270.514, 438.582 272.973 C 370.862 283.808, 349.616 281.070, 323.735 258.175 C 309.533 245.612, 299.053 241.218, 295.656 246.402 M 439.898 247.287 C 434.631 250.833, 432.035 258.041, 433.401 265.327 C 434.047 268.765, 434.047 268.765, 447.021 268.632 C 460.689 268.493, 460.893 268.411, 459.115 263.797 C 458.628 262.534, 457.489 258.941, 456.583 255.812 C 453.727 245.942, 447.001 242.506, 439.898 247.287 M 416.289 260.549 C 414.079 265, 414.079 265, 416.539 265 C 418.789 265, 419 264.614, 419 260.500 C 419 255.033, 419.029 255.033, 416.289 260.549 M 312.325 264.459 C 307.133 266.718, 306.129 269.290, 306.261 280 C 306.389 290.463, 304.365 296.404, 299.610 299.520 C 296.011 301.878, 291.950 299.768, 292.267 295.706 C 292.517 292.498, 291.360 291.489, 289.083 292.928 C 284.298 295.954, 288.895 303.091, 296.075 303.781 C 305.712 304.707, 311.561 295.164, 311.237 279.042 C 311.040 269.274, 312.239 267, 317.585 267 C 320.221 267, 320.923 267.440, 321.180 269.250 C 321.662 272.643, 325.409 272.285, 325.811 268.807 C 326.367 263.988, 318.925 261.588, 312.325 264.459 M 265 266.059 C 265 266.641, 265.450 266.840, 266 266.500 C 266.550 266.160, 267 265.684, 267 265.441 C 267 265.198, 266.550 265, 266 265 C 265.450 265, 265 265.477, 265 266.059 M 326.675 272.658 C 325.774 273.559, 327.926 276, 329.622 276 C 332.035 276, 331.640 277.426, 325.059 292.500 C 322.054 299.384, 320.977 303.377, 321.881 304.281 C 323.918 306.318, 325.627 303.937, 329.921 293.085 C 335.849 278.106, 335.585 278.406, 341.499 279.895 C 344.580 280.671, 346.642 280.758, 347.261 280.139 C 348.789 278.611, 347.234 277.134, 343.324 276.401 C 341.341 276.029, 337.425 274.887, 334.623 273.862 C 329.127 271.853, 327.697 271.637, 326.675 272.658 M 426.960 278.074 C 426.021 279.830, 426.169 280.231, 427.925 280.691 C 430.248 281.298, 430.645 282.572, 428.750 283.341 C 427.809 283.722, 427.871 284.110, 429 284.909 C 432.443 287.344, 437.270 284.383, 435.250 281.074 C 434.563 279.948, 434 278.346, 434 277.514 C 434 275.100, 428.310 275.553, 426.960 278.074 M 414.239 278.666 C 410.885 280.017, 410.948 290.933, 414.321 293.157 C 416.471 294.575, 418.116 292.807, 417.454 289.792 C 416.806 286.838, 416.806 286.838, 422.051 287.169 C 427.497 287.513, 430.431 285.449, 426.105 284.317 C 424.947 284.014, 424 283.170, 424 282.440 C 424 279.493, 417.971 277.162, 414.239 278.666 M 453.135 281.546 C 436.186 288.066, 435.421 289.176, 436.225 306.062 C 437.091 324.239, 436.300 323.121, 444.321 317.515 C 452.733 311.634, 468.831 304, 472.819 304 C 485.376 304, 487.090 316.339, 476.182 328.218 C 473.686 330.937, 473.686 330.937, 478.196 332.870 C 489.996 337.928, 496.549 349.164, 493.057 358.350 C 492.114 360.830, 492.114 360.830, 500.807 361.478 C 505.588 361.835, 512.875 362.543, 517 363.052 C 536.696 365.482, 534.698 365.723, 535.373 360.839 C 537.085 348.458, 537.267 305.418, 535.621 302.234 C 532.417 296.039, 525.566 295.531, 519.781 301.059 C 515.543 305.109, 514.710 304.884, 511.656 298.868 C 507.817 291.305, 497.458 291.053, 495.595 298.477 C 494.672 302.157, 491.317 301.780, 489.203 297.760 C 483.969 287.804, 473.977 284.617, 468.116 291.035 C 463.753 295.811, 462 294.337, 462 285.893 C 462 277.958, 462.203 278.058, 453.135 281.546 M 402.107 281.084 C 395.679 283.656, 400.725 299.227, 407.253 296.964 C 412.938 294.994, 414 291.402, 408.598 292.416 C 404.661 293.154, 404.042 292.465, 406.750 290.360 C 408.417 289.065, 408.417 288.935, 406.750 287.640 C 404.604 285.971, 404.496 284.131, 406.500 283.362 C 408.582 282.563, 408.387 279.986, 406.250 280.063 C 405.288 280.098, 403.423 280.558, 402.107 281.084 M 346.303 288.201 C 341.393 300.085, 339.654 305.656, 340.315 307.378 C 341.683 310.944, 343.802 308.823, 346.437 301.250 C 347.920 296.988, 349.963 291.679, 350.976 289.454 C 353.752 283.359, 353.847 281.550, 351.409 281.201 C 349.665 280.952, 348.818 282.115, 346.303 288.201 M 386.340 286.504 C 378.911 293.132, 379 293.120, 379 287.500 C 379 283.355, 378.801 283, 376.475 283 C 373.967 283, 373.952 283.052, 374.114 291.250 C 374.354 303.417, 378.938 311.926, 379.802 301.810 C 380.418 294.611, 385.198 292.042, 389.965 296.349 C 392.187 298.357, 394.653 300, 395.444 300 C 398.557 300, 398.009 297.700, 394.101 294.354 C 389.201 290.160, 389.125 289.607, 393 286.347 C 394.650 284.958, 396 283.187, 396 282.411 C 396 279.589, 392.366 281.128, 386.340 286.504 M 416.813 282.683 C 417.534 282.972, 418.397 282.936, 418.729 282.604 C 419.061 282.272, 418.471 282.036, 417.417 282.079 C 416.252 282.127, 416.015 282.364, 416.813 282.683 M 358.593 285.680 C 346.663 297.610, 352.915 312.545, 367.516 306.994 C 371.871 305.338, 369.989 303.456, 364.351 303.828 C 354.649 304.468, 355.319 288.789, 365.101 286.254 C 369.226 285.185, 369.137 283.554, 364.936 283.201 C 362.136 282.966, 360.775 283.497, 358.593 285.680 M 427.450 294.938 C 424.085 298.259, 401.261 307.801, 391.273 310.061 C 371.246 314.594, 336.483 317.271, 332.180 314.611 C 331.693 314.310, 320.541 312.924, 307.397 311.531 C 294.254 310.138, 280.885 308.620, 277.689 308.158 C 269.164 306.926, 265.218 312.299, 267.738 321.706 C 269.477 328.197, 269.517 327.806, 264.419 355 C 260.377 376.558, 270.583 386.830, 300.255 391.072 C 310.748 392.572, 310.345 392.859, 307.949 385.596 C 303.724 372.790, 303.010 325.590, 306.981 321.619 C 308.473 320.127, 311.341 321.870, 324.885 332.498 C 339.147 343.690, 339.645 343.888, 351 342.899 C 355.675 342.492, 365.834 342.123, 373.576 342.080 C 389.651 341.989, 388.614 342.490, 395.477 331.500 C 408.100 311.285, 412.255 309.971, 417.608 324.500 C 429.441 356.620, 430.614 361.839, 429.677 378.220 C 429.353 383.874, 428.782 389.787, 428.407 391.360 C 427.739 394.162, 427.793 394.206, 431.112 393.543 C 441.365 391.497, 454.042 381.654, 455.440 374.654 C 457.498 364.349, 457.897 364.765, 446.204 365.030 C 432.054 365.352, 432.664 365.476, 433.430 362.421 C 433.786 361.002, 433.409 350.315, 432.592 338.671 C 430.961 315.434, 430.078 300.989, 430.031 296.750 C 429.999 293.919, 429.113 293.296, 427.450 294.938 M 471 308.714 C 462.801 311.751, 444.101 322.896, 439.250 327.636 C 437.704 329.146, 437.669 335.114, 439.120 349.441 C 440.596 364.008, 487.500 367.092, 487.500 352.622 C 487.500 344.158, 477.848 335, 468.926 335 C 463.561 335, 463.560 332.641, 468.924 327.760 C 479.838 317.828, 481.245 304.918, 471 308.714 M 217.729 318.604 C 217.328 319.005, 217 320.023, 217 320.867 C 217 321.992, 217.296 322.104, 218.113 321.288 C 218.724 320.676, 219.053 319.658, 218.842 319.025 C 218.631 318.392, 218.130 318.203, 217.729 318.604 M 101.591 328.853 C 100.118 331.236, 98.827 345.408, 99.391 353 C 100.023 361.500, 100.023 361.500, 94.262 364.476 C 57.028 383.710, 43.870 400.276, 47.902 422.841 C 49.518 431.881, 50.241 432.443, 59.277 431.674 C 91.598 428.925, 117 402.394, 117 371.386 C 117 367.140, 117 367.140, 123.860 364.975 C 143.770 358.691, 157.114 345.214, 142.965 345.680 C 137.704 345.853, 125.375 348.085, 121.750 349.521 C 120.383 350.062, 119.999 349.698, 119.994 347.857 C 119.970 337.612, 105.446 322.615, 101.591 328.853 M 89.577 334.241 C 89.204 336.573, 87.531 340.614, 85.859 343.220 C 83.054 347.592, 79.739 361.073, 81.128 362.462 C 85.143 366.476, 89.765 358.238, 90.247 346.210 C 90.527 339.220, 91.084 332.712, 91.485 331.750 C 91.890 330.778, 91.778 330, 91.235 330 C 90.696 330, 89.950 331.908, 89.577 334.241 M 209.702 334.500 C 209.305 336.700, 207.410 340.954, 205.490 343.954 C 199.672 353.045, 200.695 356.737, 206.956 349.243 C 211.913 343.311, 211.913 343.311, 211.168 336.906 C 210.428 330.540, 210.419 330.525, 209.702 334.500 M 154.667 355.370 C 151.472 359.559, 144.271 364.221, 134.306 368.553 C 126.612 371.898, 126.612 371.898, 126.556 379.948 C 126.491 389.324, 126.499 389.328, 134.676 384.250 C 147.683 376.172, 156.878 365.495, 158.563 356.514 C 159.425 351.919, 157.689 351.408, 154.667 355.370 M 620.063 356.095 C 620.023 358.359, 619.259 360.360, 618 361.500 C 615.166 364.064, 615.516 365.363, 618.512 363.400 C 621.514 361.433, 622.464 358.358, 621.115 354.976 C 620.183 352.640, 620.123 352.704, 620.063 356.095 M 630.912 353.250 C 630.863 353.387, 630.749 355.827, 630.660 358.672 C 630.328 369.150, 624.619 372.296, 605.500 372.536 C 575.941 372.907, 574.368 393.799, 603.619 397.517 C 612.578 398.655, 614.485 398.862, 616.691 398.931 C 618.754 398.996, 618.799 399.159, 617.463 401.734 C 608.430 419.145, 621.909 436.503, 640.375 431.238 C 645.250 429.848, 645.250 429.848, 648.081 433.282 C 653.616 439.997, 666.695 443.294, 673.780 439.760 C 677.247 438.030, 679.748 438.388, 685.746 441.473 C 696.606 447.058, 710.238 440.141, 708.597 429.878 C 706.264 415.291, 708.079 394.726, 713.376 375.732 C 716.488 364.572, 716.825 364.889, 698.840 362.094 C 690.953 360.869, 682.250 359.478, 679.500 359.004 C 676.750 358.530, 670.675 357.613, 666 356.965 C 661.325 356.318, 653.562 355.161, 648.750 354.394 C 641.062 353.169, 631.165 352.534, 630.912 353.250 M 391.594 363.864 C 388.971 364.438, 388.849 364.634, 390.344 365.872 C 394.062 368.953, 390.256 376, 384.874 376 C 381.829 376, 378 372.636, 378 369.961 C 378 367.601, 377.728 367.572, 373.950 369.526 C 370.411 371.356, 370.271 372.297, 373.250 374.231 C 383.803 381.081, 399.932 381.805, 414.411 376.078 C 422.702 372.799, 401.827 361.625, 391.594 363.864 M 333.500 366.236 C 330.200 367.422, 323.270 371.587, 321.272 373.585 C 313.372 381.485, 351.802 383.068, 360.250 375.190 C 363.814 371.866, 363.769 371.688, 358.750 369.250 C 351.627 365.790, 350.910 365.709, 352.185 368.507 C 355.078 374.856, 344.261 379.380, 340.374 373.448 C 338.782 371.019, 338.807 370.753, 340.881 367.948 C 343.343 364.617, 340.098 363.865, 333.500 366.236 M 548.221 372.998 C 545.027 377.046, 539.993 377.553, 523.537 375.487 C 507.501 373.473, 509.045 372.696, 510.245 382.175 C 512.340 398.738, 498.379 414.265, 471.127 425.677 C 465.282 428.125, 459.600 430.943, 458.500 431.939 C 455.333 434.807, 452.409 436, 448.547 436 C 445.207 436, 445.006 436.174, 445.599 438.540 C 447.002 444.127, 439.545 448.537, 430.299 447.590 C 425.152 447.062, 423.851 447.224, 423.381 448.450 C 419.926 457.453, 403.646 455.422, 398.366 445.330 C 394.682 438.288, 342.154 436.684, 338.138 443.491 C 333.190 451.877, 322.976 453.471, 315.500 447.026 C 313.360 445.181, 290.672 436.456, 285.229 435.385 C 283.430 435.031, 281.737 434.383, 281.466 433.944 C 281.194 433.506, 276.366 431.722, 270.736 429.980 C 246.222 422.398, 226.767 409.471, 218.466 395.250 C 216.777 392.356, 215.253 391.469, 212.705 391.897 C 211.098 392.166, 200.365 388.676, 195.906 386.434 C 190.968 383.951, 188.062 380.450, 187.898 376.785 C 187.820 375.049, 187.613 375.268, 187.034 377.700 C 186.616 379.459, 184.820 383.164, 183.044 385.932 C 174.500 399.247, 185.168 411.895, 205.023 411.988 C 206.908 411.997, 208.045 412.941, 209.523 415.724 C 216.457 428.781, 236.528 441.841, 264 451.170 C 268.675 452.758, 275.650 455.127, 279.500 456.435 C 293.212 461.093, 304.634 465.812, 308.428 468.386 C 315.458 473.157, 321.921 472.016, 330 464.577 C 337.833 457.365, 385.052 458.282, 389.429 465.731 C 394.654 474.625, 404.105 477.502, 410.720 472.212 C 417.143 467.076, 417.498 466.929, 420.738 468.058 C 425.966 469.881, 431.430 467.699, 437.328 461.433 C 440.141 458.445, 442.953 456, 443.577 456 C 444.202 456, 446.690 454.494, 449.106 452.654 C 451.523 450.814, 455.300 448.734, 457.500 448.032 C 481.444 440.394, 507.306 416.793, 510.408 399.748 C 511.091 395.996, 511.091 395.996, 522.398 396.642 C 533.540 397.279, 540 395.868, 540 392.798 C 540 392.373, 542.250 389.765, 545 387 C 547.771 384.214, 550.052 380.976, 550.117 379.737 C 550.182 378.507, 550.354 375.813, 550.499 373.750 C 550.644 371.688, 550.703 370.025, 550.631 370.055 C 550.559 370.086, 549.474 371.410, 548.221 372.998 M 724.701 372.250 C 721.346 380.624, 717 400.467, 717 407.417 C 717 412.935, 717.735 411.557, 719.391 402.935 C 720.176 398.846, 722.008 391.277, 723.462 386.115 C 725.789 377.857, 726.746 367.148, 724.701 372.250 M 572.607 378.582 C 572.273 379.452, 572 381.026, 572 382.079 C 572 383.133, 570.367 386.268, 568.372 389.046 C 558.493 402.796, 568.755 420.409, 589 424.451 C 595.848 425.818, 595.587 425.489, 595.606 432.752 C 595.649 448.555, 608.460 460, 626.107 460 C 632.273 460, 633.673 460.367, 637.466 462.977 C 644.794 468.018, 650.156 469.309, 661.493 468.759 C 668.722 468.408, 672.611 468.672, 675.500 469.710 C 693.939 476.334, 719.080 460.047, 718.961 441.554 C 718.922 435.607, 718.898 435.555, 717.577 438.588 C 712.883 449.370, 697.995 453.969, 683.939 448.978 C 679.512 447.407, 677.646 447.184, 675.557 447.978 C 668.393 450.702, 655.393 448.338, 647.320 442.845 C 643.803 440.452, 642.126 440, 636.751 440 C 618.181 440, 605.486 429.141, 605.515 413.281 C 605.529 405.518, 605.398 405, 603.420 405 C 590.697 405, 574.224 392.279, 573.866 382.177 C 573.668 376.572, 573.530 376.177, 572.607 378.582 M 123.564 394.293 C 123.940 395.279, 124.499 395.834, 124.807 395.526 C 125.115 395.219, 124.808 394.412, 124.124 393.733 C 123.136 392.753, 123.022 392.868, 123.564 394.293 M 71 398.393 C 71 398.609, 71.698 399.054, 72.552 399.382 C 73.442 399.723, 73.843 399.555, 73.493 398.989 C 72.906 398.038, 71 397.583, 71 398.393 M 93.872 399.750 C 92.629 401.336, 92.664 401.371, 94.250 400.128 C 95.916 398.821, 96.445 398, 95.622 398 C 95.415 398, 94.627 398.788, 93.872 399.750 M 123 398.642 C 123 399.179, 122.347 400.491, 121.550 401.559 C 120.169 403.407, 120.127 403.380, 120.680 401 C 121.018 399.542, 119.498 401.210, 117.033 405 C 96.940 435.900, 44.888 452.089, 39.020 429.264 C 37.597 423.729, 37.541 410.966, 38.920 406.231 C 39.504 404.223, 39.510 403.185, 38.936 403.540 C 38.421 403.858, 38 404.654, 37.999 405.309 C 37.999 405.964, 36.603 409.425, 34.898 413 C 25.072 433.604, 26.285 454.270, 37.574 458.582 C 61.131 467.578, 121 430.105, 121 406.364 C 121 405.559, 121.708 403.531, 122.574 401.857 C 123.439 400.184, 123.889 398.556, 123.574 398.240 C 123.258 397.925, 123 398.106, 123 398.642 M 634.827 401.081 C 633.370 402.618, 633.349 402.920, 634.659 403.423 C 637.208 404.401, 638 404.077, 638 402.059 C 638 399.365, 636.804 398.997, 634.827 401.081 M 56.624 407.539 C 55.659 410.053, 55.943 410.702, 57.122 408.675 C 57.706 407.671, 57.973 406.639, 57.715 406.382 C 57.458 406.124, 56.966 406.645, 56.624 407.539 M 68 406.393 C 68 406.609, 68.698 407.054, 69.552 407.382 C 70.442 407.723, 70.843 407.555, 70.493 406.989 C 69.906 406.038, 68 405.583, 68 406.393 M 90.733 407.124 C 91.412 407.808, 92.219 408.115, 92.526 407.807 C 92.834 407.499, 92.279 406.940, 91.293 406.564 C 89.868 406.022, 89.753 406.136, 90.733 407.124 M 73.733 409.124 C 74.412 409.808, 75.219 410.115, 75.526 409.807 C 75.834 409.499, 75.279 408.940, 74.293 408.564 C 72.868 408.022, 72.753 408.136, 73.733 409.124 M 665.160 411.240 C 663.435 412.965, 663.750 414, 666 414 C 667.100 414, 668 413.352, 668 412.559 C 668 410.540, 666.539 409.861, 665.160 411.240 M 79 411.393 C 79 411.609, 79.698 412.054, 80.552 412.382 C 81.442 412.723, 81.843 412.555, 81.493 411.989 C 80.906 411.038, 79 410.583, 79 411.393 M 72 412.941 C 72 413.459, 72.445 414.157, 72.989 414.493 C 73.555 414.843, 73.723 414.442, 73.382 413.552 C 72.717 411.820, 72 411.503, 72 412.941 M 693.786 415.937 C 691.983 418.043, 692.414 419, 695.167 419 C 697.079 419, 697.525 417.374, 696.189 415.271 C 695.608 414.357, 694.993 414.527, 693.786 415.937 M 71 422 C 70.099 422.582, 69.975 422.975, 70.691 422.985 C 71.346 422.993, 72.160 422.550, 72.500 422 C 73.267 420.758, 72.921 420.758, 71 422 M 195 445.727 C 181.834 448.119, 179.208 463.662, 189.812 476.423 C 194.164 481.661, 194.309 483, 190.520 483 C 176.865 483, 162.149 496.410, 162.894 508.173 C 163.067 510.912, 168.016 516.023, 172.062 517.641 C 175.835 519.151, 175.835 519.151, 173.939 523.325 C 169.827 532.382, 175.152 545, 183.087 545 C 185.318 545, 188.453 548.291, 188.602 550.791 C 188.658 551.731, 188.778 553.625, 188.868 555 C 189.500 564.638, 206.177 570.018, 215.177 563.488 C 217.005 562.162, 220.750 559.877, 223.500 558.410 C 226.250 556.944, 229.625 554.956, 231 553.993 C 241.364 546.735, 260.925 537.995, 284 530.313 C 301.945 524.338, 303.235 529.495, 272.037 482.500 C 256.623 459.280, 254.661 457.402, 250.554 461.940 C 242.386 470.966, 228.314 468.444, 214.949 455.560 C 207.234 448.122, 201.077 444.338, 198 445.142 C 197.725 445.214, 196.375 445.477, 195 445.727 M 172.011 458.958 C 171.425 461.135, 170.560 463.154, 170.089 463.445 C 168.271 464.568, 164.997 473.174, 164.376 478.461 C 163.695 484.251, 164.188 484.911, 167.527 482.685 C 168.612 481.961, 171.412 480.818, 173.750 480.145 C 178.646 478.734, 178.728 478.458, 175.880 472.994 C 174.283 469.931, 173.776 467.205, 173.825 461.963 C 173.900 453.998, 173.517 453.365, 172.011 458.958 M 539.318 471.075 C 536.080 472.745, 529.396 477.228, 524.465 481.037 C 519.534 484.846, 514.541 488.662, 513.368 489.518 C 511.404 490.953, 510.159 490.799, 497.459 487.543 C 458.098 477.454, 440.007 479.976, 420.403 498.284 C 411.818 506.302, 411.726 506.668, 416.910 512.272 C 437.151 534.158, 475.679 534.626, 508.628 513.385 C 516.757 508.145, 516.757 508.145, 523.628 511.498 C 554.858 526.736, 570.837 518.110, 542.298 501.420 C 536.055 497.768, 536.055 497.768, 540.303 493.634 C 553.056 481.223, 552.320 464.369, 539.318 471.075 M 558.574 480.247 C 558.134 482.857, 556.246 487.531, 554.378 490.633 C 550.940 496.342, 551.026 499, 554.647 499 C 556.985 499, 560.749 483.647, 559.796 478 C 559.477 476.111, 559.178 476.660, 558.574 480.247 M 458.500 489 C 458.160 489.550, 458.332 490, 458.882 490 C 459.432 490, 460.160 489.550, 460.500 489 C 460.840 488.450, 460.668 488, 460.118 488 C 459.568 488, 458.840 488.450, 458.500 489 M 462 489 C 462 489.550, 462.423 490, 462.941 490 C 463.459 490, 464.160 489.550, 464.500 489 C 464.840 488.450, 464.416 488, 463.559 488 C 462.702 488, 462 488.450, 462 489 M 466 489 C 466 489.550, 467.462 489.968, 469.250 489.930 C 471.974 489.871, 472.176 489.720, 470.500 489 C 467.737 487.813, 466 487.813, 466 489 M 456.195 491.500 C 456.215 493.150, 456.439 493.704, 456.693 492.731 C 456.947 491.758, 456.930 490.408, 456.656 489.731 C 456.382 489.054, 456.175 489.850, 456.195 491.500 M 446.233 494.500 C 446.235 496.150, 446.580 498.850, 447 500.500 C 448.058 504.659, 448.105 500.566, 447.057 495.500 C 446.362 492.137, 446.231 491.978, 446.233 494.500 M 199.015 494.750 C 199.066 497.231, 200.770 498.161, 202.866 496.852 C 205.833 494.999, 205.530 494, 202 494 C 200.350 494, 199.007 494.337, 199.015 494.750 M 151.545 502.500 C 151.072 504.150, 149.181 508.350, 147.343 511.833 C 141.754 522.421, 142.971 533.987, 150.403 540.924 C 152.684 543.054, 153.003 544.148, 153.022 549.924 C 153.056 560.064, 156.309 565.884, 165.096 571.523 C 167.813 573.266, 169.009 574.962, 169.986 578.451 C 174.918 596.064, 199.173 601.150, 217.252 588.362 C 219.866 586.513, 222.220 585, 222.483 585 C 222.746 585, 225.332 583.483, 228.231 581.630 C 243.808 571.667, 254.060 567.004, 278 558.992 C 295.481 553.142, 300.877 549.491, 306.715 539.565 C 309.478 534.867, 308.312 527.343, 305.250 530.111 C 301.735 533.287, 300.025 534.043, 285.500 538.842 C 263.402 546.143, 254.009 550.316, 238.692 559.639 C 233.848 562.588, 229.563 565, 229.170 565 C 228.777 565, 226.891 566.264, 224.978 567.810 C 208.396 581.206, 183.617 575.552, 178.723 557.255 C 178.015 554.608, 176.868 552.775, 175.683 552.399 C 167.945 549.944, 161.512 538.816, 162.405 529.431 C 162.962 523.573, 162.879 523.287, 160.008 521.164 C 155.752 518.017, 153.634 513.450, 152.977 506 C 152.471 500.260, 152.303 499.851, 151.545 502.500 M 435.083 500.356 C 435.313 500.552, 437.075 501.002, 439 501.355 C 441.462 501.807, 442.055 501.706, 441 501.014 C 439.644 500.125, 434.092 499.508, 435.083 500.356 M 443 503.941 C 443 504.459, 443.445 505.157, 443.989 505.493 C 444.555 505.843, 444.723 505.442, 444.382 504.552 C 443.717 502.820, 443 502.503, 443 503.941 M 423 506.871 C 423 507.953, 426.904 511.390, 430.500 513.473 C 433.500 515.211, 433.500 515.211, 430.500 512.866 C 428.850 511.577, 426.488 509.525, 425.250 508.306 C 424.012 507.088, 423 506.442, 423 506.871 M 401.596 509.474 C 401.254 510.835, 399.854 513.600, 398.484 515.618 C 391.126 526.461, 394.657 536.020, 409.491 545.422 C 437.473 563.156, 474.523 561.550, 505.160 541.275 C 508.982 538.746, 508.982 538.746, 513.815 540.825 C 526.738 546.385, 537.095 548.371, 545.760 546.952 C 548.917 546.435, 551.881 546.009, 552.347 546.006 C 555.421 545.985, 566.975 532.469, 568.058 527.629 C 569.385 521.699, 568.984 516.047, 567.482 519.500 C 563.489 528.679, 542.859 529.397, 524.345 521.002 C 517.649 517.966, 517.649 517.966, 514.075 520.330 C 476.360 545.269, 416.285 540.162, 404.627 511.026 C 402.744 506.321, 402.428 506.159, 401.596 509.474 M 430.500 509 C 430.840 509.550, 431.316 510, 431.559 510 C 431.802 510, 432 509.550, 432 509 C 432 508.450, 431.523 508, 430.941 508 C 430.359 508, 430.160 508.450, 430.500 509 M 434.733 512.124 C 435.412 512.808, 436.219 513.115, 436.526 512.807 C 436.834 512.499, 436.279 511.940, 435.293 511.564 C 433.868 511.022, 433.753 511.136, 434.733 512.124 M 206.794 521.311 C 207.309 521.965, 207.918 523.102, 208.145 523.839 C 208.458 524.851, 209.162 524.676, 211.030 523.122 C 212.388 521.992, 213.050 521.021, 212.500 520.964 C 211.950 520.908, 210.230 520.695, 208.678 520.492 C 206.605 520.219, 206.105 520.437, 206.794 521.311 M 221.250 543.824 C 220.253 544.458, 220.258 544.970, 221.276 546.362 C 222.464 547.987, 222.715 547.932, 224.950 545.553 C 227.464 542.877, 224.744 541.606, 221.250 543.824" stroke="none" fill="black" fill-rule="evenodd"/>
</svg>