<svg xmlns="http://www.w3.org/2000/svg" width="700" height="700" viewBox="0 0 700 700" version="1.1">
	<path d="M 56.071 7.591 C 35.316 13.171, 31.301 25.988, 41.222 55 C 56.045 98.347, 58.627 115.353, 51.586 123.255 C 36.394 140.307, 33.782 155.696, 42.516 176.716 C 44.523 181.547, 47.423 189.134, 48.961 193.577 C 51.933 202.166, 55.730 208.973, 58.770 211.164 C 59.789 211.899, 61.860 215.875, 63.372 220 C 64.884 224.125, 68.772 232.560, 72.014 238.744 C 77.907 249.988, 77.907 249.988, 75.827 258.212 C 66.625 294.599, 90.530 315.627, 128.460 304.513 C 137.421 301.887, 137.421 301.887, 146.460 304.855 C 164.009 310.616, 183.240 313.427, 200.575 312.766 C 212.334 312.317, 214.818 312.503, 219.178 314.160 C 246.266 324.452, 266.019 314.243, 268.704 288.562 C 269.247 283.363, 269.948 281.836, 274.218 276.553 C 279.327 270.230, 288.998 254.368, 288.999 252.307 C 289 251.652, 291.329 252.649, 294.175 254.523 C 303.793 260.858, 314.934 261.223, 323.997 255.502 C 329.681 251.914, 332.644 246.895, 336.573 234.201 C 336.826 233.383, 338.146 234.236, 340.136 236.502 C 341.874 238.482, 344.543 240.746, 346.066 241.534 C 347.588 242.321, 350.525 245.786, 352.592 249.233 C 354.659 252.680, 358.275 258.065, 360.628 261.199 C 364.905 266.898, 364.905 266.898, 363.911 273.069 C 358.119 309.037, 388.682 327.760, 424.818 310.379 C 432.379 306.743, 432.379 306.743, 441.939 308.454 C 456.186 311.004, 483.702 310.726, 497.271 307.895 C 509.413 305.362, 507.623 305.396, 517.449 307.515 C 541.853 312.776, 562.760 296.890, 559.555 275.519 C 558.997 271.800, 559.347 270.687, 562.570 265.907 C 569.393 255.786, 578 236.293, 578 230.961 C 578 229.462, 578.503 229.527, 582.478 231.539 C 628.697 254.938, 634.779 190.487, 591.763 133.146 C 583.520 122.158, 582.565 120.342, 574.851 101 C 548.158 34.065, 514.400 6.871, 461 9.288 C 406.522 11.754, 372.718 39.633, 356.548 95.430 C 354.226 103.444, 353.218 105.235, 346.156 113.902 C 335.517 126.958, 328.027 137.237, 322.402 146.502 C 316.239 156.655, 315.459 155.218, 308.416 120.735 C 301.268 85.742, 298.590 77.979, 287.478 60.039 C 253.288 4.842, 169.246 -6.029, 123.349 38.809 C 117.198 44.818, 117.198 44.818, 112.182 36.609 C 98.204 13.736, 75.976 2.240, 56.071 7.591 M 450.500 47.008 C 419.108 51.772, 400.852 71.170, 389.895 111.404 C 386.600 123.504, 386.321 123.966, 370.848 142.995 C 345.986 173.571, 345.999 173.513, 358.427 195.401 C 365.881 208.528, 367.334 210.486, 371.007 212.351 C 374.237 213.992, 375.947 215.908, 378.705 220.980 C 383.313 229.451, 387.203 235.112, 393.495 242.500 C 403.550 254.308, 404.758 258.220, 401.916 269.795 C 400.030 277.472, 399.576 281, 400.471 281 C 401.659 281, 411.976 276.040, 415.770 273.645 C 422.960 269.106, 428.307 268.528, 440.196 271 C 455.973 274.282, 483.237 274.026, 497.751 270.461 C 508.181 267.899, 512.388 267.909, 519.169 270.511 C 520.573 271.050, 520.833 270.429, 520.833 266.541 C 520.833 261.073, 523.312 255.915, 529.985 247.500 C 543.019 231.063, 547.256 210.857, 542.084 189.795 C 537.613 171.584, 550.511 157.876, 566.399 163.955 C 568.725 164.845, 569.107 164.811, 568.333 163.782 C 567.802 163.077, 564.456 158.675, 560.898 154 C 551.693 141.907, 551.963 142.428, 541.996 117.491 C 518.271 58.128, 495.059 40.247, 450.500 47.008 M 180.500 48.954 C 162.821 51.030, 145.881 65.007, 130.663 90.072 C 118.439 110.207, 98.648 105.810, 92.073 81.500 C 89.976 73.747, 81.335 54.332, 80.398 55.269 C 80.143 55.524, 81.279 60.405, 82.922 66.116 C 97.363 116.304, 97.112 129.598, 81.407 146.292 C 72.998 155.231, 72.942 155.456, 76.927 164.337 C 78.537 167.925, 80.669 173.445, 81.664 176.604 C 83.035 180.952, 84.224 182.789, 86.556 184.166 C 89.366 185.824, 94 193.100, 94 195.856 C 94 200.713, 102.336 218.903, 110.565 232 C 118.600 244.788, 119.247 251.115, 113.542 261.096 C 107.572 271.539, 110.593 272.936, 125.917 266.820 C 136.089 262.760, 140.573 262.855, 150.792 267.349 C 165.906 273.994, 181.563 276.603, 200.052 275.556 C 217.991 274.540, 220.480 274.677, 225.628 276.953 C 228.172 278.079, 230.382 279, 230.539 279 C 230.696 279, 231.127 277.087, 231.497 274.750 C 232.477 268.560, 235.463 263.229, 241.437 257 C 256.234 241.571, 260.221 231.946, 260.677 210.552 C 261.192 186.316, 272.153 175.445, 288.069 183.385 C 289.850 184.273, 291.448 185, 291.620 185 C 291.792 185, 289.023 179.037, 285.466 171.750 C 279.034 158.571, 278.970 158.353, 273.440 131.063 C 260.182 65.632, 234.169 42.650, 180.500 48.954" stroke="none" fill="black" fill-rule="evenodd"/>
</svg>