<svg xmlns="http://www.w3.org/2000/svg" width="750" height="750" viewBox="0 0 750 750" version="1.1">
	<path d="M 408.637 122.408 C 403.673 124.251, 399.605 128.182, 397.061 133.593 L 395.042 137.889 387.271 134.266 C 380.887 131.289, 378.340 130.638, 373 130.616 C 364.423 130.581, 358.329 133.727, 357.402 138.670 C 357.060 140.493, 357.021 142.611, 357.314 143.377 C 357.697 144.373, 356.677 144.956, 353.720 145.429 C 345.270 146.780, 339.407 152.785, 340.620 158.848 C 341.153 161.514, 340.785 162.111, 337.229 164.356 C 332.918 167.077, 330.811 171.256, 332.054 174.617 C 333.125 177.511, 337.446 180.731, 341.297 181.505 C 346.610 182.573, 366.095 188.015, 372.500 190.220 C 375.800 191.356, 385.114 195.429, 393.198 199.270 C 401.281 203.111, 408.517 206.015, 409.277 205.724 C 410.669 205.190, 439.096 163.046, 440.313 159.712 C 441.016 157.789, 440.885 157.710, 434.170 155.989 C 428.329 154.493, 422.907 149.451, 422.792 145.410 C 422.744 143.711, 423.745 139.422, 425.015 135.878 C 427.574 128.743, 427.284 125.247, 423.961 123.194 C 420.709 121.184, 412.998 120.788, 408.637 122.408 M 385.459 146.067 C 384.665 147.352, 384.860 147.555, 387.750 148.443 C 390.197 149.195, 390.707 148.107, 388.800 146.200 C 387.318 144.718, 386.317 144.678, 385.459 146.067 M 331.158 158 C 331.158 159.375, 331.385 159.938, 331.662 159.250 C 331.940 158.563, 331.940 157.438, 331.662 156.750 C 331.385 156.063, 331.158 156.625, 331.158 158 M 368 161.500 C 366.937 162.781, 367.229 163, 370 163 C 372.771 163, 373.063 162.781, 372 161.500 C 371.315 160.675, 370.415 160, 370 160 C 369.585 160, 368.685 160.675, 368 161.500 M 235.500 173.176 C 233.300 174.956, 227.982 179.806, 223.682 183.956 L 215.864 191.500 195.182 191.576 C 178.358 191.638, 173.381 191.987, 168.500 193.445 C 154.860 197.519, 143.710 204.896, 136.826 214.398 C 133.479 219.019, 134.044 220.236, 140.957 223.301 C 157.768 230.753, 182.127 229.087, 200 219.261 C 204.448 216.816, 213.421 210.508, 219.776 205.358 L 223.053 202.703 230.555 204.352 C 242.671 207.014, 253.802 206.246, 257.866 202.467 C 259.824 200.646, 256.021 198.389, 245.434 195.089 L 236.899 192.428 239.456 189.464 C 243.467 184.814, 245.493 178.566, 244.411 174.185 C 243.208 169.320, 240.628 169.028, 235.500 173.176 M 321.662 176.599 C 320.232 188.589, 326.512 196.281, 340 199.060 C 356.360 202.431, 370.965 207.575, 389.293 216.424 C 395.457 219.400, 402.075 222.241, 404 222.738 C 408.570 223.916, 413.708 222.764, 416.371 219.964 C 417.542 218.732, 417.938 218.038, 417.250 218.421 C 415.435 219.433, 415.712 216.976, 417.655 214.829 C 419.502 212.787, 418.150 212.291, 416.078 214.250 C 414.984 215.284, 414.969 215.086, 415.991 213.104 C 417.160 210.837, 417.099 210.752, 414.863 211.531 C 409.155 213.522, 403.732 212.387, 392.500 206.850 C 372.275 196.881, 364.814 194.188, 340.457 188.063 C 336.583 187.089, 332.533 185.815, 331.457 185.232 C 327.623 183.156, 323.691 178.041, 323.044 174.287 C 322.411 170.621, 322.367 170.694, 321.662 176.599 M 356.667 176.667 C 355.224 178.110, 356.141 179, 359.071 179 C 361.802 179, 361.976 178.833, 360.643 177.500 C 359.025 175.882, 357.724 175.609, 356.667 176.667 M 261.450 208.879 C 258.078 212, 237.122 213.410, 229.108 211.055 C 225.055 209.864, 223.802 210.442, 224.202 213.318 C 224.430 214.955, 222.854 216.697, 217.500 220.729 C 213.650 223.628, 210.050 225.985, 209.500 225.968 C 208.950 225.951, 209.287 225.339, 210.250 224.608 C 211.213 223.877, 212 222.802, 212 222.218 C 212 221.635, 208.512 222.879, 204.250 224.984 C 193.435 230.323, 185.576 232.702, 173.963 234.151 C 154.119 236.628, 132.893 231.328, 126.075 222.195 L 124.063 219.500 124.032 225.554 C 124.003 231.100, 124.275 231.874, 127.276 234.783 C 134.776 242.052, 149.163 245.535, 168.300 244.713 C 187.788 243.876, 201.711 238.834, 217.752 226.802 C 222.491 223.248, 226.083 221.224, 227 221.590 C 227.825 221.919, 233.045 222.432, 238.599 222.730 C 249.556 223.318, 256.530 222.180, 261.866 218.935 C 264.601 217.272, 264.910 216.700, 263.997 214.995 C 263.273 213.641, 263.262 213, 263.965 213 C 264.534 213, 265 212.534, 265 211.965 C 265 211.294, 264.207 211.346, 262.750 212.110 C 260.567 213.256, 260.552 213.233, 262.250 211.317 C 263.212 210.231, 264 209.040, 264 208.671 C 264 207.722, 262.575 207.838, 261.450 208.879 M 512.667 214.667 C 509.939 217.394, 514.972 227.809, 521.502 232.948 L 525.883 236.397 520.415 239.448 C 513.350 243.391, 508 247.715, 508 249.481 C 508 251.309, 515.558 252.447, 522.340 251.640 C 527.934 250.975, 536.800 248.016, 540.536 245.568 C 542.721 244.137, 543.252 244.250, 548.687 247.306 C 563.055 255.387, 574.950 259.648, 585.822 260.608 C 590.045 260.981, 594.084 261.364, 594.797 261.459 C 597.108 261.766, 609.375 260.101, 614 258.852 C 622.687 256.506, 633 249.527, 633 245.993 C 633 243.527, 624.813 236.959, 616.500 232.755 C 601.016 224.926, 586.538 223.928, 561.742 228.982 L 546.433 232.103 538.967 227.222 C 529.364 220.944, 516.668 214, 514.794 214 C 513.990 214, 513.033 214.300, 512.667 214.667 M 218.808 220.818 C 216.227 222.843, 214.096 225.175, 214.073 226 C 214.039 227.201, 214.199 227.234, 214.877 226.165 C 215.343 225.430, 216.082 224.961, 216.520 225.123 C 217.789 225.591, 223.821 220.675, 224.341 218.750 C 225.001 216.301, 224.166 216.613, 218.808 220.818 M 215.079 219.583 C 215.127 220.748, 215.364 220.985, 215.683 220.188 C 215.972 219.466, 215.936 218.603, 215.604 218.271 C 215.272 217.939, 215.036 218.529, 215.079 219.583 M 501.648 222.654 C 501.108 226.679, 501.416 229.036, 503.050 233.404 C 504.202 236.482, 505.352 239, 505.607 239 C 505.990 239, 510.392 236.418, 511.927 235.292 C 512.162 235.120, 511.201 233.746, 509.791 232.240 C 507.019 229.276, 504.101 224.007, 503.018 220.006 C 502.461 217.948, 502.216 218.421, 501.648 222.654 M 206.089 226.392 C 205.454 227.158, 203.584 228.344, 201.935 229.027 C 200.285 229.710, 199.132 230.465, 199.371 230.704 C 200.068 231.402, 208 227.059, 208 225.980 C 208 224.633, 207.451 224.752, 206.089 226.392 M 303.538 234.952 C 301.074 238.062, 298.702 240.015, 297.160 240.202 C 293.847 240.604, 286.173 249.573, 287.773 251.173 C 289.451 252.851, 287.407 256, 284.639 256 C 282.276 256, 279.600 258.401, 276.461 263.335 C 274.963 265.691, 274.892 266.315, 276.039 267.024 C 277.176 267.727, 277.090 268.243, 275.555 269.939 C 274.529 271.073, 272.972 272.014, 272.095 272.032 C 269.836 272.077, 267.919 273.799, 263.998 279.310 C 261.485 282.841, 260.906 284.324, 261.821 284.890 C 264.108 286.303, 262.061 288.789, 258.733 288.640 C 255.885 288.513, 255.343 289.006, 252.841 294 C 251.325 297.025, 250.179 300.623, 250.293 301.996 C 250.483 304.290, 250.083 304.544, 245.351 305.125 C 239.104 305.892, 238.139 306.439, 236.608 310.080 C 235.952 311.642, 233.859 313.965, 231.957 315.242 C 229.194 317.098, 228.437 318.322, 228.186 321.338 C 227.985 323.760, 227.268 325.335, 226.186 325.736 C 224.024 326.538, 221.237 329.678, 220.429 332.224 C 220.082 333.316, 220.350 336.180, 221.025 338.589 C 222.098 342.420, 222.028 343.314, 220.468 345.734 C 218.764 348.377, 206.198 363.957, 204.929 365 C 202.966 366.612, 198 374.587, 198 376.127 C 198 378.347, 200.879 380.278, 207.454 382.466 C 213.902 384.612, 215.871 383.965, 219.500 378.508 L 222.500 373.996 223.197 380.070 C 224.067 387.648, 227.453 393.640, 235.122 401.175 C 244.471 410.361, 261.543 419.300, 277.973 423.612 C 281.563 424.554, 285.255 425.967, 286.178 426.752 C 288.713 428.909, 291.018 427.539, 296.330 420.720 C 301.690 413.839, 312.224 401.792, 318.625 395.222 C 322.608 391.134, 322.987 390.973, 327.147 391.611 C 329.541 391.978, 331.650 392.403, 331.833 392.555 C 332.016 392.708, 329.937 395.682, 327.214 399.166 C 318.867 409.842, 307.008 429.549, 307.002 432.750 C 307.001 433.438, 308.057 434, 309.348 434 C 311.143 434, 312.144 433.003, 313.598 429.765 C 316.281 423.791, 325.151 409.802, 331.678 401.250 C 336.802 394.537, 339.938 392.473, 341.407 394.849 C 342.236 396.191, 334.497 416.728, 327.645 431.367 C 325.105 436.794, 323.272 441.632, 323.572 442.117 C 325.033 444.480, 327.737 442.687, 330.158 437.750 L 332.733 432.500 367.444 432.500 L 402.154 432.500 406.018 439.500 C 408.901 444.723, 410.341 446.412, 411.691 446.155 C 415.132 445.499, 416.155 448.010, 399.492 416.196 C 395.371 408.328, 392 401.701, 392 401.469 C 392 401.236, 393.144 400.296, 394.543 399.380 C 396.943 397.808, 397.181 397.821, 398.793 399.616 C 402.154 403.361, 406.537 408.659, 408.668 411.555 C 409.860 413.175, 413.601 418.254, 416.981 422.841 C 425.130 433.901, 430.848 440, 433.068 440 C 436.592 440, 436.061 437.944, 431.198 432.752 C 428.493 429.863, 422.319 422.124, 417.479 415.553 C 412.638 408.982, 406.963 401.745, 404.867 399.471 L 401.056 395.337 405.114 393.056 L 409.173 390.775 412.834 394.137 C 414.848 395.987, 420.301 401.550, 424.953 406.500 C 439.265 421.732, 446.309 428.100, 448.500 427.786 C 449.645 427.622, 450.396 426.846, 450.257 425.970 C 450.084 424.884, 451.826 423.910, 456.257 422.616 C 475.230 417.077, 493.268 404.921, 498.721 394 C 500.652 390.133, 500.943 382.461, 499.551 372.147 L 498.694 365.795 507.597 366.469 C 512.494 366.839, 518.975 367.535, 522 368.016 C 525.025 368.496, 530.175 369.027, 533.444 369.195 L 539.388 369.500 540.270 366 C 540.756 364.075, 541.398 349.531, 541.697 333.680 C 542.292 302.120, 541.964 299.780, 536.366 295.650 C 533.241 293.345, 523.531 293.134, 519.431 295.282 C 516.785 296.669, 516.488 296.619, 514.828 294.509 C 510.661 289.211, 502.190 287.589, 495.773 290.861 L 492.123 292.722 488.826 289.320 C 484.611 284.972, 477.001 282.566, 472 284 C 467.030 285.425, 467 285.408, 467 281.057 C 467 277.134, 467.021 277.114, 471.250 276.807 C 477.211 276.376, 476.857 274.012, 470.489 271.722 L 465.477 269.921 463.817 262.617 C 460.350 247.360, 455.311 241.571, 445.500 241.571 C 441.574 241.571, 439.329 242.193, 436.599 244.036 C 430.682 248.031, 428.736 252.223, 428.220 262.088 L 427.771 270.676 411.135 273.088 C 399.239 274.813, 390.512 275.470, 380.500 275.394 C 357.507 275.221, 345.966 270.912, 327.535 255.620 L 318.037 247.740 321.019 243.976 C 322.658 241.906, 324 239.722, 324 239.123 C 324 238.524, 321.834 236.936, 319.187 235.595 C 316.540 234.253, 313.785 232.446, 313.065 231.578 C 310.661 228.681, 307.665 229.742, 303.538 234.952 M 582 230.630 C 568.463 232.569, 545.386 237.281, 544.348 238.318 C 543.800 238.867, 555.946 245.669, 564.068 249.361 C 571.873 252.909, 583.588 256, 589.230 256 L 594 256 594 252.375 C 594 248.813, 593.943 248.762, 590.750 249.426 C 579.289 251.811, 570.330 250.738, 567.457 246.636 C 565.424 243.733, 565.625 242.284, 568.455 239.455 C 570.594 237.315, 571.810 237, 577.920 237 C 581.775 237, 587.014 237.707, 589.560 238.572 C 592.106 239.436, 594.321 239.999, 594.481 239.822 C 594.641 239.645, 595.077 237.651, 595.450 235.391 L 596.128 231.282 592.314 230.652 C 588.408 230.007, 586.384 230.003, 582 230.630 M 602.620 236.750 C 602.315 238.813, 601.772 243.988, 601.415 248.250 C 600.802 255.564, 600.878 256, 602.777 256 C 606.794 256, 617.771 251.948, 621.945 248.925 L 626.219 245.829 622.860 242.913 C 619.564 240.052, 606.313 233, 604.233 233 C 603.652 233, 602.926 234.688, 602.620 236.750 M 307.045 237.671 L 304.944 240.341 309.539 242.671 C 312.067 243.952, 314.277 245, 314.452 245 C 314.627 245, 315.477 243.922, 316.340 242.603 C 317.864 240.278, 317.793 240.129, 313.977 237.603 C 311.813 236.172, 309.841 235, 309.594 235 C 309.347 235, 308.200 236.202, 307.045 237.671 M 608.200 242.200 C 606.516 243.884, 606.704 245.422, 608.829 247.345 C 611.314 249.595, 614.306 249.425, 616.586 246.905 C 618.455 244.840, 618.449 244.782, 616.131 242.905 C 613.457 240.740, 609.970 240.430, 608.200 242.200 M 295.985 245.516 C 294.706 246.878, 293.925 248.258, 294.250 248.584 C 295.160 249.493, 302.124 250.949, 305.691 250.976 C 307.446 250.989, 309.133 251.406, 309.440 251.903 C 310.111 252.989, 305.610 263.005, 304.005 263.997 C 303.383 264.382, 298.797 263.565, 293.816 262.183 L 284.758 259.669 282.928 262.085 L 281.099 264.500 284.799 265.632 C 286.835 266.255, 290.413 267.286, 292.750 267.922 C 295.087 268.559, 297 269.530, 297 270.080 C 297 271.753, 293.249 278.549, 291.545 279.963 C 290.194 281.084, 288.523 280.866, 280.879 278.572 C 275.894 277.076, 271.711 275.998, 271.584 276.176 C 271.456 276.354, 270.394 277.890, 269.223 279.589 L 267.093 282.678 272.123 283.839 C 274.889 284.478, 278.356 285.007, 279.826 285.015 C 284.695 285.043, 285.381 286.249, 283.003 290.600 C 281.831 292.745, 279.986 295.259, 278.904 296.186 C 276.825 297.968, 274.806 297.633, 262.717 293.503 L 258.933 292.211 256.936 296.125 C 255.405 299.126, 255.239 300.155, 256.226 300.533 C 258.659 301.467, 283.520 304.969, 298.500 306.489 C 306.750 307.326, 316.650 308.453, 320.500 308.995 C 344.253 312.335, 361.060 312.343, 376.500 309.021 C 378.700 308.548, 383.200 307.625, 386.500 306.971 C 399.499 304.392, 417.324 296.765, 431.991 287.506 C 438.224 283.571, 449.405 278.231, 455.064 276.486 C 463.676 273.831, 463.792 273.756, 460.500 272.961 C 453.009 271.152, 442.149 271.969, 412 276.611 C 404.274 277.801, 394.428 278.401, 382 278.441 C 361.454 278.507, 353.844 277.084, 342.135 270.990 C 336.891 268.261, 333.548 265.790, 318.202 253.298 C 312.693 248.814, 305.373 244.736, 300.906 243.663 C 298.934 243.190, 297.752 243.635, 295.985 245.516 M 440.425 246.142 C 439.284 246.696, 437.130 249.028, 435.639 251.325 C 433.243 255.015, 432.961 256.313, 433.214 262.500 C 433.371 266.350, 433.837 269.387, 434.250 269.250 C 434.663 269.113, 440.625 269, 447.500 269 C 458.425 269, 460 268.793, 460 267.358 C 460 264.439, 455.849 251.677, 454.150 249.373 C 451.130 245.280, 445.119 243.865, 440.425 246.142 M 497.766 254.584 C 497.512 257.288, 497.798 260.608, 498.402 261.963 C 502.154 270.377, 518.450 272.353, 535.515 266.463 L 542.704 263.981 553.152 268.972 C 567.189 275.678, 576.654 278.066, 591.760 278.715 C 602.035 279.157, 605.515 278.895, 613.260 277.101 C 628.300 273.616, 638.525 266.629, 640.948 258.182 C 641.608 255.881, 641.556 255.156, 640.766 255.645 C 640.056 256.083, 639.884 255.744, 640.286 254.697 C 640.687 253.653, 639.221 254.269, 636.206 256.414 C 627.159 262.848, 618.099 266.233, 606.500 267.512 C 603.200 267.876, 599.556 268.317, 598.403 268.493 C 595.522 268.932, 580.491 267.269, 575 265.905 C 567.926 264.146, 557.077 259.946, 550.209 256.306 L 543.918 252.972 536.209 255.687 C 529.810 257.941, 526.801 258.404, 518.500 258.413 C 507.299 258.425, 502.615 256.897, 499.842 252.328 L 498.228 249.668 497.766 254.584 M 292.980 255.524 C 291.471 257.342, 291.438 257.312, 296.500 258.805 C 299.965 259.828, 300.667 259.760, 301.750 258.302 C 302.438 257.376, 303 256.029, 303 255.309 C 303 253.395, 294.597 253.576, 292.980 255.524 M 636.234 259.083 C 634.438 260.687, 633.313 261.986, 633.734 261.968 C 634.766 261.926, 640.327 256.994, 639.865 256.531 C 639.663 256.330, 638.029 257.478, 636.234 259.083 M 417.553 260.645 C 417.187 262.105, 417.362 263.762, 417.945 264.345 C 418.685 265.085, 419 264.296, 419 261.700 C 419 257.345, 418.477 256.963, 417.553 260.645 M 314.047 264.245 C 308.034 265.842, 306.977 268.041, 307.089 278.722 C 307.178 287.166, 306.898 288.707, 304.344 293.813 C 300.026 302.447, 292.943 303.773, 292.182 296.089 C 291.758 291.801, 288.632 292.171, 288.201 296.559 C 287.837 300.270, 290.120 302.585, 295 303.455 C 300.129 304.369, 304.909 301.411, 308 295.410 C 310.125 291.283, 310.513 289.124, 310.588 281.015 C 310.636 275.768, 311.185 270.523, 311.808 269.360 C 313.799 265.639, 322 265.444, 322 269.117 C 322 270.333, 322.708 271, 324 271 C 325.290 271, 326 270.333, 326 269.122 C 326 265.313, 319.702 262.743, 314.047 264.245 M 280.624 271.126 C 279.731 272.169, 279 273.184, 279 273.381 C 279 273.579, 281.088 274.325, 283.640 275.039 C 287.877 276.226, 288.398 276.176, 289.644 274.473 C 291.284 272.229, 290.633 271.491, 285.874 270.208 C 282.801 269.379, 282 269.519, 280.624 271.126 M 327.473 273.044 C 326.713 274.274, 328.590 275.958, 330.750 275.985 C 332.574 276.007, 332.808 275.266, 325.545 292.500 C 322.486 299.759, 322 301.206, 322 303.047 C 322 305.478, 324.858 305.638, 325.623 303.250 C 325.932 302.288, 328.280 296.191, 330.842 289.702 C 335.276 278.473, 335.620 277.932, 338 278.472 C 339.375 278.784, 342.188 279.315, 344.250 279.652 C 349.519 280.511, 349.116 278.363, 343.750 276.989 C 339.491 275.898, 332.942 273.801, 329.851 272.538 C 328.944 272.167, 327.874 272.395, 327.473 273.044 M 428.578 277.319 C 426.572 278.786, 427.162 281, 429.559 281 C 431.329 281, 431.463 282.645, 429.750 283.341 C 427.793 284.135, 430.814 285.861, 433.111 285.261 C 435.004 284.766, 435.744 281.077, 434.250 279.583 C 433.837 279.171, 433.500 278.314, 433.500 277.680 C 433.500 275.958, 430.719 275.754, 428.578 277.319 M 413.027 280.468 C 411.123 282.762, 412.850 292.355, 415.250 292.813 C 416.610 293.072, 417 292.461, 417 290.073 C 417 287.015, 417.026 287, 422.500 287 C 425.525 287, 428 286.550, 428 286 C 428 285.450, 427.125 285, 426.055 285 C 424.917 285, 423.564 283.858, 422.797 282.250 C 421.784 280.124, 420.673 279.432, 417.907 279.199 C 415.579 279.004, 413.874 279.447, 413.027 280.468 M 452.987 281.302 C 449.955 282.511, 444.629 285.046, 441.152 286.935 L 434.830 290.370 435.458 302.935 C 435.804 309.846, 436.325 317.149, 436.617 319.165 L 437.147 322.829 446.712 316.434 C 458.171 308.772, 470.783 303.549, 475.629 304.458 C 483.303 305.898, 485.372 315.075, 479.890 323.352 C 478.180 325.934, 475.930 328.502, 474.890 329.059 C 471.990 330.611, 472.565 331.376, 478.105 333.344 C 488.621 337.079, 495.614 348.125, 493.038 356.934 C 492.486 358.822, 492.222 360.556, 492.452 360.786 C 492.682 361.016, 497.287 361.564, 502.685 362.004 C 508.083 362.444, 517.332 363.378, 523.238 364.080 C 529.144 364.783, 534.253 365.080, 534.591 364.742 C 536.997 362.336, 538.169 306.660, 535.918 301.719 C 533.472 296.350, 524.533 295.675, 519.986 300.515 C 516.900 303.800, 514.217 303.700, 512.906 300.252 C 511.379 296.238, 509.144 294.134, 505.269 293.064 C 500.754 291.817, 497.552 293.317, 495.501 297.639 C 493.428 302.008, 491.498 301.891, 489.118 297.250 C 484.082 287.429, 473.274 284.022, 468.085 290.619 C 466.943 292.071, 465.315 293.016, 464.292 292.821 C 462.817 292.540, 462.448 291.286, 462.204 285.740 C 461.862 277.936, 461.664 277.841, 452.987 281.302 M 404 280.948 C 401.815 281.501, 401.460 282.206, 401.185 286.538 C 401.012 289.264, 401.153 293, 401.498 294.840 C 402.068 297.878, 402.373 298.125, 404.813 297.525 C 409.240 296.437, 412.398 293.998, 411.082 292.682 C 410.239 291.839, 409.449 291.863, 407.989 292.775 C 405.348 294.424, 405 294.334, 405 292 C 405 290.889, 405.667 290, 406.500 290 C 407.325 290, 408 289.550, 408 289 C 408 288.450, 407.373 288, 406.607 288 C 405.026 288, 404.081 286.112, 404.731 284.250 C 404.970 283.563, 405.804 283, 406.583 283 C 408.071 283, 408.536 281.405, 407.250 280.717 C 406.837 280.496, 405.375 280.600, 404 280.948 M 347.928 285.430 C 345.687 290.495, 340.012 306.124, 340.005 307.250 C 340.002 307.663, 340.828 308, 341.840 308 C 343.124 308, 344.092 306.716, 345.045 303.750 C 345.796 301.413, 347.893 295.678, 349.705 291.007 C 353.490 281.250, 353.534 281, 351.444 281 C 350.565 281, 349.035 282.927, 347.928 285.430 M 389.500 284.117 C 387.850 285.768, 384.813 288.480, 382.750 290.144 L 379 293.168 378.885 289.834 C 378.683 284.017, 378.535 283.540, 376.828 283.208 C 375.396 282.930, 375.109 284.054, 374.828 291.040 C 374.648 295.527, 374.837 299.404, 375.250 299.658 C 375.663 299.911, 376 301.216, 376 302.559 C 376 304.376, 376.540 305, 378.111 305 C 379.962 305, 380.145 304.589, 379.598 301.672 C 379.051 298.754, 379.414 297.945, 382.548 295.093 L 386.122 291.840 388.385 294.282 C 391.942 298.119, 395.698 300.298, 396.505 298.991 C 396.896 298.360, 395.332 296.153, 392.912 293.919 L 388.629 289.965 392.335 286.169 C 395.778 282.643, 396.199 280.919, 393.583 281.057 C 392.988 281.089, 391.150 282.465, 389.500 284.117 M 416 282.417 C 416 283.288, 416.712 284, 417.583 284 C 419.349 284, 419.042 281.847, 417.188 281.229 C 416.534 281.011, 416 281.546, 416 282.417 M 359.366 285.467 C 353.496 290.143, 351.057 301.057, 355 305 C 357.560 307.560, 369 307.984, 369 305.518 C 369 304.388, 367.793 304.063, 363.918 304.150 C 356.851 304.310, 355.214 302.587, 356.926 296.793 C 358.560 291.264, 362.380 286.227, 365.248 285.820 C 366.486 285.644, 367.401 285.050, 367.281 284.500 C 366.841 282.492, 362.423 283.032, 359.366 285.467 M 268.224 287.759 C 265.597 288.634, 267.205 290.810, 271.250 291.852 C 274.871 292.785, 275.683 292.703, 276.740 291.297 C 277.421 290.389, 277.777 289.443, 277.529 289.196 C 276.776 288.443, 269.530 287.323, 268.224 287.759 M 418.263 299.501 C 406.653 305.558, 396.559 309.024, 383.500 311.437 C 378.550 312.352, 372.340 313.527, 369.701 314.050 C 363.505 315.276, 339.252 315.264, 331.500 314.030 C 328.200 313.505, 316.500 312.133, 305.500 310.982 C 294.500 309.831, 282.578 308.500, 279.006 308.025 C 271.860 307.074, 271.186 307.346, 268.030 312.451 C 266.150 315.493, 266.117 316.061, 267.453 322.445 C 268.947 329.588, 268.393 335.248, 264.558 352 C 259.435 374.379, 268.573 385.783, 295.432 390.536 C 305.682 392.349, 310.372 392.419, 309.743 390.750 C 306.092 381.067, 303.524 361.550, 304.381 350 C 304.687 345.875, 305.232 337.914, 305.593 332.309 C 306.081 324.726, 306.624 321.974, 307.715 321.556 C 309.558 320.849, 309.331 320.704, 322.500 330.984 C 340.943 345.381, 338.360 344.245, 350.748 343.404 C 356.662 343.002, 364.650 342.622, 368.500 342.558 C 372.350 342.495, 378.469 342.344, 382.097 342.222 L 388.695 342 395.275 332.118 C 403.809 319.299, 407.628 315, 410.481 315 C 413.433 315, 414.216 316.090, 417.308 324.500 C 418.724 328.350, 421.092 334.650, 422.570 338.500 C 429.334 356.119, 431.590 373.866, 428.765 387.250 C 427.452 393.471, 427.472 394, 429.021 394 C 433.785 394, 443.225 389.695, 448.081 385.307 C 453.392 380.510, 455.666 376.438, 456.489 370.250 L 457.188 365 445.094 365 C 434.091 365, 431.061 364.316, 434.004 362.498 C 434.556 362.157, 434.786 360.893, 434.516 359.689 C 433.672 355.929, 431.001 316.129, 430.986 307.098 C 430.973 298.494, 430.323 293.930, 429.133 294.080 C 428.785 294.124, 423.893 296.563, 418.263 299.501 M 254.833 305.625 C 254.742 306.106, 254.629 308.412, 254.583 310.748 C 254.522 313.900, 254.887 314.993, 256 314.983 C 258.692 314.960, 262.106 312.565, 264.171 309.250 L 266.196 306 263.723 306 C 262.363 306, 259.844 305.719, 258.125 305.375 C 256.406 305.031, 254.925 305.144, 254.833 305.625 M 460.434 313.465 C 450.929 318.383, 436.975 328.138, 437.016 329.836 C 437.092 333.039, 439.135 355.164, 439.571 357.502 L 440.130 360.504 463.215 360.319 C 481.056 360.175, 486.489 359.834, 487.135 358.817 C 488.460 356.726, 488.133 349.156, 486.589 346.200 C 483.410 340.115, 475.378 335, 469.001 335 C 463.803 335, 464.107 332.374, 469.888 327.317 C 475.831 322.118, 478 318.490, 478 313.750 C 478 306.352, 474.298 306.292, 460.434 313.465 M 249.250 318.662 C 248.563 318.940, 248 320.289, 248 321.660 C 248 323.033, 246.764 325.416, 245.250 326.962 C 243.738 328.506, 241.600 331.509, 240.500 333.635 C 238.938 336.654, 237.669 337.705, 234.704 338.438 C 231.600 339.204, 230.064 340.573, 226.284 345.938 C 223.741 349.547, 218.678 356.100, 215.033 360.500 C 211.388 364.900, 207.170 370.143, 205.660 372.151 L 202.914 375.802 207.634 377.604 L 212.354 379.407 214.427 376.535 C 215.567 374.955, 221.837 367.149, 228.361 359.188 C 234.884 351.227, 242.868 341.143, 246.104 336.779 C 251.170 329.946, 251.834 328.558, 250.885 326.785 C 250.279 325.652, 250.028 323.212, 250.329 321.363 C 250.629 319.513, 250.790 318.036, 250.687 318.079 C 250.584 318.122, 249.938 318.385, 249.250 318.662 M 102.372 328.765 C 100.646 329.890, 99.768 337.130, 99.793 350.040 C 99.815 361.056, 99.686 361.829, 97.658 362.856 C 82.426 370.570, 67.521 380.357, 60.982 386.939 C 50.267 397.725, 45.654 410.668, 48.097 423.090 C 49.526 430.352, 50.962 432.006, 55.821 431.983 C 71.100 431.911, 91.284 422.284, 102.510 409.715 C 110.714 400.529, 114.132 392.142, 116.316 375.837 L 117.532 366.757 125.831 363.941 C 140.736 358.884, 153.690 348.014, 147.597 345.676 C 146.036 345.077, 133.173 346.614, 128.500 347.958 C 120.160 350.356, 120.238 350.375, 119.469 345.747 C 118.656 340.856, 117.077 337.563, 113.809 333.944 C 109.190 328.832, 105.108 326.983, 102.372 328.765 M 88.764 340 C 87.583 344.010, 87.815 359.585, 89.038 358.362 C 89.658 357.742, 89.960 353.327, 89.788 347.412 C 89.606 341.148, 89.229 338.420, 88.764 340 M 209 341.714 C 209 344.982, 209.177 345.252, 210.470 343.958 C 211.348 343.081, 211.704 341.584, 211.354 340.244 C 210.433 336.722, 209 337.617, 209 341.714 M 630.903 353.750 C 630.850 354.163, 630.881 356.149, 630.973 358.164 C 631.197 363.071, 628.839 367.318, 624.351 370.092 C 621.031 372.144, 618.989 372.439, 604.367 372.976 C 588.993 373.541, 587.940 373.708, 585.541 375.962 C 576.315 384.628, 592.099 398, 611.555 398 C 618.674 398, 619.038 398.390, 616.988 403.811 C 613.432 413.216, 614.131 420.258, 619.165 425.727 C 624.329 431.338, 634.352 433.551, 641.352 430.626 C 644.568 429.283, 644.722 429.338, 648.383 433.133 C 650.442 435.268, 653.499 437.724, 655.176 438.591 C 660.033 441.102, 668.271 441.550, 673.424 439.582 C 677.751 437.930, 678.001 437.945, 683.182 440.193 C 687.003 441.850, 690.397 442.499, 695.236 442.495 C 701.505 442.491, 702.197 442.264, 705.236 439.226 L 708.500 435.961 708 425.230 C 707.149 406.957, 707.795 396.511, 710.418 386.141 C 711.759 380.839, 713.339 375.233, 713.928 373.685 C 714.518 372.137, 715 369.585, 715 368.014 C 715 364.551, 718.811 365.464, 677.500 359.027 C 674.200 358.513, 669.805 357.825, 667.733 357.498 C 641.117 353.297, 631.093 352.277, 630.903 353.750 M 619.921 358.249 C 619.623 360.399, 619.776 361.624, 620.279 361.121 C 620.762 360.638, 620.995 358.951, 620.798 357.372 C 620.468 354.728, 620.399 354.798, 619.921 358.249 M 147.500 362.309 C 146.400 362.964, 145.275 363.748, 145 364.052 C 144.312 364.812, 137.431 368.002, 132 370.079 C 127.537 371.785, 127.498 371.841, 127.269 376.900 C 127.137 379.801, 127.470 382, 128.042 382 C 129.957 382, 144 375.718, 144 374.861 C 144 374.388, 144.597 374, 145.326 374 C 147.341 374, 151 369.644, 151 367.245 C 151 366.075, 151.453 364.838, 152.008 364.495 C 152.638 364.106, 152.477 363.334, 151.579 362.436 C 149.909 360.766, 150.081 360.771, 147.500 362.309 M 106.500 364.357 C 105.400 364.995, 99.775 368.198, 94 371.474 C 88.225 374.751, 80.558 379.319, 76.962 381.627 C 70.579 385.723, 61.999 393.249, 62.001 394.749 C 62.003 395.503, 73.030 400.338, 73.502 399.792 C 73.641 399.631, 74.712 397.600, 75.883 395.278 C 78.583 389.925, 83.484 384.318, 87.099 382.449 C 94.375 378.686, 104.086 382.533, 102.570 388.579 C 101.674 392.155, 93.846 399.732, 88.021 402.662 L 83.723 404.824 88.459 406.981 C 91.064 408.168, 93.806 408.905, 94.553 408.618 C 96.836 407.742, 102.852 398.812, 105.053 393.034 C 107.551 386.473, 108.865 379.985, 109.670 370.250 C 110.282 362.842, 110.004 362.324, 106.500 364.357 M 147.405 365.146 C 145.513 367.276, 145.515 367.283, 147.694 366.140 C 150.125 364.865, 151.622 363, 150.214 363 C 149.717 363, 148.453 363.965, 147.405 365.146 M 389 364 C 388.175 364.533, 387.990 364.976, 388.589 364.985 C 389.189 364.993, 390.217 366.180, 390.874 367.623 C 392.371 370.909, 390.283 374.640, 386.400 375.614 C 383.086 376.446, 378.615 373.259, 378.195 369.765 L 377.889 367.227 374.007 369.353 C 370.364 371.349, 370.225 371.591, 371.750 373.276 C 375.884 377.844, 389.995 381.602, 398.883 380.502 C 406.091 379.610, 417.015 376.047, 416.950 374.609 C 416.866 372.742, 407.356 365.571, 403.312 364.327 C 398.597 362.876, 391.008 362.703, 389 364 M 332.500 366.227 C 329.090 367.443, 322 372.090, 320.145 374.326 C 319.090 375.597, 319.772 376.156, 324.702 378.062 C 332.680 381.146, 347.273 381.908, 353.168 379.549 C 358.666 377.350, 363 374.223, 363 372.458 C 363 370.946, 359.159 368.673, 352.834 366.441 L 348.896 365.052 350.926 367.633 C 352.584 369.741, 352.749 370.606, 351.828 372.357 C 350.352 375.163, 349.039 375.973, 346 375.953 C 340.301 375.915, 337.788 369.663, 342.223 366.557 C 344.372 365.051, 344.298 365.003, 339.973 365.079 C 337.513 365.122, 334.150 365.639, 332.500 366.227 M 510.537 379.458 C 510.903 382.231, 511.495 384.773, 511.852 385.106 C 512.772 385.968, 530.801 388, 537.519 388 C 542.414 388, 543.538 387.616, 546.077 385.077 C 549.021 382.133, 550.027 378, 547.800 378 C 546.867 378, 546.867 377.733, 547.800 376.800 C 550.161 374.439, 548.936 373.992, 545.250 375.869 C 541.209 377.926, 540.640 377.923, 521.185 375.706 L 509.870 374.417 510.537 379.458 M 186.471 382.347 C 185.611 388.079, 187.861 392.994, 192.824 396.227 C 196.912 398.890, 209.186 403, 213.051 403 C 214.877 403, 216.051 403.940, 217.436 406.511 C 220.070 411.401, 229.693 421.039, 236.658 425.762 C 246.329 432.320, 258.700 437.933, 271.500 441.571 C 274.800 442.509, 279.068 444.114, 280.985 445.138 C 282.902 446.162, 285.227 447, 286.152 447 C 287.077 447, 289.784 447.826, 292.167 448.835 C 294.550 449.845, 300.100 451.923, 304.500 453.454 C 308.900 454.985, 313.400 457.027, 314.500 457.994 C 319.020 461.963, 325.756 463.216, 331.185 461.096 C 334.426 459.830, 338.620 455.707, 337.161 455.220 C 336.515 455.005, 336.229 454.438, 336.524 453.961 C 336.820 453.483, 336.777 451.958, 336.429 450.573 C 335.821 448.152, 335.686 448.111, 332.948 449.527 C 327.512 452.338, 317.813 450.916, 314.995 446.895 C 314.360 445.989, 287.648 436.002, 285.837 435.994 C 285.102 435.990, 283.150 435.276, 281.500 434.407 C 279.850 433.538, 273.805 431.283, 268.067 429.395 C 244.538 421.656, 227.682 410.476, 218.848 396.750 C 216.321 392.823, 215.273 392, 212.800 392 C 204.893 392, 192.911 386.476, 189.348 381.188 L 187.137 377.907 186.471 382.347 M 572.070 388.816 C 571.987 397.449, 572.639 398.947, 579.273 405.372 C 584.552 410.485, 592.351 414.553, 598.878 415.597 L 602.751 416.216 603.218 423.502 C 603.756 431.877, 606.540 437.633, 612.646 442.994 C 618.953 448.532, 625.462 450.979, 633.912 450.990 C 640.418 450.999, 641.892 451.364, 645.955 453.971 C 648.502 455.605, 652.591 457.658, 655.043 458.532 C 660.081 460.330, 673.936 460.640, 676.957 459.023 C 678.113 458.404, 679.106 458.363, 679.450 458.920 C 680.540 460.683, 694.063 463.112, 698.881 462.410 C 707.980 461.084, 714.717 455.888, 717.476 448.067 L 719.030 443.663 716.765 445.555 C 715.519 446.595, 715.063 446.806, 715.750 446.023 C 716.438 445.241, 717 443.963, 717 443.184 C 717 442.324, 715.451 443.166, 713.062 445.325 C 710.896 447.282, 707.365 449.410, 705.214 450.054 C 699.873 451.654, 686.353 450.891, 682.142 448.752 C 679.734 447.528, 678.267 447.322, 676.958 448.023 C 675.953 448.560, 671.515 449, 667.094 449 C 658.788 449, 651.731 446.791, 645.202 442.145 C 643.185 440.711, 640.345 440.129, 634 439.852 C 622.206 439.335, 615.435 435.878, 608.731 426.947 C 605.364 422.463, 603.523 414.386, 604.808 409.733 L 605.750 406.321 598.910 404.547 C 586.193 401.248, 576.761 394.079, 573.517 385.247 L 572.141 381.500 572.070 388.816 M 634.655 400.829 C 632.340 403.387, 632.573 404, 635.861 404 C 638.374 404, 638.664 403.696, 638.245 401.500 C 637.676 398.524, 636.876 398.374, 634.655 400.829 M 57.182 403.750 C 55.411 408.344, 54.756 414.889, 55.484 420.717 L 56.175 426.248 60.337 425.673 C 67.523 424.681, 77.288 421.201, 82.991 417.601 C 88.355 414.214, 88.425 414.112, 85.991 413.179 C 84.621 412.653, 80.350 410.772, 76.500 408.998 C 67.596 404.896, 58.826 401, 58.497 401 C 58.357 401, 57.765 402.238, 57.182 403.750 M 501.946 406.597 C 494.685 414.177, 482.855 421.501, 469 426.994 C 464.325 428.848, 460.116 431, 459.647 431.777 C 458.565 433.569, 451.195 436.949, 448.307 436.978 C 446.329 436.998, 446.125 437.491, 446.227 442 L 446.341 447 450.136 447 C 452.897 447, 454.830 446.210, 457.235 444.099 C 459.052 442.503, 464.355 439.681, 469.020 437.828 C 473.684 435.974, 480.634 432.704, 484.465 430.560 C 492.228 426.215, 505 414.019, 505 410.951 C 505 409.878, 505.525 409, 506.167 409 C 506.808 409, 507.049 408.716, 506.702 408.369 C 506.355 408.021, 506.564 406.784, 507.167 405.619 C 507.771 404.453, 505.842 406.007, 502.882 409.071 C 499.922 412.136, 498.440 413.486, 499.589 412.071 C 502.418 408.589, 506.223 403, 505.764 403 C 505.560 403, 503.842 404.619, 501.946 406.597 M 36.053 412.750 C 33.799 420.867, 35.784 439.689, 39.492 445.347 C 40.482 446.859, 42.857 448.749, 44.768 449.548 C 48.663 451.175, 62.574 451.527, 66.203 450.091 C 67.466 449.590, 71.200 448.397, 74.500 447.439 C 86.715 443.892, 102.501 434.370, 107.146 427.746 C 108.657 425.590, 108.847 424.961, 107.711 425.872 C 105.348 427.768, 105.571 426.412, 108.237 422.667 C 110.124 420.017, 109.461 420.345, 104.001 424.763 C 100.442 427.643, 97.072 429.986, 96.514 429.968 C 95.342 429.931, 98.974 427, 100.191 427 C 100.636 427, 101 426.325, 101 425.500 C 101 423.478, 100.409 423.597, 96.683 426.365 C 91.516 430.204, 79.092 435.739, 70.500 438.030 C 64.480 439.635, 60.339 440.081, 53.772 439.831 C 46.026 439.537, 44.763 439.218, 42.558 437 C 39.122 433.545, 36.624 423.279, 37.267 415.265 C 37.543 411.819, 37.618 409, 37.432 409 C 37.246 409, 36.625 410.688, 36.053 412.750 M 663.980 411.524 C 662.508 413.298, 662.743 413.679, 665.597 414.152 C 667.720 414.504, 668 414.196, 668 411.500 C 668 409.555, 665.602 409.570, 663.980 411.524 M 62.223 412.557 C 58.254 415.336, 59.980 420, 64.977 420 C 70.648 420, 74.292 414.297, 70.066 412.035 C 67.343 410.578, 64.806 410.747, 62.223 412.557 M 693.634 415.852 C 691.335 418.393, 691.580 419, 694.906 419 C 697.328 419, 697.725 418.664, 697.286 416.984 C 696.533 414.104, 695.504 413.786, 693.634 415.852 M 493.872 416.750 C 492.629 418.336, 492.664 418.371, 494.250 417.128 C 495.916 415.821, 496.445 415, 495.622 415 C 495.415 415, 494.627 415.788, 493.872 416.750 M 103.405 422.146 C 101.510 424.280, 101.512 424.285, 103.750 423.110 C 104.987 422.461, 106 421.495, 106 420.965 C 106 419.544, 105.521 419.762, 103.405 422.146 M 458.020 435.476 C 457.231 436.426, 457.155 437, 457.819 437 C 459.027 437, 460.436 435.103, 459.743 434.409 C 459.491 434.158, 458.716 434.638, 458.020 435.476 M 339.937 441.500 C 339.901 442.050, 339.732 443.914, 339.561 445.643 C 338.968 451.621, 338.426 451.511, 367.777 451.385 L 394.625 451.269 397.549 456.675 C 401.353 463.707, 404.016 465.398, 411.207 465.345 C 415.899 465.310, 417.577 464.797, 420.639 462.462 C 422.687 460.900, 423.832 459.444, 423.182 459.227 C 422.532 459.011, 422.007 458.083, 422.015 457.167 C 422.025 456.134, 422.310 455.914, 422.765 456.588 C 423.169 457.186, 425.557 458.185, 428.070 458.807 C 433.255 460.090, 438.305 459.121, 442.135 456.108 C 444.407 454.321, 444.557 453.568, 444.077 446.341 C 444.026 445.576, 442.655 445.832, 440.048 447.091 C 435.446 449.314, 432.920 449.462, 428.266 447.779 C 425.450 446.761, 424.741 446.801, 423.987 448.021 C 423.490 448.825, 423.307 450.387, 423.580 451.492 C 423.918 452.858, 423.346 453.937, 421.789 454.868 C 420.009 455.931, 419.778 455.942, 420.750 454.918 C 423.372 452.154, 422.057 451.187, 418.289 453.108 C 409.364 457.658, 402.517 454.334, 396.469 442.514 C 395.474 440.569, 394.496 440.500, 367.720 440.500 C 349.951 440.500, 339.978 440.859, 339.937 441.500 M 189.875 448.439 C 186.394 450.804, 183 456.192, 183 459.352 C 183 464.980, 185.404 470.996, 189.544 475.728 C 194.635 481.548, 195.028 483, 191.511 483 C 188.225 483, 176.532 487.642, 171.517 490.937 C 169.326 492.376, 166.521 495.342, 165.283 497.527 C 160.845 505.364, 163.252 513.007, 171.402 516.953 C 176.115 519.234, 176.651 519.897, 175.121 521.550 C 174.637 522.072, 173.690 524.226, 173.015 526.336 C 170.545 534.060, 175.333 542.555, 183.273 544.536 C 186.946 545.453, 189 548.582, 189 553.261 C 189 556.321, 189.779 557.912, 192.931 561.289 L 196.861 565.500 204.707 565.500 C 212.198 565.500, 212.783 565.331, 217.660 561.750 C 220.469 559.688, 223.029 558, 223.349 558 C 223.668 558, 228.026 555.516, 233.033 552.480 C 248.904 542.856, 259.037 538.392, 283.982 530.031 C 295.399 526.204, 297.492 525.189, 297.447 523.500 C 297.391 521.349, 259.503 463.462, 256.572 461.048 C 255.023 459.772, 254.488 459.801, 252.155 461.281 C 245.543 465.478, 241.315 466.957, 235.872 466.978 C 228.095 467.008, 224.013 465.007, 216.749 457.602 C 207.910 448.590, 203.745 446, 198.093 446 C 194.834 446, 192.402 446.722, 189.875 448.439 M 171.558 463.354 C 170.761 468.095, 171.325 478.658, 172.434 479.768 C 172.741 480.074, 174.111 479.815, 175.479 479.191 L 177.967 478.058 175.821 474.422 C 174.624 472.393, 173.388 468.071, 173.025 464.643 L 172.375 458.500 171.558 463.354 M 532.345 475.814 C 526.820 479.562, 519.992 484.574, 517.173 486.951 C 511.309 491.896, 514.313 491.982, 490 486.175 C 470.915 481.617, 464.185 480.807, 455.750 482.052 C 440.351 484.326, 429.632 489.416, 419.750 499.147 C 416.038 502.802, 413 506.288, 413 506.894 C 413 508.981, 420.241 516.002, 426.006 519.504 C 441.541 528.940, 465.271 531.430, 483.500 525.534 C 490.650 523.222, 502.418 517.349, 510.165 512.226 L 516.831 507.819 525.165 511.945 C 533.237 515.941, 542.861 518.897, 548 518.959 C 552.883 519.017, 558 517.011, 558 515.038 C 558 512.940, 550.704 506.787, 541.811 501.385 L 535.956 497.828 540.872 492.450 C 549.872 482.602, 551.973 469, 544.495 469 C 543.337 469, 537.869 472.066, 532.345 475.814 M 455.514 494.250 C 455.905 497.688, 456.400 500.688, 456.614 500.918 C 456.828 501.148, 458.015 500.832, 459.252 500.215 C 465.509 497.096, 478.149 495.965, 483.601 498.038 C 487.879 499.665, 490.139 502.906, 489.798 506.926 C 489.172 514.301, 479.597 516.884, 465.500 513.480 C 462.200 512.683, 459.240 512.024, 458.923 512.016 C 458.606 512.007, 458.807 514.250, 459.371 517 L 460.395 522 464.648 522 C 473.549 522, 487.313 517.678, 497.500 511.685 C 504.563 507.530, 516.065 499.731, 515.687 499.354 C 515.217 498.883, 484.592 491.154, 476.500 489.464 C 472.650 488.660, 466.193 488.001, 462.152 488.001 L 454.804 488 455.514 494.250 M 438.150 494.162 C 434.778 495.901, 429.653 499.453, 426.760 502.056 L 421.500 506.788 423.864 509.330 C 427.250 512.970, 438.668 518.713, 445.853 520.389 C 449.234 521.177, 451.999 521.525, 451.997 521.161 C 451.993 520.180, 448.126 496.943, 447.436 493.750 C 446.679 490.251, 445.643 490.297, 438.150 494.162 M 553.130 494.163 C 551.268 497.144, 553.509 499.347, 555.567 496.559 C 557.761 493.587, 557.270 492.469, 554.944 495.139 L 552.887 497.500 554.025 495.164 C 555.481 492.173, 554.829 491.443, 553.130 494.163 M 199.166 496.465 L 200.289 498.930 203.145 496.897 C 204.715 495.779, 206 494.669, 206 494.432 C 206 494.194, 204.210 494, 202.021 494 C 198.156 494, 198.075 494.070, 199.166 496.465 M 433.146 503.345 C 430.469 506.195, 431.118 508.493, 435.197 510.602 C 437.861 511.980, 438.391 511.974, 440.576 510.542 C 443.654 508.525, 443.752 504.640, 440.777 502.557 C 437.701 500.402, 435.719 500.606, 433.146 503.345 M 150.948 508 C 150.123 519.397, 151.930 525.816, 157.403 530.924 C 159.673 533.044, 160 534.150, 160 539.714 C 160 549.045, 165.496 558.549, 173.236 562.604 C 174.774 563.410, 176.257 565.231, 176.626 566.768 C 181.268 586.134, 205.097 593.062, 223.568 580.417 C 227.116 577.988, 230.274 576, 230.585 576 C 230.895 576, 234.154 574.068, 237.825 571.707 C 252.084 562.538, 266.835 556.121, 292.732 547.822 C 301.634 544.969, 305.382 542.193, 306.036 537.964 C 306.331 536.059, 306.395 533.728, 306.179 532.785 C 305.815 531.202, 305.474 531.228, 301.773 533.116 C 299.566 534.242, 290.502 537.638, 281.630 540.663 C 263.042 547.001, 249.873 552.964, 238.859 560.029 C 234.598 562.763, 230.738 565, 230.283 565 C 229.828 565, 227.806 566.360, 225.790 568.021 C 221.105 571.883, 210.202 576, 204.659 576 C 197.918 576, 190.304 573.270, 185.868 569.262 C 181.458 565.278, 178 559.354, 178 555.784 C 178 554.180, 177.069 553.076, 174.909 552.120 C 166.714 548.492, 161.750 540.090, 162.100 530.435 C 162.322 524.311, 162.158 523.783, 159.095 520.789 C 155.317 517.095, 153.332 513.550, 152.092 508.282 L 151.201 504.500 150.948 508 M 401.568 512.397 C 398.981 529.645, 430.587 548.999, 461.343 549 C 469.810 549, 486.229 545.734, 494.383 542.428 C 497.748 541.064, 504.423 537.687, 509.217 534.923 L 517.934 529.899 524.717 532.869 C 545.208 541.843, 566.283 539.666, 567.015 528.500 C 567.451 521.854, 567.323 521.636, 564.250 523.800 C 562.737 524.866, 558.558 526.243, 554.962 526.861 C 546.860 528.254, 536.524 526.525, 525.491 521.932 L 518.091 518.851 512.104 522.360 C 501.673 528.473, 491.781 532.744, 482.500 535.141 C 470.254 538.303, 453.215 538.319, 441 535.180 C 424.902 531.044, 410.876 522.393, 405.365 513.203 L 402.231 507.975 401.568 512.397 M 206.032 520.750 C 206.049 521.163, 206.731 522.383, 207.547 523.462 C 209.002 525.386, 209.083 525.371, 211.743 522.712 L 214.455 520 210.227 520 C 207.902 520, 206.014 520.337, 206.032 520.750 M 220 543.566 C 220 543.877, 220.463 544.997, 221.030 546.056 C 221.897 547.677, 222.367 547.788, 224.010 546.761 C 227.483 544.593, 227.253 543, 223.469 543 C 221.561 543, 220 543.255, 220 543.566" stroke="none" fill="black" fill-rule="evenodd"/>
</svg>